{
.appVersion = "3343";
.formatVersion = 3;
axes = (
{
name = Weight;
tag = wght;
}
);
classes = (
{
code = "A AE AEacute Aacute Abreve Acaron Acircumflex Adieresis Agrave Amacron Aogonek Aring Atilde B C Cacute Ccaron Ccedilla Ccircumflex Cdotaccent D Dcaron Dcroat E Eacute Ebreve Ecaron Ecircumflex Edieresis Edotaccent Egrave Emacron Eng Eogonek Eth F G Gbreve Gcircumflex Gcommaaccent Gdotaccent H Hbar Hcircumflex I IJ Iacute Ibreve Icircumflex Idieresis Idotaccent Igrave Imacron Iogonek Itilde J Jcircumflex K Kcommaaccent L Lacute Lcaron Lcommaaccent Ldot Lslash M N Nacute Ncaron Ncommaaccent Ntilde O OE Oacute Obreve Ocircumflex Odieresis Ograve Ohungarumlaut Omacron Oslash Oslashacute Otilde P Q R Racute Rcaron Rcommaaccent S Sacute Scaron Scedilla Scircumflex Scommaaccent T Tbar Tcaron Tcommaaccent Thorn U Uacute Ubreve Ucircumflex Udieresis Ugrave Uhungarumlaut Umacron Uogonek Uring Utilde V W Wacute Wcircumflex Wdieresis Wgrave X Y Yacute Ycircumflex Ydieresis Ygrave Z Zacute Zcaron Zdotaccent acute.case breve.case caron.case caron.alt.case cedilla.case circumflex.case commaaccent.case dieresis.case dotaccent.case Germandbls grave.case hungarumlaut.case macron.case ogonek.case ring.case tilde.case F_B F_F F_F_B F_F_H F_F_I F_F_J F_F_K F_F_L F_F_T F_H F_I F_J F_K F_L F_T T_T
";
name = c2pc_c2sc;
},
{
code = "zero.osf one.osf two.osf three.osf four.osf five.osf six.osf seven.osf eight.osf nine.osf zero.tosf one.tosf two.tosf three.tosf four.tosf five.tosf six.tosf seven.tosf eight.tosf nine.tosf zero one two three four five six seven eight nine zero.fit one.fit two.fit three.fit four.fit five.fit six.fit seven.fit eight.fit nine.fit zero.numr one.numr two.numr three.numr four.numr five.numr six.numr seven.numr eight.numr nine.numr";
name = dnom_frac;
},
{

glyphs = (
{
color = 4;
glyphname = A;
kernLeft = KO_A;
kernRight = KO_A;
lastChange = "2024-02-12 15:03:03 +0000";
layers = (
{
anchors = (
{
name = bottom;
pos = (141,-100);
},
{
name = top;
pos = (330,450);
}
);
layerId = m001;
shapes = (
{
closed = 1;
nodes = (
(162,0,l),
(163,28,l),
(101,58,l),
(169,196,l),
(364,196,l),
(398,58,l),
(320,28,l),
(319,0,l),
(605,0,l),
(606,28,l),
(555,57,l),
(405,640,l),
(311,613,l),
(34,58,l),
(-23,28,l),
(-24,0,l)
);
},
{
closed = 1;
nodes = (
(300,459,l),
(351,250,l),
(196,250,l)
);
}
);
userData = {
com.hugojourdan.ColorFlow = {
"0" = 0;
"1" = 0;
"10" = 0;
"11" = 0;
"2" = 0;
"3" = 0;
"4" = 0;
"5" = 0;
"6" = 0;
"7" = 0;
"8" = 0;
"9" = 0;
};
};
width = 610;
},
{
anchors = (
{
name = bottom;
pos = (514,-100);
},
{
name = top;
pos = (266,450);
}
);
layerId = "5B801A11-FB24-4494-9FC9-AC06A39D30E5";
shapes = (
{
closed = 1;
nodes = (
(157,0,l),
(158,15,l),
(87,58,l),
(163,244,l),
(360,244,l),
(409,58,l),
(317,15,l),
(316,0,l),
(541,0,l),
(542,15,l),
(486,57,l),
(328,627,l),
(284,602,l),
(38,58,l),
(-23,15,l),
(-24,0,l)
);
},
{
closed = 1;
nodes = (
(282,539,l),
(351,277,l),
(176,277,l)
);
}
);
userData = {
com.hugojourdan.ColorFlow = {
"0" = 0;
"1" = 0;
"10" = 0;
"11" = 0;
"2" = 0;
"3" = 0;
"4" = 0;
"5" = 0;
"6" = 0;
"7" = 0;
"8" = 0;
"9" = 0;
};
};
width = 557;
}
);
unicode = 65;
},
{
color = 4;
glyphname = AE;
lastChange = "2024-02-12 15:03:03 +0000";
layers = (
{
anchors = (
{
name = bottom;
pos = (329,-100);
},
{
name = top;
pos = (329,450);
}
);
layerId = m001;
shapes = (
{
closed = 1;
nodes = (
(102,0,l),
(103,28,l),
(44,58,l),
(179,279,l),
(326,279,l),
(311,58,l),
(248,27,l),
(247,0,l),
(693,0,l),
(753,229,l),
(718,229,l),
(582,54,l),
(474,54,l),
(489,279,l),
(557,279,l),
(684,271,l),
(705,348,l),
(567,337,l),
(493,337,l),
(508,558,l),
(612,558,l),
(667,437,l),
(698,437,l),
(744,612,l),
(226,612,l),
(225,585,l),
(282,577,l),
(-24,57,l),
(-83,28,l),
(-84,0,l)
);
},
{
closed = 1;
nodes = (
(343,549,l),
(329,333,l),
(212,333,l)
);
}
);
userData = {
com.hugojourdan.ColorFlow = {
"0" = 0;
"1" = 0;
"10" = 0;
"11" = 0;
"2" = 0;
"3" = 0;
"4" = 0;
"5" = 0;
"6" = 0;
"7" = 0;
"8" = 0;
"9" = 0;
};
};
width = 768;
},
{
anchors = (
{
name = bottom;
pos = (337,-100);
},
{
name = top;
pos = (337,450);
}
);
layerId = "5B801A11-FB24-4494-9FC9-AC06A39D30E5";
shapes = (
{
closed = 1;
nodes = (
(129,0,l),
(130,15,l),
(67,58,l),
(222,292,l),
(381,292,l),
(364,58,l),
(269,16,l),
(268,0,l),
(671,0,l),
(705,128,l),
(683,128,l),
(608,33,l),
(427,33,l),
(445,295,l),
(509,295,l),
(617,282,l),
(628,329,l),
(508,321,l),
(447,321,l),
(465,579,l),
(634,579,l),
(672,493,l),
(694,493,l),
(725,612,l),
(309,612,l),
(308,598,l),
(367,577,l),
(12,52,l),
(-51,15,l),
(-52,0,l)
);
},
{
closed = 1;
nodes = (
(400,561,l),
(383,325,l),
(244,325,l)
);
}
);
userData = {
com.hugojourdan.ColorFlow = {
"0" = 0;
"1" = 0;
"10" = 0;
"11" = 0;
"2" = 0;
"3" = 0;
"4" = 0;
"5" = 0;
"6" = 0;
"7" = 0;
"8" = 0;
"9" = 0;
};
};
width = 749;
},
{
anchors = (
{
name = bottom;
pos = (329,-100);
},
{
name = top;
pos = (329,450);
}
);
associatedMasterId = m001;
layerId = "11386515-8D95-4594-80CE-558FB0BDA795";
name = "4 de oct. de 23, 8:50";
shapes = (
{
closed = 1;
nodes = (
(102,0,l),
(103,28,l),
(44,58,l),
(179,279,l),
(326,279,l),
(311,58,l),
(248,27,l),
(247,0,l),
(699,0,l),
(753,229,l),
(718,229,l),
(584,54,l),
(474,54,l),
(489,279,l),
(557,279,l),
(684,271,l),
(705,348,l),
(567,337,l),
(493,337,l),
(508,558,l),
(612,558,l),
(670,437,l),
(703,437,l),
(744,612,l),
(226,612,l),
(225,585,l),
(282,577,l),
(-24,57,l),
(-83,28,l),
(-84,0,l)
);
},
{
closed = 1;
nodes = (
(343,549,l),
(329,333,l),
(212,333,l)
);
}
);
width = 768;
},
{
anchors = (
{
name = bottom;
pos = (337,-100);
},
{
name = top;
pos = (337,450);
}
);
associatedMasterId = "5B801A11-FB24-4494-9FC9-AC06A39D30E5";
layerId = "DE0F937F-1BC0-4FFD-954F-1313B7F0E40C";
name = "4 de oct. de 23, 8:50";
shapes = (
{
closed = 1;
nodes = (
(129,0,l),
(130,15,l),
(67,58,l),
(222,292,l),
(381,292,l),
(364,58,l),
(269,16,l),
(268,0,l),
(672,0,l),
(705,128,l),
(683,128,l),
(608,33,l),
(427,33,l),
(445,295,l),
(509,295,l),
(617,282,l),
(628,329,l),
(508,321,l),
(447,321,l),
(465,579,l),
(634,579,l),
(675,493,l),
(698,493,l),
(725,612,l),
(309,612,l),
(308,598,l),
(367,577,l),
(12,52,l),
(-51,15,l),
(-52,0,l)
);
},
{
closed = 1;
nodes = (
(400,561,l),
(383,325,l),
(244,325,l)
);
}
);
width = 749;
}
);
unicode = 198;
},
{
color = 4;
glyphname = B;
kernLeft = KO_B;
kernRight = KO_B;
lastChange = "2024-02-12 15:03:03 +0000";
layers = (
{
anchors = (
{
name = bottom;
pos = (293,-100);
},
{
name = top;
pos = (293,450);
}
);
layerId = m001;
shapes = (
{
closed = 1;
nodes = (
(295,0,ls),
(414,0,o),
(560,62,o),
(570,183,cs),
(577,256,o),
(541,319,o),
(436,342,c),
(525,370,o),
(554,420,o),
(557,465,cs),
(563,569,o),
(460,612,o),
(352,612,cs),
(58,612,l),
(57,585,l),
(127,554,l),
(93,58,l),
(17,28,l),
(16,0,l)
);
},
{
closed = 1;
nodes = (
(306,62,o),
(271,68,o),
(257,72,c),
(272,292,l),
(401,285,o),
(417,209,o),
(413,159,cs),
(408,76,o),
(371,62,o),
(332,62,cs)
);
},
{
closed = 1;
nodes = (
(292,347,o),
(283,348,o),
(276,349,c),
(290,559,l),
(387,553,o),
(401,502,o),
(398,444,cs),
(393,365,o),
(367,347,o),
(302,347,cs)
);
}
);
userData = {
com.hugojourdan.ColorFlow = {
"0" = 0;
"1" = 0;
"10" = 0;
"11" = 0;
"2" = 0;
"3" = 0;
"4" = 0;
"5" = 0;
"6" = 0;
"7" = 0;
"8" = 0;
"9" = 0;
};
};
width = 595;
},
{
anchors = (
{
name = bottom;
pos = (234,-100);
},
{
name = top;
pos = (234,450);
}
);
layerId = "5B801A11-FB24-4494-9FC9-AC06A39D30E5";
shapes = (
{
closed = 1;
nodes = (
(223,0,ls),
(347,0,o),
(440,67,o),
(447,175,cs),
(452,255,o),
(398,312,o),
(321,329,c),
(392,356,o),
(433,405,o),
(437,465,cs),
(443,548,o),
(383,612,o),
(275,612,cs),
(63,612,l),
(62,598,l),
(130,554,l),
(96,58,l),
(22,15,l),
(21,0,l)
);
},
{
closed = 1;
nodes = (
(224,28,o),
(190,33,o),
(159,40,c),
(176,298,l),
(299,314,o),
(384,287,o),
(376,140,cs),
(371,57,o),
(318,31,o),
(256,29,cs)
);
},
{
closed = 1;
nodes = (
(234,331,o),
(201,333,o),
(179,342,c),
(196,578,l),
(284,583,o),
(384,569,o),
(371,433,cs),
(366,376,o),
(340,331,o),
(254,331,cs)
);
}
);
userData = {
com.hugojourdan.ColorFlow = {
"0" = 0;
"1" = 0;
"10" = 0;
"11" = 0;
"2" = 0;
"3" = 0;
"4" = 0;
"5" = 0;
"6" = 0;
"7" = 0;
"8" = 0;
"9" = 0;
};
};
width = 488;
}
);
unicode = 66;
},
{
color = 4;
glyphname = C;
kernLeft = KO_C;
kernRight = KO_C;
lastChange = "2024-02-12 15:03:03 +0000";
layers = (
{
anchors = (
{
name = bottom;
pos = (317,-100);
},
{
name = top;
pos = (261,450);
}
);
layerId = m001;
shapes = (
{
closed = 1;
nodes = (
(346,-18,o),
(406,0,o),
(439,17,c),
(486,180,l),
(451,180,l),
(369,60,l),
(362,57,o),
(353,55,o),
(339,55,cs),
(232,55,o),
(188,129,o),
(204,343,cs),
(214,510,o),
(246,560,o),
(290,560,cs),
(314,560,o),
(343,553,o),
(360,544,c),
(417,429,l),
(451,429,l),
(497,603,l),
(468,618,o),
(423,630,o),
(357,630,cs),
(169,630,o),
(41,500,o),
(26,311,cs),
(8,67,o),
(119,-18,o),
(291,-18,cs)
);
}
);
userData = {
com.hugojourdan.ColorFlow = {
"0" = 0;
"1" = 0;
"10" = 0;
"11" = 0;
"2" = 0;
"3" = 0;
"4" = 0;
"5" = 0;
"6" = 0;
"7" = 0;
"8" = 0;
"9" = 0;
};
};
width = 501;
},
{
anchors = (
{
name = bottom;
pos = (261,-100);
},
{
name = top;
pos = (280,450);
}
);
layerId = "5B801A11-FB24-4494-9FC9-AC06A39D30E5";
shapes = (
{
closed = 1;
nodes = (
(341,-10,o),
(386,0,o),
(444,28,c),
(475,145,l),
(453,145,l),
(369,32,l),
(359,29,o),
(342,28,o),
(330,28,cs),
(218,28,o),
(119,126,o),
(132,332,cs),
(145,510,o),
(190,574,o),
(330,574,cs),
(346,574,o),
(379,573,o),
(387,571,c),
(441,488,l),
(461,488,l),
(489,595,l),
(460,610,o),
(418,622,o),
(365,622,cs),
(220,622,o),
(86,508,o),
(74,319,cs),
(59,99,o),
(154,-10,o),
(286,-10,cs)
);
}
);
userData = {
com.hugojourdan.ColorFlow = {
"0" = 0;
"1" = 0;
"10" = 0;
"11" = 0;
"2" = 0;
"3" = 0;
"4" = 0;
"5" = 0;
"6" = 0;
"7" = 0;
"8" = 0;
"9" = 0;
};
};
width = 553;
},
{
anchors = (
{
name = bottom;
pos = (317,-100);
},
{
name = top;
pos = (261,450);
}
);
associatedMasterId = m001;
layerId = "5662D45A-0B91-4450-8AE4-2522D06828F5";
name = "4 de oct. de 23, 8:56";
shapes = (
{
closed = 1;
nodes = (
(346,-18,o),
(389,-11,o),
(444,9,c),
(482,180,l),
(447,180,l),
(373,59,l),
(366,57,o),
(355,55,o),
(341,55,cs),
(234,55,o),
(188,129,o),
(204,343,cs),
(214,510,o),
(246,560,o),
(290,560,cs),
(314,560,o),
(334,557,o),
(360,544,c),
(421,429,l),
(455,429,l),
(497,603,l),
(468,618,o),
(423,630,o),
(357,630,cs),
(169,630,o),
(41,500,o),
(26,311,cs),
(8,67,o),
(119,-18,o),
(291,-18,cs)
);
}
);
width = 497;
},
{
anchors = (
{
name = bottom;
pos = (261,-100);
},
{
name = top;
pos = (280,450);
}
);
associatedMasterId = "5B801A11-FB24-4494-9FC9-AC06A39D30E5";
layerId = "41BE7BC7-AB9D-459B-A441-E15C02C4D4E7";
name = "4 de oct. de 23, 8:56";
shapes = (
{
closed = 1;
nodes = (
(341,-10,o),
(386,0,o),
(444,28,c),
(474,145,l),
(452,145,l),
(368,32,l),
(355,29,o),
(342,28,o),
(330,28,cs),
(218,28,o),
(119,126,o),
(132,332,cs),
(145,510,o),
(190,573,o),
(330,573,cs),
(346,573,o),
(373,573,o),
(387,571,c),
(440,488,l),
(460,488,l),
(489,595,l),
(460,610,o),
(418,622,o),
(365,622,cs),
(220,622,o),
(86,508,o),
(74,319,cs),
(59,99,o),
(154,-10,o),
(286,-10,cs)
);
}
);
width = 553;
}
);
unicode = 67;
},
{
color = 4;
glyphname = D;
kernLeft = KO_B;
kernRight = KO_D;
lastChange = "2024-02-12 15:03:03 +0000";
layers = (
{
anchors = (
{
name = bottom;
pos = (327,-100);
},
{
name = top;
pos = (364,450);
}
);
layerId = m001;
shapes = (
{
closed = 1;
nodes = (
(290,0,ls),
(446,0,o),
(621,109,o),
(636,308,cs),
(651,506,o),
(545,612,o),
(351,612,cs),
(58,612,l),
(57,585,l),
(127,554,l),
(93,58,l),
(17,28,l),
(16,0,l)
);
},
{
closed = 1;
nodes = (
(290,558,l),
(337,558,ls),
(424,558,o),
(468,465,o),
(459,267,cs),
(450,87,o),
(400,74,o),
(326,72,cs),
(304,72,o),
(281,75,o),
(258,82,c)
);
}
);
userData = {
com.hugojourdan.ColorFlow = {
"0" = 0;
"1" = 0;
"10" = 0;
"11" = 0;
"2" = 0;
"3" = 0;
"4" = 0;
"5" = 0;
"6" = 0;
"7" = 0;
"8" = 0;
"9" = 0;
};
};
width = 660;
},
{
anchors = (
{
name = bottom;
pos = (279,-100);
},
{
name = top;
pos = (217,450);
}
);
layerId = "5B801A11-FB24-4494-9FC9-AC06A39D30E5";
shapes = (
{
closed = 1;
nodes = (
(221,0,ls),
(410,0,o),
(520,96,o),
(535,308,cs),
(550,517,o),
(444,612,o),
(266,612,cs),
(63,612,l),
(62,598,l),
(130,554,l),
(96,58,l),
(22,15,l),
(21,0,l)
);
},
{
closed = 1;
nodes = (
(196,579,l),
(220,579,ls),
(379,579,o),
(489,481,o),
(472,272,cs),
(458,98,o),
(384,37,o),
(273,37,cs),
(221,37,o),
(188,44,o),
(160,52,c)
);
}
);
userData = {
com.hugojourdan.ColorFlow = {
"0" = 0;
"1" = 0;
"10" = 0;
"11" = 0;
"2" = 0;
"3" = 0;
"4" = 0;
"5" = 0;
"6" = 0;
"7" = 0;
"8" = 0;
"9" = 0;
};
};
width = 596;
}
);
unicode = 68;
},
{
color = 4;
glyphname = Dcroat;
kernRight = KO_D;
lastChange = "2024-02-12 15:03:03 +0000";
layers = (
{
layerId = m001;
shapes = (
{
closed = 1;
nodes = (
(397,285,l),
(401,351,l),
(41,351,l),
(37,285,l)
);
},
{
ref = D;
}
);
userData = {
com.hugojourdan.ColorFlow = {
"0" = 0;
"1" = 0;
"10" = 0;
"11" = 0;
"2" = 0;
"3" = 0;
"4" = 0;
"5" = 0;
"6" = 0;
"7" = 0;
"8" = 0;
"9" = 0;
};
};
width = 660;
},
{
layerId = "5B801A11-FB24-4494-9FC9-AC06A39D30E5";
shapes = (
{
closed = 1;
nodes = (
(346,304,l),
(350,332,l),
(46,332,l),
(42,304,l)
);
},
{
ref = D;
}
);
userData = {
com.hugojourdan.ColorFlow = {
"0" = 0;
"1" = 0;
"10" = 0;
"11" = 0;
"2" = 0;
"3" = 0;
"4" = 0;
"5" = 0;
"6" = 0;
"7" = 0;
"8" = 0;
"9" = 0;
};
};
width = 596;
}
);
unicode = 272;
},
{
color = 4;
glyphname = Eth;
kernRight = KO_D;
lastChange = "2024-02-12 15:03:03 +0000";
layers = (
{
layerId = m001;
shapes = (
{
closed = 1;
nodes = (
(397,285,l),
(401,351,l),
(41,351,l),
(37,285,l)
);
},
{
ref = D;
}
);
userData = {
com.hugojourdan.ColorFlow = {
"0" = 0;
"1" = 0;
"10" = 0;
"11" = 0;
"2" = 0;
"3" = 0;
"4" = 0;
"5" = 0;
"6" = 0;
"7" = 0;
"8" = 0;
"9" = 0;
};
};
width = 660;
},
{
layerId = "5B801A11-FB24-4494-9FC9-AC06A39D30E5";
shapes = (
{
closed = 1;
nodes = (
(346,304,l),
(350,332,l),
(46,332,l),
(42,304,l)
);
},
{
ref = D;
}
);
userData = {
com.hugojourdan.ColorFlow = {
"0" = 0;
"1" = 0;
"10" = 0;
"11" = 0;
"2" = 0;
"3" = 0;
"4" = 0;
"5" = 0;
"6" = 0;
"7" = 0;
"8" = 0;
"9" = 0;
};
};
width = 596;
}
);
unicode = 208;
},
{
color = 4;
glyphname = E;
kernLeft = KO_E;
kernRight = KO_E;
lastChange = "2024-02-12 15:03:03 +0000";
layers = (
{
anchors = (
{
name = bottom;
pos = (205,-100);
},
{
name = top;
pos = (267,450);
}
);
layerId = m001;
shapes = (
{
closed = 1;
nodes = (
(474,0,l),
(525,197,l),
(490,197,l),
(365,54,l),
(252,54,l),
(268,289,l),
(335,289,l),
(422,281,l),
(443,358,l),
(345,347,l),
(272,347,l),
(286,558,l),
(394,558,l),
(446,451,l),
(479,451,l),
(522,612,l),
(54,612,l),
(53,585,l),
(123,554,l),
(89,58,l),
(13,28,l),
(12,0,l)
);
}
);
userData = {
com.hugojourdan.ColorFlow = {
"0" = 0;
"1" = 0;
"10" = 0;
"11" = 0;
"2" = 0;
"3" = 0;
"4" = 0;
"5" = 0;
"6" = 0;
"7" = 0;
"8" = 0;
"9" = 0;
};
};
width = 549;
},
{
anchors = (
{
name = bottom;
pos = (349,-100);
},
{
name = top;
pos = (246,450);
}
);
layerId = "5B801A11-FB24-4494-9FC9-AC06A39D30E5";
shapes = (
{
closed = 1;
nodes = (
(410,0,l),
(446,138,l),
(424,138,l),
(345,33,l),
(165,33,l),
(184,305,l),
(247,305,l),
(369,292,l),
(379,339,l),
(246,331,l),
(186,331,l),
(203,579,l),
(371,579,l),
(409,488,l),
(431,488,l),
(463,612,l),
(70,612,l),
(69,598,l),
(136,554,l),
(102,58,l),
(29,15,l),
(28,0,l)
);
}
);
userData = {
com.hugojourdan.ColorFlow = {
"0" = 0;
"1" = 0;
"10" = 0;
"11" = 0;
"2" = 0;
"3" = 0;
"4" = 0;
"5" = 0;
"6" = 0;
"7" = 0;
"8" = 0;
"9" = 0;
};
};
width = 487;
},
{
anchors = (
{
name = bottom;
pos = (205,-100);
},
{
name = top;
pos = (267,450);
}
);
associatedMasterId = m001;
layerId = "078C0A75-44E3-4418-958B-1CACC90AC492";
name = "4 de oct. de 23, 9:03";
shapes = (
{
closed = 1;
nodes = (
(477,0,l),
(523,197,l),
(488,197,l),
(366,54,l),
(252,54,l),
(268,289,l),
(335,289,l),
(422,281,l),
(443,358,l),
(345,347,l),
(272,347,l),
(286,558,l),
(394,558,l),
(452,451,l),
(485,451,l),
(522,612,l),
(54,612,l),
(53,585,l),
(123,554,l),
(89,58,l),
(13,28,l),
(12,0,l)
);
}
);
width = 546;
},
{
anchors = (
{
name = bottom;
pos = (349,-100);
},
{
name = top;
pos = (246,450);
}
);
associatedMasterId = "5B801A11-FB24-4494-9FC9-AC06A39D30E5";
layerId = "7BB653E0-4387-4C90-B587-97039D63365C";
name = "4 de oct. de 23, 9:04";
shapes = (
{
closed = 1;
nodes = (
(410,0,l),
(446,138,l),
(424,138,l),
(345,33,l),
(165,33,l),
(184,305,l),
(247,305,l),
(369,292,l),
(379,339,l),
(246,331,l),
(186,331,l),
(203,579,l),
(371,579,l),
(412,488,l),
(434,488,l),
(463,612,l),
(70,612,l),
(69,598,l),
(136,554,l),
(102,58,l),
(29,15,l),
(28,0,l)
);
}
);
width = 487;
}
);
unicode = 69;
},
{
color = 4;
glyphname = F;
kernLeft = KO_E;
kernRight = KO_F;
lastChange = "2024-02-12 15:13:52 +0000";
layers = (
{
anchors = (
{
name = bottom;
pos = (268,-100);
},
{
name = top;
pos = (268,450);
}
);
layerId = m001;
shapes = (
{
closed = 1;
nodes = (
(340,0,l),
(341,29,l),
(252,58,l),
(267,279,l),
(321,279,l),
(421,271,l),
(441,348,l),
(331,337,l),
(271,337,l),
(286,558,l),
(390,558,l),
(444,437,l),
(477,437,l),
(523,612,l),
(54,612,l),
(53,585,l),
(123,554,l),
(89,58,l),
(13,28,l),
(12,0,l)
);
}
);
userData = {
com.hugojourdan.ColorFlow = {
"0" = 0;
"1" = 0;
"10" = 0;
"11" = 0;
"2" = 0;
"3" = 0;
"4" = 0;
"5" = 0;
"6" = 0;
"7" = 0;
"8" = 0;
"9" = 0;
};
};
width = 541;
},
{
anchors = (
{
name = bottom;
pos = (239,-100);
},
{
name = top;
pos = (239,450);
}
);
layerId = "5B801A11-FB24-4494-9FC9-AC06A39D30E5";
shapes = (
{
closed = 1;
nodes = (
(252,0,l),
(253,13,l),
(167,58,l),
(183,295,l),
(244,295,l),
(360,282,l),
(372,329,l),
(243,321,l),
(185,321,l),
(203,579,l),
(359,579,l),
(398,493,l),
(420,493,l),
(451,612,l),
(70,612,l),
(69,598,l),
(136,554,l),
(102,58,l),
(29,15,l),
(28,0,l)
);
}
);
userData = {
com.hugojourdan.ColorFlow = {
"0" = 0;
"1" = 0;
"10" = 0;
"11" = 0;
"2" = 0;
"3" = 0;
"4" = 0;
"5" = 0;
"6" = 0;
"7" = 0;
"8" = 0;
"9" = 0;
};
};
width = 453;
},
{
anchors = (
{
name = bottom;
pos = (239,-100);
},
{
name = top;
pos = (239,450);
}
);
associatedMasterId = "5B801A11-FB24-4494-9FC9-AC06A39D30E5";
layerId = "0781015A-5811-401C-B2AA-AA017A0F4831";
name = "4 de oct. de 23, 9:16";
shapes = (
{
closed = 1;
nodes = (
(252,0,l),
(253,13,l),
(167,58,l),
(183,295,l),
(244,295,l),
(360,282,l),
(372,329,l),
(243,321,l),
(185,321,l),
(203,579,l),
(360,579,l),
(401,493,l),
(423,493,l),
(451,612,l),
(70,612,l),
(69,598,l),
(136,554,l),
(102,58,l),
(29,15,l),
(28,0,l)
);
}
);
visible = 1;
width = 453;
}
);
unicode = 70;
},
{
color = 4;
glyphname = G;
lastChange = "2024-02-12 15:13:52 +0000";
layers = (
{
anchors = (
{
name = bottom;
pos = (302,-100);
},
{
name = top;
pos = (302,450);
}
);
layerId = m001;
shapes = (
{
closed = 1;
nodes = (
(348,-18,o),
(426,-6,o),
(489,24,c),
(505,244,l),
(566,274,l),
(569,302,l),
(286,302,l),
(283,275,l),
(365,244,l),
(351,48,l),
(349,48,o),
(348,48,o),
(346,48,cs),
(240,50,o),
(190,127,o),
(204,344,cs),
(216,524,o),
(263,560,o),
(315,560,cs),
(354,560,o),
(383,551,o),
(402,542,c),
(459,429,l),
(493,429,l),
(540,608,l),
(507,620,o),
(419,630,o),
(370,630,cs),
(181,630,o),
(42,502,o),
(26,311,cs),
(8,68,o),
(140,-18,o),
(295,-18,cs)
);
}
);
userData = {
com.hugojourdan.ColorFlow = {
"0" = 0;
"1" = 0;
"10" = 0;
"11" = 0;
"2" = 0;
"3" = 0;
"4" = 0;
"5" = 0;
"6" = 0;
"7" = 0;
"8" = 0;
"9" = 0;
};
};
width = 557;
},
{
anchors = (
{
name = bottom;
pos = (310,-100);
},
{
name = top;
pos = (310,450);
}
);
layerId = "5B801A11-FB24-4494-9FC9-AC06A39D30E5";
shapes = (
{
closed = 1;
nodes = (
(377,-10,o),
(423,5,o),
(473,27,c),
(486,215,l),
(553,258,l),
(553,273,l),
(361,273,l),
(360,259,l),
(424,215,l),
(412,42,l),
(383,32,o),
(363,29,o),
(327,29,cs),
(202,29,o),
(118,135,o),
(132,331,cs),
(144,505,o),
(180,573,o),
(326,573,cs),
(357,573,o),
(389,571,o),
(408,565,c),
(454,488,l),
(475,488,l),
(501,587,l),
(481,604,o),
(440,622,o),
(359,622,cs),
(216,622,o),
(85,505,o),
(74,319,cs),
(59,97,o),
(143,-10,o),
(295,-10,cs)
);
}
);
userData = {
com.hugojourdan.ColorFlow = {
"0" = 0;
"1" = 0;
"10" = 0;
"11" = 0;
"2" = 0;
"3" = 0;
"4" = 0;
"5" = 0;
"6" = 0;
"7" = 0;
"8" = 0;
"9" = 0;
};
};
width = 573;
},
{
anchors = (
{
name = bottom;
pos = (302,-100);
},
{
name = top;
pos = (302,450);
}
);
associatedMasterId = m001;
layerId = "F1AA4E25-D4BC-45A3-9B83-082D0922C408";
name = "4 de oct. de 23, 9:26";
shapes = (
{
closed = 1;
nodes = (
(348,-18,o),
(426,-6,o),
(489,24,c),
(505,244,l),
(566,274,l),
(569,302,l),
(286,302,l),
(283,275,l),
(365,244,l),
(351,48,l),
(349,48,o),
(348,48,o),
(346,48,cs),
(240,50,o),
(190,127,o),
(204,344,cs),
(216,524,o),
(263,560,o),
(315,560,cs),
(354,560,o),
(384,550,o),
(403,541,c),
(463,429,l),
(497,429,l),
(540,608,l),
(507,620,o),
(419,630,o),
(370,630,cs),
(181,630,o),
(42,502,o),
(26,311,cs),
(8,68,o),
(140,-18,o),
(295,-18,cs)
);
}
);
width = 557;
},
{
anchors = (
{
name = bottom;
pos = (310,-100);
},
{
name = top;
pos = (310,450);
}
);
associatedMasterId = "5B801A11-FB24-4494-9FC9-AC06A39D30E5";
layerId = "19ABA93A-D098-4BA4-9E33-78E0FD680401";
name = "4 de oct. de 23, 9:26";
shapes = (
{
closed = 1;
nodes = (
(377,-10,o),
(423,5,o),
(473,27,c),
(486,215,l),
(553,258,l),
(553,273,l),
(361,273,l),
(360,259,l),
(424,215,l),
(412,42,l),
(383,32,o),
(363,29,o),
(327,29,cs),
(202,29,o),
(118,135,o),
(132,331,cs),
(144,505,o),
(180,573,o),
(326,573,cs),
(357,573,o),
(389,571,o),
(408,565,c),
(455,488,l),
(476,488,l),
(501,587,l),
(481,604,o),
(440,622,o),
(359,622,cs),
(216,622,o),
(85,505,o),
(74,319,cs),
(59,97,o),
(143,-10,o),
(295,-10,cs)
);
}
);
width = 573;
}
);
unicode = 71;
},
{
color = 4;
glyphname = H;
kernLeft = KO_H;
kernRight = KO_H;
lastChange = "2024-02-12 15:13:45 +0000";
layers = (
{
anchors = (
{
name = bottom;
pos = (360,-100);
},
{
name = top;
pos = (360,450);
}
);
layerId = m001;
shapes = (
{
closed = 1;
nodes = (
(323,0,l),
(324,29,l),
(256,58,l),
(271,284,l),
(445,284,l),
(430,58,l),
(356,28,l),
(355,0,l),
(661,0,l),
(662,29,l),
(594,58,l),
(628,554,l),
(703,584,l),
(703,612,l),
(397,612,l),
(397,585,l),
(464,554,l),
(450,350,l),
(276,350,l),
(290,554,l),
(365,584,l),
(365,612,l),
(58,612,l),
(58,585,l),
(127,554,l),
(94,58,l),
(17,28,l),
(16,0,l)
);
}
);
userData = {
com.hugojourdan.ColorFlow = {
"0" = 0;
"1" = 0;
"10" = 0;
"11" = 0;
"2" = 0;
"3" = 0;
"4" = 0;
"5" = 0;
"6" = 0;
"7" = 0;
"8" = 0;
"9" = 0;
};
};
width = 699;
},
{
anchors = (
{
name = bottom;
pos = (315,-100);
},
{
name = top;
pos = (315,450);
}
);
layerId = "5B801A11-FB24-4494-9FC9-AC06A39D30E5";
shapes = (
{
closed = 1;
nodes = (
(227,0,l),
(228,13,l),
(160,58,l),
(177,305,l),
(455,305,l),
(438,58,l),
(364,15,l),
(363,0,l),
(568,0,l),
(569,13,l),
(501,58,l),
(535,554,l),
(607,597,l),
(610,612,l),
(405,612,l),
(402,598,l),
(472,554,l),
(457,334,l),
(179,334,l),
(194,554,l),
(266,597,l),
(269,612,l),
(63,612,l),
(61,598,l),
(130,554,l),
(96,58,l),
(22,15,l),
(21,0,l)
);
}
);
userData = {
com.hugojourdan.ColorFlow = {
"0" = 0;
"1" = 0;
"10" = 0;
"11" = 0;
"2" = 0;
"3" = 0;
"4" = 0;
"5" = 0;
"6" = 0;
"7" = 0;
"8" = 0;
"9" = 0;
};
};
width = 632;
}
);
unicode = 72;
userData = {
KernOnName = H;
};
},
{
color = 4;
glyphname = Hbar;
lastChange = "2024-02-12 15:03:03 +0000";
layers = (
{
layerId = m001;
shapes = (
{
closed = 1;
nodes = (
(709,415,l),
(715,481,l),
(33,481,l),
(27,415,l)
);
},
{
ref = H;
}
);
userData = {
com.hugojourdan.ColorFlow = {
"0" = 0;
"1" = 0;
"10" = 0;
"11" = 0;
"2" = 0;
"3" = 0;
"4" = 0;
"5" = 0;
"6" = 0;
"7" = 0;
"8" = 0;
"9" = 0;
};
};
width = 699;
},
{
layerId = "5B801A11-FB24-4494-9FC9-AC06A39D30E5";
shapes = (
{
closed = 1;
nodes = (
(589,434,l),
(590,462,l),
(60,462,l),
(59,434,l)
);
},
{
ref = H;
}
);
userData = {
com.hugojourdan.ColorFlow = {
"0" = 0;
"1" = 0;
"10" = 0;
"11" = 0;
"2" = 0;
"3" = 0;
"4" = 0;
"5" = 0;
"6" = 0;
"7" = 0;
"8" = 0;
"9" = 0;
};
};
width = 632;
}
);
unicode = 294;
},
{
color = 4;
glyphname = I;
kernRight = KO_H;
lastChange = "2024-02-12 15:03:03 +0000";
layers = (
{
anchors = (
{
name = bottom;
pos = (190,-100);
},
{
name = top;
pos = (190,450);
}
);
layerId = m001;
shapes = (
{
closed = 1;
nodes = (
(323,0,l),
(325,29,l),
(256,58,l),
(290,554,l),
(365,584,l),
(365,612,l),
(58,612,l),
(58,585,l),
(127,554,l),
(93,60,l),
(18,28,l),
(16,0,l)
);
}
);
userData = {
com.hugojourdan.ColorFlow = {
"0" = 0;
"1" = 0;
"10" = 0;
"11" = 0;
"2" = 0;
"3" = 0;
"4" = 0;
"5" = 0;
"6" = 0;
"7" = 0;
"8" = 0;
"9" = 0;
};
};
width = 361;
},
{
anchors = (
{
name = bottom;
pos = (145,-100);
},
{
name = top;
pos = (145,450);
}
);
layerId = "5B801A11-FB24-4494-9FC9-AC06A39D30E5";
shapes = (
{
closed = 1;
nodes = (
(227,0,l),
(228,13,l),
(160,58,l),
(194,554,l),
(266,597,l),
(269,612,l),
(63,612,l),
(61,598,l),
(130,554,l),
(96,58,l),
(22,15,l),
(21,0,l)
);
}
);
userData = {
com.hugojourdan.ColorFlow = {
"0" = 0;
"1" = 0;
"10" = 0;
"11" = 0;
"2" = 0;
"3" = 0;
"4" = 0;
"5" = 0;
"6" = 0;
"7" = 0;
"8" = 0;
"9" = 0;
};
};
width = 292;
}
);
unicode = 73;
},
{
color = 4;
glyphname = J;
kernRight = KO_J;
lastChange = "2024-02-12 15:03:03 +0000";
layers = (
{
anchors = (
{
name = bottom;
pos = (209,-100);
},
{
name = top;
pos = (209,450);
}
);
layerId = m001;
shapes = (
{
closed = 1;
nodes = (
(207,-18,o),
(311,61,o),
(318,166,cs),
(344,554,l),
(418,584,l),
(419,612,l),
(103,612,l),
(102,585,l),
(180,554,l),
(148,108,ls),
(143,41,o),
(134,28,o),
(108,33,c),
(63,132,l),
(36,132,l),
(0,-4,l),
(24,-12,o),
(53,-18,o),
(89,-18,cs)
);
}
);
userData = {
com.hugojourdan.ColorFlow = {
"0" = 0;
"1" = 0;
"10" = 0;
"11" = 0;
"2" = 0;
"3" = 0;
"4" = 0;
"5" = 0;
"6" = 0;
"7" = 0;
"8" = 0;
"9" = 0;
};
};
width = 413;
},
{
anchors = (
{
name = bottom;
pos = (156,-100);
},
{
name = top;
pos = (156,450);
}
);
layerId = "5B801A11-FB24-4494-9FC9-AC06A39D30E5";
shapes = (
{
closed = 1;
nodes = (
(135,-10,o),
(218,42,o),
(225,147,cs),
(253,554,l),
(327,597,l),
(328,612,l),
(107,612,l),
(106,598,l),
(191,554,l),
(161,119,ls),
(156,46,o),
(116,21,o),
(71,14,c),
(31,95,l),
(9,95,l),
(-16,1,l),
(-3,-5,o),
(19,-10,o),
(49,-10,cs)
);
}
);
userData = {
com.hugojourdan.ColorFlow = {
"0" = 0;
"1" = 0;
"10" = 0;
"11" = 0;
"2" = 0;
"3" = 0;
"4" = 0;
"5" = 0;
"6" = 0;
"7" = 0;
"8" = 0;
"9" = 0;
};
};
width = 338;
},
{
anchors = (
{
name = bottom;
pos = (209,-100);
},
{
name = top;
pos = (209,450);
}
);
associatedMasterId = m001;
layerId = "7AD741B9-6E63-4C23-954D-C91F064821C6";
name = "4 de oct. de 23, 9:30";
shapes = (
{
closed = 1;
nodes = (
(207,-18,o),
(309,61,o),
(318,166,cs),
(344,554,l),
(418,584,l),
(419,612,l),
(103,612,l),
(102,585,l),
(180,554,l),
(148,108,ls),
(145,41,o),
(134,28,o),
(108,33,c),
(61,132,l),
(34,132,l),
(0,-4,l),
(24,-12,o),
(53,-18,o),
(89,-18,cs)
);
}
);
width = 413;
},
{
anchors = (
{
name = bottom;
pos = (156,-100);
},
{
name = top;
pos = (156,450);
}
);
associatedMasterId = "5B801A11-FB24-4494-9FC9-AC06A39D30E5";
layerId = "F686309E-84A2-4B98-A8D3-057E03DFBE71";
name = "4 de oct. de 23, 9:30";
shapes = (
{
closed = 1;
nodes = (
(135,-10,o),
(218,42,o),
(225,147,cs),
(253,554,l),
(327,597,l),
(328,612,l),
(107,612,l),
(106,598,l),
(191,554,l),
(161,119,ls),
(156,46,o),
(116,21,o),
(71,14,c),
(29,95,l),
(7,95,l),
(-16,1,l),
(-3,-5,o),
(19,-10,o),
(49,-10,cs)
);
}
);
width = 338;
}
);
unicode = 74;
},
{
color = 4;
glyphname = K;
kernLeft = KO_K;
kernRight = KO_K;
lastChange = "2024-02-12 15:03:03 +0000";
layers = (
{
anchors = (
{
name = bottom;
pos = (341,-100);
},
{
name = top;
pos = (341,450);
}
);
layerId = m001;
shapes = (
{
closed = 1;
nodes = (
(435,2,o),
(464,-18,o),
(522,-18,cs),
(562,-18,o),
(590,-14,o),
(661,2,c),
(661,32,l),
(637,33,o),
(624,36,o),
(593,66,cs),
(568,90,o),
(546,124,o),
(404,362,c),
(607,555,l),
(675,584,l),
(676,612,l),
(435,612,l),
(434,584,l),
(500,554,l),
(273,319,l)
);
},
{
closed = 1;
nodes = (
(323,0,l),
(324,29,l),
(256,58,l),
(290,554,l),
(364,584,l),
(365,612,l),
(58,612,l),
(57,585,l),
(127,554,l),
(93,58,l),
(17,28,l),
(16,0,l)
);
}
);
userData = {
com.hugojourdan.ColorFlow = {
"0" = 0;
"1" = 0;
"10" = 0;
"11" = 0;
"2" = 0;
"3" = 0;
"4" = 0;
"5" = 0;
"6" = 0;
"7" = 0;
"8" = 0;
"9" = 0;
};
};
width = 653;
},
{
anchors = (
{
name = bottom;
pos = (290,-100);
},
{
name = top;
pos = (290,450);
}
);
layerId = "5B801A11-FB24-4494-9FC9-AC06A39D30E5";
shapes = (
{
closed = 1;
nodes = (
(375,19,o),
(419,-10,o),
(477,-10,cs),
(493,-10,o),
(529,-6,o),
(562,10,c),
(562,32,l),
(520,30,o),
(499,39,o),
(486,47,c),
(471,59,o),
(427,81,o),
(244,351,c),
(491,565,l),
(542,597,l),
(543,612,l),
(374,612,l),
(373,597,l),
(435,556,l),
(184,341,l)
);
},
{
closed = 1;
nodes = (
(227,0,l),
(228,13,l),
(160,58,l),
(194,554,l),
(268,597,l),
(269,612,l),
(63,612,l),
(62,598,l),
(130,554,l),
(96,58,l),
(22,15,l),
(21,0,l)
);
}
);
userData = {
com.hugojourdan.ColorFlow = {
"0" = 0;
"1" = 0;
"10" = 0;
"11" = 0;
"2" = 0;
"3" = 0;
"4" = 0;
"5" = 0;
"6" = 0;
"7" = 0;
"8" = 0;
"9" = 0;
};
};
width = 581;
}
);
unicode = 75;
userData = {
KernOnName = K;
};
},
{
color = 4;
glyphname = L;
kernLeft = KO_E;
kernRight = KO_L;
lastChange = "2024-02-12 15:03:03 +0000";
layers = (
{
anchors = (
{
name = bottom;
pos = (268,-100);
},
{
name = right;
pos = (580,450);
},
{
name = top;
pos = (306,450);
}
);
layerId = m001;
shapes = (
{
closed = 1;
nodes = (
(467,0,l),
(524,219,l),
(489,219,l),
(364,54,l),
(252,54,l),
(286,554,l),
(381,584,l),
(382,612,l),
(54,612,l),
(53,585,l),
(123,554,l),
(89,58,l),
(13,28,l),
(12,0,l)
);
}
);
userData = {
com.hugojourdan.ColorFlow = {
"0" = 0;
"1" = 0;
"10" = 0;
"11" = 0;
"2" = 0;
"3" = 0;
"4" = 0;
"5" = 0;
"6" = 0;
"7" = 0;
"8" = 0;
"9" = 0;
};
};
width = 524;
},
{
anchors = (
{
name = bottom;
pos = (241,-100);
},
{
name = right;
pos = (345,450);
},
{
name = top;
pos = (178,450);
}
);
layerId = "5B801A11-FB24-4494-9FC9-AC06A39D30E5";
shapes = (
{
closed = 1;
nodes = (
(417,0,l),
(455,144,l),
(433,144,l),
(346,33,l),
(165,33,l),
(201,554,l),
(293,597,l),
(294,612,l),
(70,612,l),
(69,598,l),
(136,554,l),
(102,58,l),
(29,15,l),
(28,0,l)
);
}
);
userData = {
com.hugojourdan.ColorFlow = {
"0" = 0;
"1" = 0;
"10" = 0;
"11" = 0;
"2" = 0;
"3" = 0;
"4" = 0;
"5" = 0;
"6" = 0;
"7" = 0;
"8" = 0;
"9" = 0;
};
};
width = 471;
},
{
anchors = (
{
name = bottom;
pos = (268,-100);
},
{
name = right;
pos = (580,450);
},
{
name = top;
pos = (306,450);
}
);
associatedMasterId = m001;
layerId = "4C213BB5-774E-472D-AB24-B63B8F965477";
name = "4 de oct. de 23, 9:32";
shapes = (
{
closed = 1;
nodes = (
(473,0,l),
(524,219,l),
(489,219,l),
(362,54,l),
(252,54,l),
(286,554,l),
(381,584,l),
(382,612,l),
(54,612,l),
(53,585,l),
(123,554,l),
(89,58,l),
(13,28,l),
(12,0,l)
);
}
);
width = 524;
},
{
anchors = (
{
name = bottom;
pos = (241,-100);
},
{
name = right;
pos = (345,450);
},
{
name = top;
pos = (178,450);
}
);
associatedMasterId = "5B801A11-FB24-4494-9FC9-AC06A39D30E5";
layerId = "99EBE1C0-AC85-4CDE-B0D8-3538079C11C8";
name = "4 de oct. de 23, 9:32";
shapes = (
{
closed = 1;
nodes = (
(417,0,l),
(455,144,l),
(433,144,l),
(346,33,l),
(165,33,l),
(201,554,l),
(293,597,l),
(294,612,l),
(70,612,l),
(69,598,l),
(136,554,l),
(102,58,l),
(29,15,l),
(28,0,l)
);
}
);
width = 471;
}
);
unicode = 76;
},
{
color = 4;
glyphname = Lslash;
lastChange = "2024-02-12 15:03:03 +0000";
layers = (
{
layerId = m001;
shapes = (
{
closed = 1;
nodes = (
(385,374,l),
(385,432,l),
(30,280,l),
(30,222,l)
);
},
{
ref = L;
}
);
userData = {
com.hugojourdan.ColorFlow = {
"0" = 0;
"1" = 0;
"10" = 0;
"11" = 0;
"2" = 0;
"3" = 0;
"4" = 0;
"5" = 0;
"6" = 0;
"7" = 0;
"8" = 0;
"9" = 0;
};
};
width = 524;
},
{
layerId = "5B801A11-FB24-4494-9FC9-AC06A39D30E5";
shapes = (
{
closed = 1;
nodes = (
(316,355,l),
(316,392,l),
(51,280,l),
(51,243,l)
);
},
{
ref = L;
}
);
userData = {
com.hugojourdan.ColorFlow = {
"0" = 0;
"1" = 0;
"10" = 0;
"11" = 0;
"2" = 0;
"3" = 0;
"4" = 0;
"5" = 0;
"6" = 0;
"7" = 0;
"8" = 0;
"9" = 0;
};
};
width = 471;
}
);
unicode = 321;
},
{
color = 4;
glyphname = M;
kernLeft = KO_M;
kernRight = KO_M;
lastChange = "2024-02-12 15:03:03 +0000";
layers = (
{
anchors = (
{
name = bottom;
pos = (418,-100);
},
{
name = top;
pos = (418,450);
}
);
layerId = m001;
shapes = (
{
closed = 1;
nodes = (
(223,0,l),
(224,29,l),
(156,58,l),
(201,443,l),
(333,14,l),
(435,45,l),
(606,439,l),
(601,58,l),
(527,28,l),
(526,0,l),
(834,0,l),
(835,29,l),
(767,58,l),
(769,554,l),
(843,584,l),
(844,612,l),
(613,612,l),
(443,205,l),
(309,612,l),
(60,612,l),
(59,585,l),
(129,554,l),
(68,58,l),
(-8,28,l),
(-9,0,l)
);
}
);
userData = {
com.hugojourdan.ColorFlow = {
"0" = 0;
"1" = 0;
"10" = 0;
"11" = 0;
"2" = 0;
"3" = 0;
"4" = 0;
"5" = 0;
"6" = 0;
"7" = 0;
"8" = 0;
"9" = 0;
};
};
width = 856;
},
{
anchors = (
{
name = bottom;
pos = (389,-100);
},
{
name = top;
pos = (389,450);
}
);
layerId = "5B801A11-FB24-4494-9FC9-AC06A39D30E5";
shapes = (
{
closed = 1;
nodes = (
(194,0,l),
(195,13,l),
(127,58,l),
(189,530,l),
(349,22,l),
(387,45,l),
(627,534,l),
(620,58,l),
(546,15,l),
(545,0,l),
(749,0,l),
(750,13,l),
(682,58,l),
(689,554,l),
(763,597,l),
(764,612,l),
(621,612,l),
(384,122,l),
(232,612,l),
(92,612,l),
(91,598,l),
(158,554,l),
(89,58,l),
(16,15,l),
(15,0,l)
);
}
);
userData = {
com.hugojourdan.ColorFlow = {
"0" = 0;
"1" = 0;
"10" = 0;
"11" = 0;
"2" = 0;
"3" = 0;
"4" = 0;
"5" = 0;
"6" = 0;
"7" = 0;
"8" = 0;
"9" = 0;
};
};
width = 792;
}
);
unicode = 77;
},
{
color = 4;
glyphname = N;
kernLeft = KO_N;
kernRight = KO_N;
lastChange = "2024-02-12 15:03:03 +0000";
layers = (
{
anchors = (
{
name = bottom;
pos = (321,-100);
},
{
name = top;
pos = (321,450);
}
);
layerId = m001;
shapes = (
{
closed = 1;
nodes = (
(228,0,l),
(229,29,l),
(161,58,l),
(187,433,l),
(471,-17,l),
(526,-17,l),
(565,554,l),
(641,584,l),
(642,612,l),
(404,612,l),
(403,583,l),
(481,554,l),
(463,290,l),
(261,612,l),
(42,612,l),
(41,585,l),
(110,554,l),
(77,58,l),
(1,28,l),
(0,0,l)
);
}
);
userData = {
com.hugojourdan.ColorFlow = {
"0" = 0;
"1" = 0;
"10" = 0;
"11" = 0;
"2" = 0;
"3" = 0;
"4" = 0;
"5" = 0;
"6" = 0;
"7" = 0;
"8" = 0;
"9" = 0;
};
};
width = 630;
},
{
anchors = (
{
name = bottom;
pos = (321,-100);
},
{
name = top;
pos = (321,450);
}
);
layerId = "5B801A11-FB24-4494-9FC9-AC06A39D30E5";
shapes = (
{
closed = 1;
nodes = (
(212,0,l),
(213,13,l),
(145,58,l),
(175,496,l),
(468,-1,l),
(497,-1,l),
(536,554,l),
(609,597,l),
(610,612,l),
(433,612,l),
(432,599,l),
(497,554,l),
(467,140,l),
(188,612,l),
(74,612,l),
(73,598,l),
(140,554,l),
(106,58,l),
(33,15,l),
(32,0,l)
);
}
);
userData = {
com.hugojourdan.ColorFlow = {
"0" = 0;
"1" = 0;
"10" = 0;
"11" = 0;
"2" = 0;
"3" = 0;
"4" = 0;
"5" = 0;
"6" = 0;
"7" = 0;
"8" = 0;
"9" = 0;
};
};
width = 630;
}
);
unicode = 78;
},
{
color = 4;
glyphname = Eng;
lastChange = "2024-02-12 15:03:03 +0000";
layers = (
{
layerId = m001;
shapes = (
{
closed = 1;
nodes = (
(246,0,l),
(247,29,l),
(179,58,l),
(203,408,l),
(430,73,l),
(422,-42,ls),
(417,-111,o),
(409,-122,o),
(382,-117,c),
(337,-18,l),
(310,-18,l),
(274,-154,l),
(295,-160,o),
(327,-168,o),
(353,-168,cs),
(432,-168,o),
(520,-115,o),
(526,-24,cs),
(565,554,l),
(641,584,l),
(642,612,l),
(396,612,l),
(395,585,l),
(463,554,l),
(448,341,l),
(253,612,l),
(42,612,l),
(41,585,l),
(110,545,l),
(77,58,l),
(1,28,l),
(0,0,l)
);
}
);
userData = {
com.hugojourdan.ColorFlow = {
"0" = 0;
"1" = 0;
"10" = 0;
"11" = 0;
"2" = 0;
"3" = 0;
"4" = 0;
"5" = 0;
"6" = 0;
"7" = 0;
"8" = 0;
"9" = 0;
};
};
width = 630;
},
{
layerId = "5B801A11-FB24-4494-9FC9-AC06A39D30E5";
shapes = (
{
closed = 1;
nodes = (
(206,0,l),
(207,13,l),
(139,58,l),
(170,516,l),
(464,-1,l),
(462,-31,ls),
(457,-104,o),
(416,-127,o),
(371,-136,c),
(332,-55,l),
(310,-55,l),
(285,-149,l),
(298,-155,o),
(314,-160,o),
(353,-160,cs),
(440,-160,o),
(491,-99,o),
(497,-8,cs),
(536,554,l),
(609,597,l),
(610,612,l),
(436,612,l),
(435,598,l),
(503,554,l),
(472,117,l),
(197,612,l),
(74,612,l),
(73,598,l),
(140,554,l),
(106,58,l),
(33,15,l),
(32,0,l)
);
}
);
userData = {
com.hugojourdan.ColorFlow = {
"0" = 0;
"1" = 0;
"10" = 0;
"11" = 0;
"2" = 0;
"3" = 0;
"4" = 0;
"5" = 0;
"6" = 0;
"7" = 0;
"8" = 0;
"9" = 0;
};
};
width = 630;
},
{
associatedMasterId = "5B801A11-FB24-4494-9FC9-AC06A39D30E5";
layerId = "E5679849-2A33-4B9C-9BAC-A692277D28B3";
name = "4 de oct. de 23, 9:07";
shapes = (
{
closed = 1;
nodes = (
(206,0,l),
(207,13,l),
(139,58,l),
(170,516,l),
(464,-1,l),
(462,-31,ls),
(456,-104,o),
(416,-127,o),
(371,-136,c),
(330,-55,l),
(308,-55,l),
(285,-149,l),
(298,-155,o),
(314,-160,o),
(353,-160,cs),
(440,-160,o),
(491,-99,o),
(497,-8,cs),
(536,554,l),
(609,597,l),
(610,612,l),
(436,612,l),
(435,598,l),
(503,554,l),
(472,117,l),
(197,612,l),
(74,612,l),
(73,598,l),
(140,554,l),
(106,58,l),
(33,15,l),
(32,0,l)
);
}
);
width = 630;
},
{
associatedMasterId = m001;
layerId = "B8C6B5FF-5DD4-444C-B307-235578109327";
name = "4 de oct. de 23, 9:07";
shapes = (
{
closed = 1;
nodes = (
(246,0,l),
(247,29,l),
(179,58,l),
(203,408,l),
(430,73,l),
(422,-42,ls),
(419,-109,o),
(408,-122,o),
(382,-117,c),
(335,-18,l),
(308,-18,l),
(274,-154,l),
(295,-160,o),
(327,-168,o),
(353,-168,cs),
(432,-168,o),
(520,-115,o),
(526,-24,cs),
(565,554,l),
(641,584,l),
(642,612,l),
(396,612,l),
(395,585,l),
(463,554,l),
(448,341,l),
(253,612,l),
(42,612,l),
(41,585,l),
(110,545,l),
(77,58,l),
(1,28,l),
(0,0,l)
);
}
);
visible = 1;
width = 630;
}
);
unicode = 330;
},
{
color = 4;
glyphname = O;
kernLeft = KO_O;
kernRight = KO_O;
lastChange = "2024-02-12 15:03:03 +0000";
layers = (
{
anchors = (
{
name = bottom;
pos = (300,-100);
},
{
name = top;
pos = (293,450);
}
);
layerId = m001;
shapes = (
{
closed = 1;
nodes = (
(435,-18,o),
(572,113,o),
(578,314,cs),
(583,531,o),
(476,630,o),
(341,630,cs),
(166,630,o),
(29,499,o),
(23,298,cs),
(18,81,o),
(125,-18,o),
(260,-18,cs)
);
},
{
closed = 1;
nodes = (
(216,50,o),
(187,161,o),
(203,365,cs),
(214,535,o),
(243,562,o),
(278,562,cs),
(385,562,o),
(414,451,o),
(398,247,cs),
(387,77,o),
(358,50,o),
(326,50,cs)
);
}
);
userData = {
com.hugojourdan.ColorFlow = {
"0" = 0;
"1" = 0;
"10" = 0;
"11" = 0;
"2" = 0;
"3" = 0;
"4" = 0;
"5" = 0;
"6" = 0;
"7" = 0;
"8" = 0;
"9" = 0;
};
};
width = 589;
},
{
anchors = (
{
name = bottom;
pos = (308,-100);
},
{
name = top;
pos = (285,450);
}
);
layerId = "5B801A11-FB24-4494-9FC9-AC06A39D30E5";
shapes = (
{
closed = 1;
nodes = (
(384,-10,o),
(511,100,o),
(538,282,cs),
(570,502,o),
(481,622,o),
(346,622,cs),
(233,622,o),
(106,512,o),
(79,330,cs),
(47,110,o),
(136,-10,o),
(271,-10,cs)
);
},
{
closed = 1;
nodes = (
(197,42,o),
(112,140,o),
(136,344,cs),
(158,514,o),
(208,570,o),
(315,570,cs),
(420,570,o),
(505,472,o),
(481,268,cs),
(459,98,o),
(409,42,o),
(297,42,cs)
);
}
);
userData = {
com.hugojourdan.ColorFlow = {
"0" = 0;
"1" = 0;
"10" = 0;
"11" = 0;
"2" = 0;
"3" = 0;
"4" = 0;
"5" = 0;
"6" = 0;
"7" = 0;
"8" = 0;
"9" = 0;
};
};
width = 621;
}
);
unicode = 79;
userData = {
KernOnName = O;
};
},
{
color = 4;
glyphname = Oslash;
lastChange = "2024-02-12 15:03:03 +0000";
layers = (
{
anchors = (
{
name = bottom;
pos = (302,-100);
},
{
name = top;
pos = (302,450);
}
);
layerId = m001;
shapes = (
{
closed = 1;
nodes = (
(173,-82,l),
(488,693,l),
(427,693,l),
(112,-82,l)
);
},
{
ref = O;
}
);
userData = {
com.hugojourdan.ColorFlow = {
"0" = 0;
"1" = 0;
"10" = 0;
"11" = 0;
"2" = 0;
"3" = 0;
"4" = 0;
"5" = 0;
"6" = 0;
"7" = 0;
"8" = 0;
"9" = 0;
};
};
width = 591;
},
{
anchors = (
{
name = bottom;
pos = (307,-100);
},
{
name = top;
pos = (307,450);
}
);
layerId = "5B801A11-FB24-4494-9FC9-AC06A39D30E5";
shapes = (
{
closed = 1;
nodes = (
(162,-82,l),
(477,693,l),
(438,693,l),
(123,-82,l)
);
},
{
ref = O;
}
);
userData = {
com.hugojourdan.ColorFlow = {
"0" = 0;
"1" = 0;
"10" = 0;
"11" = 0;
"2" = 0;
"3" = 0;
"4" = 0;
"5" = 0;
"6" = 0;
"7" = 0;
"8" = 0;
"9" = 0;
};
};
width = 620;
}
);
unicode = 216;
},
{
color = 4;
glyphname = OE;
lastChange = "2024-02-12 15:03:03 +0000";
layers = (
{
anchors = (
{
name = bottom;
pos = (395,-100);
},
{
name = top;
pos = (395,450);
}
);
layerId = m001;
shapes = (
{
closed = 1;
nodes = (
(289,-18,o),
(327,-12,o),
(362,0,c),
(728,0,l),
(788,229,l),
(753,229,l),
(618,54,l),
(509,54,l),
(525,289,l),
(592,289,l),
(719,281,l),
(740,358,l),
(602,347,l),
(529,347,l),
(543,558,l),
(646,558,l),
(700,437,l),
(733,437,l),
(779,612,l),
(418,612,l),
(387,624,o),
(352,630,o),
(329,630,cs),
(154,630,o),
(17,499,o),
(11,298,cs),
(6,81,o),
(113,-18,o),
(248,-18,cs)
);
},
{
closed = 1;
nodes = (
(204,50,o),
(175,161,o),
(191,365,cs),
(202,535,o),
(231,562,o),
(266,562,cs),
(320,562,o),
(356,531,o),
(375,480,c),
(347,66,l),
(337,55,o),
(326,50,o),
(314,50,cs)
);
}
);
userData = {
com.hugojourdan.ColorFlow = {
"0" = 0;
"1" = 0;
"10" = 0;
"11" = 0;
"2" = 0;
"3" = 0;
"4" = 0;
"5" = 0;
"6" = 0;
"7" = 0;
"8" = 0;
"9" = 0;
};
};
width = 803;
},
{
anchors = (
{
name = bottom;
pos = (422,-100);
},
{
name = top;
pos = (422,450);
}
);
layerId = "5B801A11-FB24-4494-9FC9-AC06A39D30E5";
shapes = (
{
closed = 1;
nodes = (
(295,-10,o),
(316,-7,o),
(336,0,c),
(715,0,l),
(748,128,l),
(726,128,l),
(651,33,l),
(470,33,l),
(489,305,l),
(552,305,l),
(660,292,l),
(671,339,l),
(551,331,l),
(491,331,l),
(508,579,l),
(676,579,l),
(714,493,l),
(737,493,l),
(768,612,l),
(414,612,l),
(395,619,o),
(374,622,o),
(350,622,cs),
(237,622,o),
(110,512,o),
(83,330,cs),
(51,110,o),
(140,-10,o),
(275,-10,cs)
);
},
{
closed = 1;
nodes = (
(201,42,o),
(116,140,o),
(140,344,cs),
(162,514,o),
(212,570,o),
(319,570,cs),
(365,570,o),
(406,552,o),
(438,514,c),
(408,74,l),
(381,52,o),
(346,42,o),
(301,42,cs)
);
}
);
userData = {
com.hugojourdan.ColorFlow = {
"0" = 0;
"1" = 0;
"10" = 0;
"11" = 0;
"2" = 0;
"3" = 0;
"4" = 0;
"5" = 0;
"6" = 0;
"7" = 0;
"8" = 0;
"9" = 0;
};
};
width = 792;
},
{
anchors = (
{
name = bottom;
pos = (395,-100);
},
{
name = top;
pos = (395,450);
}
);
associatedMasterId = m001;
layerId = "36F3C027-6DFB-4AF3-BB56-9E194858972A";
name = "4 de oct. de 23, 9:36";
shapes = (
{
closed = 1;
nodes = (
(289,-18,o),
(327,-12,o),
(362,0,c),
(734,0,l),
(788,229,l),
(753,229,l),
(619,54,l),
(509,54,l),
(525,289,l),
(592,289,l),
(719,281,l),
(740,358,l),
(602,347,l),
(529,347,l),
(543,558,l),
(647,558,l),
(705,437,l),
(738,437,l),
(779,612,l),
(418,612,l),
(387,624,o),
(352,630,o),
(329,630,cs),
(154,630,o),
(17,499,o),
(11,298,cs),
(6,81,o),
(113,-18,o),
(248,-18,cs)
);
},
{
closed = 1;
nodes = (
(204,50,o),
(175,161,o),
(191,365,cs),
(202,535,o),
(231,562,o),
(266,562,cs),
(320,562,o),
(356,531,o),
(375,480,c),
(347,66,l),
(337,55,o),
(326,50,o),
(314,50,cs)
);
}
);
width = 803;
},
{
anchors = (
{
name = bottom;
pos = (422,-100);
},
{
name = top;
pos = (422,450);
}
);
associatedMasterId = "5B801A11-FB24-4494-9FC9-AC06A39D30E5";
layerId = "5D268C62-6553-4D1A-A2EF-8B058361A6D0";
name = "4 de oct. de 23, 9:36";
shapes = (
{
closed = 1;
nodes = (
(295,-10,o),
(316,-7,o),
(336,0,c),
(715,0,l),
(748,128,l),
(726,128,l),
(651,33,l),
(470,33,l),
(489,305,l),
(552,305,l),
(660,292,l),
(671,339,l),
(551,331,l),
(491,331,l),
(508,579,l),
(677,579,l),
(718,493,l),
(741,493,l),
(768,612,l),
(414,612,l),
(395,619,o),
(374,622,o),
(350,622,cs),
(237,622,o),
(110,512,o),
(83,330,cs),
(51,110,o),
(140,-10,o),
(275,-10,cs)
);
},
{
closed = 1;
nodes = (
(201,42,o),
(116,140,o),
(140,344,cs),
(162,514,o),
(212,570,o),
(319,570,cs),
(365,570,o),
(406,552,o),
(438,514,c),
(408,74,l),
(381,52,o),
(346,42,o),
(301,42,cs)
);
}
);
width = 792;
}
);
unicode = 338;
},
{
color = 4;
glyphname = P;
kernLeft = KO_E;
kernRight = KO_P;
lastChange = "2024-02-12 15:03:03 +0000";
layers = (
{
anchors = (
{
name = bottom;
pos = (285,-100);
},
{
name = top;
pos = (285,450);
}
);
layerId = m001;
shapes = (
{
closed = 1;
nodes = (
(339,0,l),
(341,29,l),
(252,58,l),
(267,270,l),
(274,269,o),
(282,269,o),
(290,269,cs),
(430,269,o),
(551,327,o),
(557,437,cs),
(564,555,o),
(494,612,o),
(368,612,cs),
(54,612,l),
(54,585,l),
(123,554,l),
(89,58,l),
(14,28,l),
(12,0,l)
);
},
{
closed = 1;
nodes = (
(306,327,o),
(284,331,o),
(271,339,c),
(286,556,l),
(303,558,o),
(316,558,o),
(329,558,cs),
(369,558,o),
(411,523,o),
(405,418,cs),
(401,335,o),
(354,327,o),
(329,327,cs)
);
}
);
userData = {
com.hugojourdan.ColorFlow = {
"0" = 0;
"1" = 0;
"10" = 0;
"11" = 0;
"2" = 0;
"3" = 0;
"4" = 0;
"5" = 0;
"6" = 0;
"7" = 0;
"8" = 0;
"9" = 0;
};
};
width = 582;
},
{
anchors = (
{
name = bottom;
pos = (245,-100);
},
{
name = top;
pos = (245,450);
}
);
layerId = "5B801A11-FB24-4494-9FC9-AC06A39D30E5";
shapes = (
{
closed = 1;
nodes = (
(254,0,l),
(255,13,l),
(167,58,l),
(182,277,l),
(204,275,o),
(228,274,o),
(255,274,cs),
(343,274,o),
(452,348,o),
(461,448,cs),
(470,542,o),
(411,612,o),
(261,612,cs),
(70,612,l),
(67,598,l),
(136,554,l),
(102,58,l),
(29,15,l),
(28,0,l)
);
},
{
closed = 1;
nodes = (
(232,311,o),
(210,312,o),
(185,315,c),
(203,578,l),
(212,579,o),
(222,579,o),
(230,579,cs),
(370,579,o),
(398,502,o),
(389,429,cs),
(380,356,o),
(351,311,o),
(265,311,cs)
);
}
);
userData = {
com.hugojourdan.ColorFlow = {
"0" = 0;
"1" = 0;
"10" = 0;
"11" = 0;
"2" = 0;
"3" = 0;
"4" = 0;
"5" = 0;
"6" = 0;
"7" = 0;
"8" = 0;
"9" = 0;
};
};
width = 486;
}
);
unicode = 80;
},
{
color = 4;
glyphname = Thorn;
lastChange = "2024-02-12 15:03:03 +0000";
layers = (
{
layerId = m001;
shapes = (
{
closed = 1;
nodes = (
(323,0,l),
(325,29,l),
(256,58,l),
(261,137,l),
(271,136,o),
(280,135,o),
(286,135,cs),
(430,135,o),
(547,203,o),
(553,308,cs),
(560,431,o),
(490,488,o),
(364,488,cs),
(285,488,l),
(290,554,l),
(365,584,l),
(365,612,l),
(58,612,l),
(58,585,l),
(127,554,l),
(93,58,l),
(18,28,l),
(16,0,l)
);
},
{
closed = 1;
nodes = (
(306,193,o),
(281,199,o),
(266,205,c),
(282,434,l),
(299,434,o),
(318,435,o),
(331,434,cs),
(368,433,o),
(406,390,o),
(401,294,cs),
(397,211,o),
(382,193,o),
(325,193,cs)
);
}
);
userData = {
com.hugojourdan.ColorFlow = {
"0" = 0;
"1" = 0;
"10" = 0;
"11" = 0;
"2" = 0;
"3" = 0;
"4" = 0;
"5" = 0;
"6" = 0;
"7" = 0;
"8" = 0;
"9" = 0;
};
};
width = 566;
},
{
layerId = "5B801A11-FB24-4494-9FC9-AC06A39D30E5";
shapes = (
{
closed = 1;
nodes = (
(254,0,l),
(253,13,l),
(160,58,l),
(167,161,l),
(191,159,o),
(215,159,o),
(233,159,cs),
(315,159,o),
(440,216,o),
(450,321,cs),
(459,410,o),
(395,480,o),
(245,480,cs),
(189,480,l),
(194,554,l),
(293,597,l),
(296,612,l),
(63,612,l),
(61,598,l),
(130,554,l),
(96,58,l),
(21,15,l),
(21,0,l)
);
},
{
closed = 1;
nodes = (
(224,196,o),
(197,197,o),
(170,200,c),
(187,446,l),
(197,447,o),
(208,447,o),
(219,447,cs),
(355,447,o),
(388,370,o),
(380,297,cs),
(370,224,o),
(331,196,o),
(256,196,cs)
);
}
);
userData = {
com.hugojourdan.ColorFlow = {
"0" = 0;
"1" = 0;
"10" = 0;
"11" = 0;
"2" = 0;
"3" = 0;
"4" = 0;
"5" = 0;
"6" = 0;
"7" = 0;
"8" = 0;
"9" = 0;
};
};
width = 481;
}
);
unicode = 222;
},
{
color = 4;
glyphname = Q;
lastChange = "2024-02-12 15:03:03 +0000";
layers = (
{
anchors = (
{
name = bottom;
pos = (328,-100);
},
{
name = top;
pos = (328,450);
}
);
layerId = m001;
shapes = (
{
closed = 1;
nodes = (
(497,-223,o),
(568,-182,o),
(631,-106,c),
(615,-77,l),
(568,-101,o),
(549,-109,o),
(523,-109,cs),
(464,-109,o),
(326,-68,o),
(242,-52,c),
(295,-35,o),
(351,-11,o),
(394,11,cs),
(501,60,o),
(574,168,o),
(578,314,cs),
(583,531,o),
(476,630,o),
(341,630,cs),
(166,630,o),
(29,499,o),
(23,298,cs),
(18,94,o),
(113,-6,o),
(237,-17,c),
(216,-27,o),
(194,-38,o),
(173,-48,c),
(85,-44,o),
(56,-58,o),
(56,-97,cs),
(56,-141,o),
(83,-167,o),
(146,-132,c),
(207,-145,o),
(388,-223,o),
(453,-223,cs)
);
},
{
closed = 1;
nodes = (
(216,50,o),
(187,161,o),
(203,365,cs),
(214,535,o),
(243,562,o),
(278,562,cs),
(385,562,o),
(414,451,o),
(398,247,cs),
(387,77,o),
(358,50,o),
(326,50,cs)
);
}
);
userData = {
com.hugojourdan.ColorFlow = {
"0" = 0;
"1" = 0;
"10" = 0;
"11" = 0;
"2" = 0;
"3" = 0;
"4" = 0;
"5" = 0;
"6" = 0;
"7" = 0;
"8" = 0;
"9" = 0;
};
};
width = 589;
},
{
anchors = (
{
name = bottom;
pos = (323,-100);
},
{
name = top;
pos = (323,450);
}
);
layerId = "5B801A11-FB24-4494-9FC9-AC06A39D30E5";
shapes = (
{
closed = 1;
nodes = (
(484,-167,o),
(507,-153,o),
(575,-90,c),
(572,-77,l),
(531,-101,o),
(501,-104,o),
(475,-104,cs),
(443,-104,o),
(339,-68,o),
(255,-52,c),
(300,-32,o),
(360,4,o),
(401,37,cs),
(467,85,o),
(521,170,o),
(538,282,cs),
(570,502,o),
(481,622,o),
(346,622,cs),
(233,622,o),
(106,512,o),
(79,330,cs),
(47,109,o),
(136,-13,o),
(276,-10,c),
(254,-26,o),
(231,-38,o),
(210,-48,c),
(109,-49,o),
(101,-61,o),
(101,-100,cs),
(101,-144,o),
(136,-122,o),
(199,-87,c),
(252,-78,o),
(380,-167,o),
(445,-167,cs)
);
},
{
closed = 1;
nodes = (
(197,42,o),
(112,140,o),
(136,344,cs),
(158,514,o),
(208,570,o),
(315,570,cs),
(420,570,o),
(505,472,o),
(481,268,cs),
(459,98,o),
(409,42,o),
(297,42,cs)
);
}
);
userData = {
com.hugojourdan.ColorFlow = {
"0" = 0;
"1" = 0;
"10" = 0;
"11" = 0;
"2" = 0;
"3" = 0;
"4" = 0;
"5" = 0;
"6" = 0;
"7" = 0;
"8" = 0;
"9" = 0;
};
};
width = 621;
},
{
anchors = (
{
name = bottom;
pos = (323,-100);
},
{
name = top;
pos = (323,450);
}
);
associatedMasterId = "5B801A11-FB24-4494-9FC9-AC06A39D30E5";
layerId = "EB1E3C5D-281E-407B-9A0B-4238FC294EDE";
name = "23 de ago. de 23, 9:48";
shapes = (
{
closed = 1;
nodes = (
(484,-167,o),
(507,-153,o),
(575,-90,c),
(572,-77,l),
(531,-101,o),
(501,-104,o),
(475,-104,cs),
(443,-104,o),
(339,-68,o),
(255,-52,c),
(300,-32,o),
(360,4,o),
(401,37,cs),
(467,85,o),
(521,170,o),
(538,282,cs),
(570,502,o),
(481,622,o),
(346,622,cs),
(233,622,o),
(106,512,o),
(79,330,cs),
(47,110,o),
(136,-10,o),
(271,-10,cs),
(276,-10,l),
(254,-26,o),
(231,-38,o),
(210,-48,c),
(109,-49,o),
(101,-61,o),
(101,-100,cs),
(101,-144,o),
(136,-122,o),
(199,-87,c),
(252,-78,o),
(380,-167,o),
(445,-167,cs)
);
},
{
closed = 1;
nodes = (
(197,42,o),
(112,140,o),
(136,344,cs),
(158,514,o),
(208,570,o),
(315,570,cs),
(420,570,o),
(505,472,o),
(481,268,cs),
(459,98,o),
(409,42,o),
(297,42,cs)
);
}
);
width = 621;
}
);
unicode = 81;
},
{
color = 4;
glyphname = R;
kernLeft = KO_E;
kernRight = KO_R;
lastChange = "2024-02-12 15:03:03 +0000";
layers = (
{
anchors = (
{
name = bottom;
pos = (317,-100);
},
{
name = top;
pos = (366,450);
}
);
layerId = m001;
shapes = (
{
closed = 1;
nodes = (
(329,0,l),
(331,29,l),
(252,58,l),
(267,277,l),
(278,276,o),
(289,275,o),
(299,275,cs),
(305,275,o),
(310,275,o),
(316,275,c),
(398,-20,o),
(434,-18,o),
(490,-18,cs),
(534,-18,o),
(580,-10,o),
(621,2,c),
(621,26,l),
(610,30,o),
(597,34,o),
(581,46,cs),
(563,60,o),
(530,76,o),
(451,304,c),
(518,334,o),
(563,383,o),
(567,448,cs),
(574,573,o),
(484,612,o),
(379,612,cs),
(54,612,l),
(54,585,l),
(123,554,l),
(89,58,l),
(14,28,l),
(12,0,l)
);
},
{
closed = 1;
nodes = (
(309,325,o),
(286,330,o),
(271,337,c),
(286,558,l),
(302,558,o),
(319,558,o),
(335,558,cs),
(368,558,o),
(419,527,o),
(417,438,cs),
(412,345,o),
(382,325,o),
(335,325,cs)
);
}
);
userData = {
com.hugojourdan.ColorFlow = {
"0" = 0;
"1" = 0;
"10" = 0;
"11" = 0;
"2" = 0;
"3" = 0;
"4" = 0;
"5" = 0;
"6" = 0;
"7" = 0;
"8" = 0;
"9" = 0;
};
};
width = 627;
},
{
anchors = (
{
name = bottom;
pos = (296,-100);
},
{
name = top;
pos = (214,450);
}
);
layerId = "5B801A11-FB24-4494-9FC9-AC06A39D30E5";
shapes = (
{
closed = 1;
nodes = (
(244,0,l),
(245,13,l),
(167,58,l),
(184,300,l),
(202,299,o),
(220,299,o),
(242,299,cs),
(252,299,o),
(263,300,o),
(274,301,c),
(384,33,o),
(420,-10,o),
(477,-10,cs),
(499,-10,o),
(521,-7,o),
(565,10,c),
(565,34,l),
(517,30,o),
(497,40,o),
(480,54,cs),
(461,69,o),
(430,111,o),
(331,315,c),
(395,337,o),
(456,384,o),
(463,467,cs),
(470,533,o),
(415,612,o),
(267,612,cs),
(70,612,l),
(67,598,l),
(136,554,l),
(102,58,l),
(29,15,l),
(28,0,l)
);
},
{
closed = 1;
nodes = (
(232,338,o),
(213,338,o),
(186,341,c),
(203,578,l),
(211,579,o),
(219,579,o),
(228,579,cs),
(350,579,o),
(403,519,o),
(390,422,cs),
(383,364,o),
(342,338,o),
(263,338,cs)
);
}
);
userData = {
com.hugojourdan.ColorFlow = {
"0" = 0;
"1" = 0;
"10" = 0;
"11" = 0;
"2" = 0;
"3" = 0;
"4" = 0;
"5" = 0;
"6" = 0;
"7" = 0;
"8" = 0;
"9" = 0;
};
};
width = 563;
}
);
unicode = 82;
},
{
color = 4;
glyphname = S;
kernLeft = KO_S;
kernRight = KO_S;
lastChange = "2024-02-12 15:03:03 +0000";
layers = (
{
anchors = (
{
name = bottom;
pos = (248,-100);
},
{
name = top;
pos = (248,450);
}
);
layerId = m001;
shapes = (
{
closed = 1;
nodes = (
(321,-18,o),
(445,56,o),
(456,174,cs),
(463,248,o),
(442,301,o),
(334,366,cs),
(284,396,ls),
(227,430,o),
(203,451,o),
(208,499,cs),
(211,532,o),
(225,568,o),
(265,568,cs),
(294,568,o),
(327,561,o),
(356,540,c),
(414,435,l),
(437,435,l),
(480,599,l),
(448,615,o),
(385,630,o),
(306,630,cs),
(192,630,o),
(70,547,o),
(63,441,cs),
(57,353,o),
(90,300,o),
(170,251,cs),
(220,220,ls),
(289,177,o),
(311,134,o),
(308,99,cs),
(305,70,o),
(291,41,o),
(244,41,cs),
(218,41,o),
(175,50,o),
(143,68,c),
(89,179,l),
(62,179,l),
(18,11,l),
(57,-6,o),
(112,-18,o),
(173,-18,cs)
);
}
);
userData = {
com.hugojourdan.ColorFlow = {
"0" = 0;
"1" = 0;
"10" = 0;
"11" = 0;
"2" = 0;
"3" = 0;
"4" = 0;
"5" = 0;
"6" = 0;
"7" = 0;
"8" = 0;
"9" = 0;
};
};
width = 507;
},
{
anchors = (
{
name = bottom;
pos = (219,-100);
},
{
name = top;
pos = (219,450);
}
);
layerId = "5B801A11-FB24-4494-9FC9-AC06A39D30E5";
shapes = (
{
closed = 1;
nodes = (
(278,-10,o),
(378,61,o),
(384,161,cs),
(388,237,o),
(347,280,o),
(275,323,cs),
(228,351,ls),
(177,381,o),
(136,422,o),
(141,496,cs),
(147,553,o),
(175,584,o),
(243,584,cs),
(269,584,o),
(288,582,o),
(306,577,c),
(347,499,l),
(375,499,l),
(403,604,l),
(371,618,o),
(334,622,o),
(287,622,cs),
(168,622,o),
(89,560,o),
(82,478,cs),
(76,398,o),
(119,353,o),
(183,315,cs),
(231,287,ls),
(291,252,o),
(330,214,o),
(324,134,cs),
(318,59,o),
(275,36,o),
(207,36,cs),
(175,36,o),
(152,37,o),
(125,44,c),
(96,118,l),
(63,118,l),
(34,8,l),
(72,-3,o),
(120,-10,o),
(176,-10,cs)
);
}
);
userData = {
com.hugojourdan.ColorFlow = {
"0" = 0;
"1" = 0;
"10" = 0;
"11" = 0;
"2" = 0;
"3" = 0;
"4" = 0;
"5" = 0;
"6" = 0;
"7" = 0;
"8" = 0;
"9" = 0;
};
};
width = 438;
},
{
anchors = (
{
name = bottom;
pos = (248,-100);
},
{
name = top;
pos = (248,450);
}
);
associatedMasterId = m001;
layerId = "ABBF0207-16FA-405F-8309-19D589E8CB5F";
name = "4 de oct. de 23, 9:45";
shapes = (
{
closed = 1;
nodes = (
(321,-18,o),
(445,56,o),
(456,174,cs),
(463,248,o),
(442,301,o),
(334,366,cs),
(284,396,ls),
(227,430,o),
(203,451,o),
(208,499,cs),
(211,534,o),
(231,568,o),
(254,568,cs),
(288,568,o),
(327,561,o),
(356,540,c),
(419,435,l),
(442,435,l),
(480,599,l),
(448,615,o),
(385,630,o),
(306,630,cs),
(192,630,o),
(70,547,o),
(63,441,cs),
(57,353,o),
(90,300,o),
(170,251,cs),
(220,220,ls),
(289,177,o),
(311,134,o),
(308,105,cs),
(305,70,o),
(291,41,o),
(255,41,cs),
(218,41,o),
(176,50,o),
(144,68,c),
(84,179,l),
(57,179,l),
(18,11,l),
(57,-6,o),
(112,-18,o),
(173,-18,cs)
);
}
);
width = 507;
},
{
anchors = (
{
name = bottom;
pos = (219,-100);
},
{
name = top;
pos = (219,450);
}
);
associatedMasterId = "5B801A11-FB24-4494-9FC9-AC06A39D30E5";
layerId = "ED15D632-674F-4B0A-8274-5B640A30FCE8";
name = "4 de oct. de 23, 9:45";
shapes = (
{
closed = 1;
nodes = (
(278,-10,o),
(378,61,o),
(384,161,cs),
(388,237,o),
(347,280,o),
(275,323,cs),
(228,351,ls),
(176,380,o),
(136,422,o),
(141,496,cs),
(147,553,o),
(175,584,o),
(243,584,cs),
(269,584,o),
(287,582,o),
(305,577,c),
(350,499,l),
(378,499,l),
(403,604,l),
(371,618,o),
(334,622,o),
(287,622,cs),
(168,622,o),
(89,560,o),
(82,478,cs),
(76,398,o),
(119,353,o),
(183,315,cs),
(231,287,ls),
(292,253,o),
(330,214,o),
(324,134,cs),
(318,59,o),
(275,36,o),
(207,36,cs),
(175,36,o),
(152,37,o),
(125,44,c),
(95,118,l),
(62,118,l),
(34,8,l),
(72,-3,o),
(120,-10,o),
(176,-10,cs)
);
}
);
width = 438;
}
);
unicode = 83;
},
{
color = 3;
glyphname = Germandbls;
lastChange = "2024-02-12 15:14:18 +0000";
layers = (
{
layerId = m001;
shapes = (
{
closed = 1;
nodes = (
(540,-18,o),
(637,65,o),
(644,163,cs),
(650,256,o),
(582,327,o),
(449,341,c),
(613,441,l),
(623,572,o),
(497,632,o),
(375,632,cs),
(224,632,o),
(80,551,o),
(67,360,cs),
(46,57,l),
(1,24,l),
(0,0,l),
(220,0,l),
(253,484,ls),
(258,552,o),
(295,583,o),
(338,583,cs),
(413,583,o),
(456,506,o),
(450,435,c),
(301,328,l),
(298,277,l),
(419,271,o),
(485,219,o),
(478,125,cs),
(474,68,o),
(446,50,o),
(414,50,cs),
(410,50,o),
(396,50,o),
(391,50,c),
(339,149,l),
(291,149,l),
(254,-5,l),
(291,-13,o),
(335,-18,o),
(396,-18,cs)
);
}
);
userData = {
com.hugojourdan.ColorFlow = {
"0" = 0;
"1" = 0;
"10" = 0;
"11" = 0;
"2" = 0;
"3" = 0;
"4" = 0;
"5" = 0;
"6" = 0;
"7" = 0;
"8" = 0;
"9" = 0;
};
};
width = 670;
},
{
layerId = "5B801A11-FB24-4494-9FC9-AC06A39D30E5";
shapes = (
{
closed = 1;
nodes = (
(433,-10,o),
(528,76,o),
(534,169,cs),
(541,262,o),
(458,326,o),
(328,326,c),
(514,490,l),
(518,550,o),
(468,627,o),
(338,627,cs),
(243,627,o),
(136,576,o),
(125,421,cs),
(99,53,l),
(32,15,l),
(31,0,l),
(167,0,l),
(201,481,ls),
(207,565,o),
(241,593,o),
(302,593,cs),
(392,593,o),
(447,524,o),
(443,465,c),
(272,310,l),
(270,278,l),
(390,278,o),
(467,237,o),
(460,133,cs),
(454,53,o),
(392,17,o),
(333,17,cs),
(327,17,o),
(316,18,o),
(312,18,c),
(257,76,l),
(237,76,l),
(219,2,l),
(256,-7,o),
(287,-10,o),
(330,-10,cs)
);
}
);
userData = {
com.hugojourdan.ColorFlow = {
"0" = 0;
"1" = 0;
"10" = 0;
"11" = 0;
"2" = 0;
"3" = 0;
"4" = 0;
"5" = 0;
"6" = 0;
"7" = 0;
"8" = 0;
"9" = 0;
};
};
width = 576;
},
{
associatedMasterId = "5B801A11-FB24-4494-9FC9-AC06A39D30E5";
layerId = "1C552B05-268E-4605-B563-12EE86536DF4";
name = "31 de oct. de 23, 11:17";
shapes = (
{
closed = 1;
nodes = (
(212,0,l),
(213,13,l),
(145,58,l),
(162,305,l),
(440,305,l),
(423,58,l),
(349,15,l),
(348,0,l),
(553,0,l),
(554,13,l),
(486,58,l),
(520,554,l),
(592,597,l),
(595,612,l),
(390,612,l),
(387,598,l),
(457,554,l),
(442,334,l),
(164,334,l),
(179,554,l),
(251,597,l),
(254,612,l),
(48,612,l),
(46,598,l),
(115,554,l),
(81,58,l),
(7,15,l),
(6,0,l)
);
}
);
width = 600;
},
{
associatedMasterId = m001;
layerId = "A6915188-4178-4FCB-B21B-27997216D726";
name = "31 de oct. de 23, 11:50";
shapes = (
{
alignment = -1;
pos = (-9,0);
ref = H;
}
);
width = 699;
},
{
associatedMasterId = "5B801A11-FB24-4494-9FC9-AC06A39D30E5";
layerId = "DB979533-CAF4-452A-89DC-2C35CB2272E9";
name = "2 de nov. de 23, 21:48";
shapes = (
{
closed = 1;
nodes = (
(53,-200,o),
(139,-136,o),
(147,11,cs),
(170,448,ls),
(176,561,o),
(256,575,o),
(305,575,cs),
(378,575,o),
(395,512,o),
(395,477,c),
(253,331,l),
(245,299,l),
(262,301,o),
(282,302,o),
(305,302,cs),
(395,302,o),
(455,226,o),
(451,167,cs),
(446,87,o),
(401,15,o),
(321,15,cs),
(288,15,o),
(268,22,o),
(254,29,c),
(212,77,l),
(196,77,l),
(179,17,l),
(212,5,o),
(273,-10,o),
(307,-10,cs),
(408,-10,o),
(516,57,o),
(518,178,cs),
(519,258,o),
(449,313,o),
(381,327,cs),
(342,335,o),
(313,332,o),
(289,332,c),
(460,485,l),
(460,560,o),
(419,622,o),
(321,622,cs),
(244,622,o),
(122,550,o),
(115,405,cs),
(93,-32,ls),
(89,-119,o),
(62,-146,o),
(7,-146,cs),
(-9,-146,o),
(-26,-144,o),
(-47,-140,c),
(-52,-162,l),
(-40,-200,l)
);
}
);
width = 560;
},
{
associatedMasterId = "5B801A11-FB24-4494-9FC9-AC06A39D30E5";
layerId = "ED2C8CFB-F642-4982-BE5B-743E882B412E";
name = "2 de nov. de 23, 22:02";
shapes = (
{
closed = 1;
nodes = (
(34,58,l),
(-40,15,l),
(-41,0,l),
(94,0,l),
(123,442,ls),
(130,555,o),
(204,575,o),
(253,575,cs),
(326,575,o),
(343,512,o),
(343,477,c),
(201,331,l),
(193,299,l),
(210,301,o),
(230,302,o),
(253,302,cs),
(343,302,o),
(403,226,o),
(399,167,cs),
(394,87,o),
(349,15,o),
(269,15,cs),
(236,15,o),
(216,22,o),
(202,29,c),
(160,77,l),
(144,77,l),
(127,17,l),
(160,5,o),
(221,-10,o),
(255,-10,cs),
(356,-10,o),
(464,57,o),
(466,178,cs),
(467,258,o),
(397,313,o),
(329,327,cs),
(290,335,o),
(261,332,o),
(237,332,c),
(408,485,l),
(408,560,o),
(367,622,o),
(269,622,cs),
(192,622,o),
(65,553,o),
(58,408,cs)
);
}
);
width = 498;
},
{
associatedMasterId = m001;
layerId = "3C25A381-E99C-472A-A793-C3384E3F544B";
name = "2 de nov. de 23, 22:02";
shapes = (
{
closed = 1;
nodes = (
(18,-205,o),
(163,-58,o),
(166,12,cs),
(185,393,ls),
(191,505,o),
(223,531,o),
(270,531,cs),
(302,531,o),
(335,501,o),
(335,473,c),
(221,307,l),
(211,252,l),
(234,261,o),
(277,269,o),
(313,269,cs),
(375,269,o),
(451,234,o),
(444,155,cs),
(439,90,o),
(416,57,o),
(367,57,cs),
(337,57,o),
(326,63,o),
(295,72,c),
(246,148,l),
(220,148,l),
(183,19,l),
(224,2,o),
(281,-16,o),
(358,-17,cs),
(468,-19,o),
(585,51,o),
(592,167,cs),
(597,252,o),
(553,353,o),
(410,351,cs),
(383,351,o),
(356,348,o),
(355,348,c),
(497,519,l),
(497,579,o),
(447,630,o),
(330,630,cs),
(194,630,o),
(39,489,o),
(29,291,cs),
(12,-33,ls),
(7,-122,o),
(-11,-126,o),
(-28,-126,cs),
(-44,-126,o),
(-58,-124,o),
(-84,-119,c),
(-89,-142,l),
(-77,-205,l)
);
}
);
width = 618;
}
);
metricLeft = U;
metricRight = B;
unicode = 7838;
},
{
color = 4;
glyphname = T;
kernLeft = KO_T;
kernRight = KO_T;
lastChange = "2024-02-12 15:03:03 +0000";
layers = (
{
anchors = (
{
name = bottom;
pos = (339,-100);
},
{
name = top;
pos = (368,450);
}
);
layerId = m001;
shapes = (
{
closed = 1;
nodes = (
(458,0,l),
(459,29,l),
(381,58,l),
(414,558,l),
(509,558,l),
(549,411,l),
(582,411,l),
(634,612,l),
(78,612,l),
(44,411,l),
(84,411,l),
(178,558,l),
(250,558,l),
(217,58,l),
(133,28,l),
(131,0,l)
);
}
);
userData = {
com.hugojourdan.ColorFlow = {
"0" = 0;
"1" = 0;
"10" = 0;
"11" = 0;
"2" = 0;
"3" = 0;
"4" = 0;
"5" = 0;
"6" = 0;
"7" = 0;
"8" = 0;
"9" = 0;
};
};
width = 614;
},
{
anchors = (
{
name = bottom;
pos = (280,-100);
},
{
name = top;
pos = (232,450);
}
);
layerId = "5B801A11-FB24-4494-9FC9-AC06A39D30E5";
shapes = (
{
closed = 1;
nodes = (
(351,0,l),
(352,13,l),
(274,58,l),
(310,579,l),
(415,579,l),
(456,488,l),
(479,488,l),
(511,612,l),
(72,612,l),
(51,488,l),
(73,488,l),
(153,579,l),
(248,579,l),
(212,58,l),
(129,15,l),
(128,0,l)
);
}
);
userData = {
com.hugojourdan.ColorFlow = {
"0" = 0;
"1" = 0;
"10" = 0;
"11" = 0;
"2" = 0;
"3" = 0;
"4" = 0;
"5" = 0;
"6" = 0;
"7" = 0;
"8" = 0;
"9" = 0;
};
};
width = 518;
},
{
anchors = (
{
name = bottom;
pos = (339,-100);
},
{
name = top;
pos = (368,450);
}
);
associatedMasterId = m001;
layerId = "77EE42DD-D8CA-49EF-952F-94D13EF657A0";
name = "29 de sep. de 23, 11:12";
shapes = (
{
closed = 1;
nodes = (
(458,0,l),
(459,29,l),
(381,58,l),
(414,558,l),
(509,558,l),
(551,411,l),
(584,411,l),
(634,612,l),
(51,612,l),
(44,411,l),
(77,411,l),
(165,558,l),
(250,558,l),
(217,58,l),
(132,28,l),
(131,0,l)
);
}
);
width = 614;
},
{
anchors = (
{
name = bottom;
pos = (280,-100);
},
{
name = top;
pos = (232,450);
}
);
associatedMasterId = "5B801A11-FB24-4494-9FC9-AC06A39D30E5";
layerId = "C56BE02F-3BBA-4765-82AA-FC316D3E66AC";
name = "2 de oct. de 23, 9:05";
shapes = (
{
closed = 1;
nodes = (
(351,0,l),
(352,13,l),
(274,58,l),
(310,579,l),
(415,579,l),
(460,488,l),
(483,488,l),
(511,612,l),
(91,612,l),
(49,488,l),
(72,488,l),
(167,579,l),
(248,579,l),
(212,58,l),
(129,15,l),
(128,0,l)
);
}
);
width = 518;
}
);
unicode = 84;
},
{
color = 4;
glyphname = Tbar;
lastChange = "2024-02-12 15:03:03 +0000";
layers = (
{
layerId = m001;
shapes = (
{
closed = 1;
nodes = (
(544,285,l),
(550,351,l),
(82,351,l),
(76,285,l)
);
},
{
ref = T;
}
);
userData = {
com.hugojourdan.ColorFlow = {
"0" = 0;
"1" = 0;
"10" = 0;
"11" = 0;
"2" = 0;
"3" = 0;
"4" = 0;
"5" = 0;
"6" = 0;
"7" = 0;
"8" = 0;
"9" = 0;
};
};
width = 614;
},
{
layerId = "5B801A11-FB24-4494-9FC9-AC06A39D30E5";
shapes = (
{
closed = 1;
nodes = (
(416,304,l),
(417,332,l),
(109,332,l),
(108,304,l)
);
},
{
ref = T;
}
);
userData = {
com.hugojourdan.ColorFlow = {
"0" = 0;
"1" = 0;
"10" = 0;
"11" = 0;
"2" = 0;
"3" = 0;
"4" = 0;
"5" = 0;
"6" = 0;
"7" = 0;
"8" = 0;
"9" = 0;
};
};
width = 518;
}
);
unicode = 358;
},
{
color = 4;
glyphname = U;
lastChange = "2024-02-12 15:03:03 +0000";
layers = (
{
anchors = (
{
name = bottom;
pos = (329,-100);
},
{
name = top;
pos = (357,450);
}
);
layerId = m001;
shapes = (
{
closed = 1;
nodes = (
(424,-18,o),
(548,81,o),
(558,238,cs),
(579,554,l),
(635,584,l),
(636,612,l),
(422,612,l),
(421,583,l),
(488,554,l),
(463,200,ls),
(457,113,o),
(417,74,o),
(353,74,cs),
(282,74,o),
(226,119,o),
(233,223,cs),
(256,554,l),
(330,584,l),
(331,612,l),
(42,612,l),
(41,585,l),
(92,554,l),
(67,199,ls),
(58,65,o),
(145,-18,o),
(293,-18,cs)
);
}
);
userData = {
com.hugojourdan.ColorFlow = {
"0" = 0;
"1" = 0;
"10" = 0;
"11" = 0;
"2" = 0;
"3" = 0;
"4" = 0;
"5" = 0;
"6" = 0;
"7" = 0;
"8" = 0;
"9" = 0;
};
};
width = 622;
},
{
anchors = (
{
name = bottom;
pos = (343,-100);
},
{
name = top;
pos = (297,450);
}
);
layerId = "5B801A11-FB24-4494-9FC9-AC06A39D30E5";
shapes = (
{
closed = 1;
nodes = (
(417,-10,o),
(498,78,o),
(508,222,cs),
(532,554,l),
(612,597,l),
(613,612,l),
(428,612,l),
(427,599,l),
(497,554,l),
(472,197,ls),
(465,86,o),
(418,50,o),
(325,50,cs),
(216,50,o),
(173,117,o),
(180,221,cs),
(204,554,l),
(278,597,l),
(279,612,l),
(74,612,l),
(73,598,l),
(141,554,l),
(116,199,ls),
(107,65,o),
(175,-10,o),
(286,-10,cs)
);
}
);
userData = {
com.hugojourdan.ColorFlow = {
"0" = 0;
"1" = 0;
"10" = 0;
"11" = 0;
"2" = 0;
"3" = 0;
"4" = 0;
"5" = 0;
"6" = 0;
"7" = 0;
"8" = 0;
"9" = 0;
};
};
width = 627;
}
);
unicode = 85;
},
{
color = 4;
glyphname = V;
kernRight = KO_V;
lastChange = "2024-02-12 15:03:03 +0000";
layers = (
{
anchors = (
{
name = bottom;
pos = (318,-100);
},
{
name = top;
pos = (318,450);
}
);
layerId = m001;
shapes = (
{
closed = 1;
nodes = (
(304,-1,l),
(543,555,l),
(593,584,l),
(594,612,l),
(413,612,l),
(412,584,l),
(476,554,l),
(317,172,l),
(227,554,l),
(305,584,l),
(306,612,l),
(37,612,l),
(36,584,l),
(70,554,l),
(210,-28,l)
);
}
);
userData = {
com.hugojourdan.ColorFlow = {
"0" = 0;
"1" = 0;
"10" = 0;
"11" = 0;
"2" = 0;
"3" = 0;
"4" = 0;
"5" = 0;
"6" = 0;
"7" = 0;
"8" = 0;
"9" = 0;
};
};
width = 546;
},
{
anchors = (
{
name = bottom;
pos = (318,-100);
},
{
name = top;
pos = (318,450);
}
);
layerId = "5B801A11-FB24-4494-9FC9-AC06A39D30E5";
shapes = (
{
closed = 1;
nodes = (
(290,10,l),
(536,555,l),
(598,597,l),
(599,612,l),
(418,612,l),
(417,597,l),
(487,554,l),
(288,83,l),
(176,554,l),
(267,597,l),
(268,612,l),
(37,612,l),
(36,597,l),
(99,554,l),
(247,-15,l)
);
}
);
userData = {
com.hugojourdan.ColorFlow = {
"0" = 0;
"1" = 0;
"10" = 0;
"11" = 0;
"2" = 0;
"3" = 0;
"4" = 0;
"5" = 0;
"6" = 0;
"7" = 0;
"8" = 0;
"9" = 0;
};
};
width = 599;
},
{
anchors = (
{
name = bottom;
pos = (315,-100);
},
{
name = top;
pos = (315,450);
}
);
associatedMasterId = m001;
layerId = "959D1113-1688-4CCC-9A7B-F1023601C16A";
name = "4 de oct. de 23, 10:01";
shapes = (
{
closed = 1;
nodes = (
(301,-1,l),
(540,555,l),
(595,584,l),
(596,612,l),
(410,612,l),
(409,584,l),
(473,554,l),
(314,172,l),
(224,554,l),
(302,584,l),
(303,612,l),
(37,612,l),
(36,584,l),
(67,554,l),
(207,-28,l)
);
}
);
width = 548;
}
);
unicode = 86;
userData = {
KernOnName = V;
};
},
{
color = 4;
glyphname = W;
kernRight = KO_W;
lastChange = "2024-02-12 15:03:03 +0000";
layers = (
{
anchors = (
{
name = bottom;
pos = (474,-100);
},
{
name = top;
pos = (474,450);
}
);
layerId = m001;
shapes = (
{
closed = 1;
nodes = (
(278,-1,l),
(447,379,l),
(523,-28,l),
(625,-1,l),
(864,554,l),
(915,584,l),
(916,612,l),
(732,612,l),
(731,584,l),
(796,554,l),
(644,188,l),
(566,612,l),
(479,612,l),
(298,189,l),
(234,554,l),
(317,584,l),
(318,612,l),
(37,612,l),
(36,584,l),
(68,555,l),
(176,-28,l)
);
}
);
userData = {
com.hugojourdan.ColorFlow = {
"0" = 0;
"1" = 0;
"10" = 0;
"11" = 0;
"2" = 0;
"3" = 0;
"4" = 0;
"5" = 0;
"6" = 0;
"7" = 0;
"8" = 0;
"9" = 0;
};
};
width = 868;
},
{
anchors = (
{
name = bottom;
pos = (493,-100);
},
{
name = top;
pos = (493,450);
}
);
layerId = "5B801A11-FB24-4494-9FC9-AC06A39D30E5";
shapes = (
{
closed = 1;
nodes = (
(275,10,l),
(482,491,l),
(640,-15,l),
(684,10,l),
(874,555,l),
(946,597,l),
(947,612,l),
(761,612,l),
(760,597,l),
(827,554,l),
(673,86,l),
(502,612,l),
(487,612,l),
(267,86,l),
(160,554,l),
(242,597,l),
(243,612,l),
(38,612,l),
(37,597,l),
(98,554,l),
(232,-15,l)
);
}
);
userData = {
com.hugojourdan.ColorFlow = {
"0" = 0;
"1" = 0;
"10" = 0;
"11" = 0;
"2" = 0;
"3" = 0;
"4" = 0;
"5" = 0;
"6" = 0;
"7" = 0;
"8" = 0;
"9" = 0;
};
};
width = 947;
},
{
anchors = (
{
name = bottom;
pos = (474,-100);
},
{
name = top;
pos = (474,450);
}
);
associatedMasterId = m001;
layerId = "AE9859CE-FC2E-4DCD-87A5-A557FD837F10";
name = "4 de oct. de 23, 10:02";
shapes = (
{
closed = 1;
nodes = (
(278,-1,l),
(447,379,l),
(523,-28,l),
(625,-1,l),
(864,554,l),
(913,584,l),
(914,612,l),
(732,612,l),
(731,584,l),
(796,554,l),
(644,188,l),
(566,612,l),
(479,612,l),
(298,189,l),
(234,554,l),
(317,584,l),
(318,612,l),
(37,612,l),
(36,584,l),
(68,555,l),
(176,-28,l)
);
}
);
width = 866;
},
{
anchors = (
{
name = bottom;
pos = (493,-100);
},
{
name = top;
pos = (493,450);
}
);
associatedMasterId = "5B801A11-FB24-4494-9FC9-AC06A39D30E5";
layerId = "7B093B9C-9BE1-4FC6-BEA4-C95AAA7E72DC";
name = "4 de oct. de 23, 10:02";
shapes = (
{
closed = 1;
nodes = (
(275,10,l),
(482,491,l),
(640,-15,l),
(684,10,l),
(874,555,l),
(948,597,l),
(949,612,l),
(761,612,l),
(760,597,l),
(827,554,l),
(673,86,l),
(502,612,l),
(487,612,l),
(267,86,l),
(160,554,l),
(242,597,l),
(243,612,l),
(37,612,l),
(36,597,l),
(98,554,l),
(232,-15,l)
);
}
);
width = 949;
}
);
unicode = 87;
},
{
color = 4;
glyphname = X;
kernLeft = KO_X;
kernRight = KO_X;
lastChange = "2024-02-12 15:03:03 +0000";
layers = (
{
anchors = (
{
name = bottom;
pos = (327,-100);
},
{
name = top;
pos = (327,450);
}
);
layerId = m001;
shapes = (
{
closed = 1;
nodes = (
(210,0,l),
(211,28,l),
(145,58,l),
(298,235,l),
(399,58,l),
(334,28,l),
(333,0,l),
(633,0,l),
(634,28,l),
(590,57,l),
(418,361,l),
(588,554,l),
(647,584,l),
(648,612,l),
(444,612,l),
(443,584,l),
(509,554,l),
(388,414,l),
(308,554,l),
(373,584,l),
(374,612,l),
(74,612,l),
(73,584,l),
(117,554,l),
(269,287,l),
(66,58,l),
(7,28,l),
(6,0,l)
);
}
);
userData = {
com.hugojourdan.ColorFlow = {
"0" = 0;
"1" = 0;
"10" = 0;
"11" = 0;
"2" = 0;
"3" = 0;
"4" = 0;
"5" = 0;
"6" = 0;
"7" = 0;
"8" = 0;
"9" = 0;
};
};
width = 642;
},
{
anchors = (
{
name = bottom;
pos = (282,-100);
},
{
name = top;
pos = (282,450);
}
);
layerId = "5B801A11-FB24-4494-9FC9-AC06A39D30E5";
shapes = (
{
closed = 1;
nodes = (
(186,0,l),
(187,15,l),
(121,57,l),
(279,284,l),
(411,58,l),
(321,15,l),
(320,0,l),
(553,0,l),
(554,15,l),
(485,58,l),
(328,326,l),
(496,558,l),
(572,597,l),
(573,612,l),
(377,612,l),
(376,597,l),
(442,555,l),
(308,360,l),
(194,554,l),
(285,597,l),
(286,612,l),
(53,612,l),
(52,597,l),
(121,554,l),
(259,318,l),
(67,53,l),
(-9,15,l),
(-10,0,l)
);
}
);
userData = {
com.hugojourdan.ColorFlow = {
"0" = 0;
"1" = 0;
"10" = 0;
"11" = 0;
"2" = 0;
"3" = 0;
"4" = 0;
"5" = 0;
"6" = 0;
"7" = 0;
"8" = 0;
"9" = 0;
};
};
width = 583;
}
);
unicode = 88;
},
{
color = 4;
glyphname = Y;
kernRight = KO_Y;
lastChange = "2024-02-12 15:03:03 +0000";
layers = (
{
anchors = (
{
name = bottom;
pos = (298,-100);
},
{
name = top;
pos = (321,450);
}
);
layerId = m001;
shapes = (
{
closed = 1;
nodes = (
(405,0,l),
(406,29,l),
(336,58,l),
(347,229,l),
(538,556,l),
(585,584,l),
(586,612,l),
(403,612,l),
(402,584,l),
(465,555,l),
(331,305,l),
(219,557,l),
(295,584,l),
(296,612,l),
(13,612,l),
(12,584,l),
(43,557,l),
(185,237,l),
(173,59,l),
(99,28,l),
(98,0,l)
);
}
);
userData = {
com.hugojourdan.ColorFlow = {
"0" = 0;
"1" = 0;
"10" = 0;
"11" = 0;
"2" = 0;
"3" = 0;
"4" = 0;
"5" = 0;
"6" = 0;
"7" = 0;
"8" = 0;
"9" = 0;
};
};
width = 540;
},
{
anchors = (
{
name = bottom;
pos = (303,-100);
},
{
name = top;
pos = (265,450);
}
);
layerId = "5B801A11-FB24-4494-9FC9-AC06A39D30E5";
shapes = (
{
closed = 1;
nodes = (
(368,0,l),
(369,13,l),
(301,58,l),
(316,276,l),
(489,555,l),
(561,597,l),
(562,612,l),
(374,612,l),
(373,597,l),
(442,554,l),
(294,314,l),
(175,554,l),
(258,597,l),
(259,612,l),
(45,612,l),
(44,597,l),
(105,554,l),
(251,270,l),
(237,58,l),
(163,15,l),
(162,0,l)
);
}
);
userData = {
com.hugojourdan.ColorFlow = {
"0" = 0;
"1" = 0;
"10" = 0;
"11" = 0;
"2" = 0;
"3" = 0;
"4" = 0;
"5" = 0;
"6" = 0;
"7" = 0;
"8" = 0;
"9" = 0;
};
};
width = 553;
}
);
unicode = 89;
},
{
color = 4;
glyphname = Z;
lastChange = "2024-02-12 15:03:03 +0000";
layers = (
{
anchors = (
{
name = bottom;
pos = (286,-100);
},
{
name = top;
pos = (296,450);
}
);
layerId = m001;
shapes = (
{
closed = 1;
nodes = (
(500,0,l),
(563,243,l),
(524,243,l),
(401,49,l),
(208,49,l),
(557,565,l),
(560,612,l),
(117,612,l),
(56,379,l),
(95,379,l),
(211,563,l),
(372,563,l),
(15,45,l),
(12,0,l)
);
}
);
userData = {
com.hugojourdan.ColorFlow = {
"0" = 0;
"1" = 0;
"10" = 0;
"11" = 0;
"2" = 0;
"3" = 0;
"4" = 0;
"5" = 0;
"6" = 0;
"7" = 0;
"8" = 0;
"9" = 0;
};
};
width = 566;
},
{
anchors = (
{
name = bottom;
pos = (243,-100);
},
{
name = top;
pos = (227,450);
}
);
layerId = "5B801A11-FB24-4494-9FC9-AC06A39D30E5";
shapes = (
{
closed = 1;
nodes = (
(411,0,l),
(451,150,l),
(430,150,l),
(336,36,l),
(107,36,l),
(458,594,l),
(459,612,l),
(106,612,l),
(69,472,l),
(92,472,l),
(179,576,l),
(375,576,l),
(28,16,l),
(28,0,l)
);
}
);
userData = {
com.hugojourdan.ColorFlow = {
"0" = 0;
"1" = 0;
"10" = 0;
"11" = 0;
"2" = 0;
"3" = 0;
"4" = 0;
"5" = 0;
"6" = 0;
"7" = 0;
"8" = 0;
"9" = 0;
};
};
width = 497;
},
{
anchors = (
{
name = bottom;
pos = (286,-100);
},
{
name = top;
pos = (296,450);
}
);
associatedMasterId = m001;
layerId = "AF30D43B-55C0-4761-AA26-6CB1FDCD5DB9";
name = "4 de oct. de 23, 10:17";
shapes = (
{
closed = 1;
nodes = (
(507,0,l),
(563,243,l),
(526,243,l),
(403,49,l),
(208,49,l),
(557,565,l),
(560,612,l),
(111,612,l),
(56,379,l),
(93,379,l),
(209,563,l),
(372,563,l),
(15,45,l),
(12,0,l)
);
}
);
width = 566;
},
{
anchors = (
{
name = bottom;
pos = (243,-100);
},
{
name = top;
pos = (227,450);
}
);
associatedMasterId = "5B801A11-FB24-4494-9FC9-AC06A39D30E5";
layerId = "F2A2B5C5-437B-46AA-BC87-FB006CA1A65A";
name = "4 de oct. de 23, 10:17";
shapes = (
{
closed = 1;
nodes = (
(411,0,l),
(451,150,l),
(430,150,l),
(336,36,l),
(107,36,l),
(458,594,l),
(459,612,l),
(100,612,l),
(69,472,l),
(90,472,l),
(177,576,l),
(375,576,l),
(28,16,l),
(28,0,l)
);
}
);
width = 497;
}
);
unicode = 90;
},
{
color = 3;
glyphname = Gsmallhook;
lastChange = "2024-02-13 20:21:41 +0000";
layers = (
{
layerId = m001;
shapes = (
{
ref = G.sc;
scale = (1,0.86);
slant = (-1,0);
},
{
closed = 1;
nodes = (
(482,540,o),
(506,572,o),
(564,572,cs),
(567,572,o),
(570,572,o),
(573,572,c),
(578,594,l),
(540,614,o),
(517,625,o),
(490,625,cs),
(458,625,o),
(418,599,o),
(414,545,cs),
(411,508,o),
(425,477,o),
(456,436,c),
(487,448,l)
);
}
);
userData = {
com.hugojourdan.ColorFlow = {
"0" = 0;
"1" = 0;
"10" = 0;
"11" = 0;
"2" = 0;
"3" = 0;
"4" = 0;
"5" = 0;
"6" = 0;
"7" = 0;
"8" = 0;
"9" = 0;
};
};
width = 521;
},
{
layerId = "5B801A11-FB24-4494-9FC9-AC06A39D30E5";
shapes = (
{
ref = G.sc;
scale = (0.98,0.94);
},
{
closed = 1;
nodes = (
(357,500,o),
(377,591,o),
(436,591,cs),
(448,591,o),
(460,588,o),
(475,583,c),
(481,603,l),
(448,615,o),
(432,625,o),
(410,625,cs),
(378,625,o),
(340,594,o),
(337,550,cs),
(334,505,o),
(357,457,o),
(390,425,c),
(412,432,l)
);
}
);
userData = {
com.hugojourdan.ColorFlow = {
"0" = 0;
"1" = 0;
"10" = 0;
"11" = 0;
"2" = 0;
"3" = 0;
"4" = 0;
"5" = 0;
"6" = 0;
"7" = 0;
"8" = 0;
"9" = 0;
};
};
width = 473;
}
);
metricRight = Gsmall;
unicode = 667;
},
{
color = 4;
glyphname = a;
kernLeft = KO_a;
kernRight = KO_a;
lastChange = "2024-02-12 15:03:03 +0000";
layers = (
{
anchors = (
{
name = bottom;
pos = (217,-100);
},
{
name = top;
pos = (329,550);
}
);
layerId = m001;
shapes = (
{
closed = 1;
nodes = (
(187,-10,o),
(243,-8,o),
(313,121,c),
(306,-1,l),
(333,-15,l),
(531,52,l),
(533,80,l),
(474,80,l),
(505,510,l),
(475,515,l),
(411,458,l),
(384,465,o),
(349,468,o),
(330,468,cs),
(192,468,o),
(37,421,o),
(24,179,cs),
(18,55,o),
(76,-10,o),
(141,-10,cs)
);
},
{
closed = 1;
nodes = (
(215,103,o),
(184,116,o),
(194,245,cs),
(201,328,o),
(210,359,o),
(232,382,cs),
(235,385,o),
(249,399,o),
(271,399,cs),
(294,399,o),
(313,393,o),
(329,383,c),
(323,276,ls),
(312,162,o),
(277,103,o),
(235,103,cs)
);
}
);
userData = {
com.hugojourdan.ColorFlow = {
"0" = 0;
"1" = 0;
"10" = 0;
"11" = 0;
"2" = 0;
"3" = 0;
"4" = 0;
"5" = 0;
"6" = 0;
"7" = 0;
"8" = 0;
"9" = 0;
};
};
width = 529;
},
{
anchors = (
{
name = bottom;
pos = (321,-100);
},
{
name = top;
pos = (222,417);
}
);
layerId = "5B801A11-FB24-4494-9FC9-AC06A39D30E5";
shapes = (
{
closed = 1;
nodes = (
(181,-5,o),
(224,36,o),
(280,135,c),
(271,12,l),
(298,-2,l),
(398,52,l),
(400,67,l),
(330,67,l),
(356,454,l),
(342,464,l),
(319,438,l),
(280,451,o),
(235,460,o),
(202,460,cs),
(133,460,o),
(53,333,o),
(43,203,cs),
(31,47,o),
(84,-5,o),
(133,-5,cs)
);
},
{
closed = 1;
nodes = (
(119,47,o),
(93,105,o),
(101,210,cs),
(108,312,o),
(125,378,o),
(141,398,cs),
(158,417,o),
(190,415,o),
(204,415,cs),
(232,415,o),
(273,403,o),
(299,386,c),
(292,291,l),
(267,97,o),
(189,47,o),
(166,47,cs)
);
}
);
userData = {
com.hugojourdan.ColorFlow = {
"0" = 0;
"1" = 0;
"10" = 0;
"11" = 0;
"2" = 0;
"3" = 0;
"4" = 0;
"5" = 0;
"6" = 0;
"7" = 0;
"8" = 0;
"9" = 0;
};
};
width = 433;
}
);
unicode = 97;
userData = {
KernOnName = a;
};
},
{
color = 3;
glyphname = "alpha-latin";
lastChange = "2024-02-13 20:21:45 +0000";
layers = (
{
anchors = (
{
name = bottom;
pos = (214,-100);
},
{
name = top;
pos = (326,550);
}
);
layerId = m001;
shapes = (
{
closed = 1;
nodes = (
(184,-10,o),
(240,-8,o),
(310,121,c),
(451,162,l),
(516,510,l),
(486,515,l),
(414,458,l),
(387,465,o),
(346,468,o),
(327,468,cs),
(189,468,o),
(34,421,o),
(21,179,cs),
(15,55,o),
(73,-10,o),
(138,-10,cs)
);
},
{
closed = 1;
nodes = (
(212,103,o),
(181,116,o),
(191,245,cs),
(198,328,o),
(207,359,o),
(229,382,cs),
(232,385,o),
(246,399,o),
(268,399,cs),
(291,399,o),
(310,393,o),
(326,383,c),
(320,276,ls),
(314,162,o),
(274,103,o),
(232,103,cs)
);
},
{
closed = 1;
nodes = (
(453,-13,o),
(491,1,o),
(524,27,c),
(527,56,l),
(479,59,o),
(460,96,o),
(464,156,cs),
(469,235,o),
(487,356,o),
(507,464,c),
(467,464,l),
(346,447,l),
(326,330,o),
(310,192,o),
(302,119,cs),
(295,46,o),
(327,-13,o),
(414,-13,cs)
);
}
);
userData = {
com.hugojourdan.ColorFlow = {
"0" = 0;
"1" = 0;
"10" = 0;
"11" = 0;
"2" = 0;
"3" = 0;
"4" = 0;
"5" = 0;
"6" = 0;
"7" = 0;
"8" = 0;
"9" = 0;
};
};
width = 546;
},
{
anchors = (
{
name = bottom;
pos = (320,-100);
},
{
name = top;
pos = (221,417);
}
);
layerId = "5B801A11-FB24-4494-9FC9-AC06A39D30E5";
shapes = (
{
closed = 1;
nodes = (
(180,-5,o),
(223,36,o),
(279,135,c),
(327,182,l),
(374,459,l),
(341,464,l),
(318,438,l),
(279,451,o),
(234,460,o),
(201,460,cs),
(132,460,o),
(52,333,o),
(42,203,cs),
(30,47,o),
(83,-5,o),
(132,-5,cs)
);
},
{
closed = 1;
nodes = (
(118,47,o),
(92,105,o),
(100,210,cs),
(107,312,o),
(124,378,o),
(140,398,cs),
(157,417,o),
(189,415,o),
(203,415,cs),
(231,415,o),
(272,403,o),
(298,386,c),
(291,291,l),
(266,97,o),
(188,47,o),
(165,47,cs)
);
},
{
closed = 1;
nodes = (
(365,-2,o),
(393,20,o),
(404,43,c),
(405,56,l),
(357,59,o),
(330,59,o),
(334,119,cs),
(341,227,o),
(357,348,o),
(374,459,c),
(361,459,l),
(312,434,l),
(294,338,o),
(281,229,o),
(276,122,cs),
(271,43,o),
(293,-2,o),
(332,-2,cs)
);
}
);
userData = {
com.hugojourdan.ColorFlow = {
"0" = 0;
"1" = 0;
"10" = 0;
"11" = 0;
"2" = 0;
"3" = 0;
"4" = 0;
"5" = 0;
"6" = 0;
"7" = 0;
"8" = 0;
"9" = 0;
};
};
width = 437;
}
);
metricLeft = alpha;
metricRight = iota;
unicode = 593;
},
{
color = 4;
glyphname = ae;
lastChange = "2024-02-12 15:03:03 +0000";
layers = (
{
anchors = (
{
name = bottom;
pos = (346,-100);
},
{
name = top;
pos = (298,450);
}
);
layerId = m001;
shapes = (
{
closed = 1;
nodes = (
(533,-18,o),
(606,18,o),
(689,111,c),
(664,153,l),
(617,105,o),
(579,81,o),
(550,81,cs),
(509,81,o),
(475,122,o),
(469,203,c),
(604,210,o),
(694,280,o),
(693,356,cs),
(692,429,o),
(628,468,o),
(536,468,cs),
(497,468,o),
(455,452,o),
(418,423,c),
(389,438,o),
(340,452,o),
(292,452,cs),
(186,452,o),
(30,413,o),
(17,179,cs),
(14,49,o),
(73,-10,o),
(139,-10,cs),
(194,-10,o),
(232,-7,o),
(307,120,c),
(325,33,o),
(384,-18,o),
(464,-18,cs)
);
},
{
closed = 1;
nodes = (
(212,103,o),
(176,116,o),
(186,215,cs),
(193,293,o),
(211,340,o),
(236,364,cs),
(248,375,o),
(263,381,o),
(278,381,cs),
(314,381,o),
(340,364,o),
(353,351,c),
(326,310,o),
(308,261,o),
(303,207,cs),
(302,200,o),
(302,194,o),
(302,188,c),
(269,111,o),
(248,103,o),
(232,103,cs)
);
},
{
closed = 1;
nodes = (
(478,381,o),
(491,410,o),
(522,410,cs),
(543,410,o),
(564,401,o),
(563,333,cs),
(562,280,o),
(525,239,o),
(469,247,c)
);
}
);
userData = {
com.hugojourdan.ColorFlow = {
"0" = 0;
"1" = 0;
"10" = 0;
"11" = 0;
"2" = 0;
"3" = 0;
"4" = 0;
"5" = 0;
"6" = 0;
"7" = 0;
"8" = 0;
"9" = 0;
};
};
width = 713;
},
{
anchors = (
{
name = bottom;
pos = (306,-100);
},
{
name = top;
pos = (386,450);
}
);
layerId = "5B801A11-FB24-4494-9FC9-AC06A39D30E5";
shapes = (
{
closed = 1;
nodes = (
(432,-10,o),
(465,-11,o),
(545,74,c),
(536,86,l),
(494,41,o),
(459,38,o),
(427,38,cs),
(380,38,o),
(344,82,o),
(354,195,c),
(480,257,o),
(561,307,o),
(562,375,cs),
(564,416,o),
(540,460,o),
(493,460,cs),
(440,460,o),
(402,441,o),
(374,414,c),
(343,428,o),
(301,431,o),
(276,431,cs),
(197,431,o),
(97,336,o),
(57,203,cs),
(19,60,o),
(41,-5,o),
(107,-5,cs),
(155,-5,o),
(224,38,o),
(295,151,c),
(295,29,o),
(339,-10,o),
(400,-10,cs)
);
},
{
closed = 1;
nodes = (
(105,47,o),
(88,121,o),
(122,237,cs),
(138,291,o),
(170,346,o),
(192,369,cs),
(211,387,o),
(245,386,o),
(259,386,cs),
(285,386,o),
(312,377,o),
(331,363,c),
(321,319,o),
(310,280,o),
(300,247,cs),
(297,239,o),
(295,231,o),
(292,224,c),
(238,74,o),
(179,47,o),
(152,47,cs)
);
},
{
closed = 1;
nodes = (
(377,354,o),
(403,429,o),
(447,429,cs),
(484,429,o),
(505,380,o),
(504,354,cs),
(503,297,o),
(456,271,o),
(358,223,c)
);
}
);
userData = {
com.hugojourdan.ColorFlow = {
"0" = 0;
"1" = 0;
"10" = 0;
"11" = 0;
"2" = 0;
"3" = 0;
"4" = 0;
"5" = 0;
"6" = 0;
"7" = 0;
"8" = 0;
"9" = 0;
};
};
width = 582;
},
{
anchors = (
{
name = bottom;
pos = (346,-100);
},
{
name = top;
pos = (298,450);
}
);
associatedMasterId = m001;
layerId = "022288D7-12DD-4B1E-9794-8455CB3E33BB";
name = "4 de oct. de 23, 10:27";
shapes = (
{
closed = 1;
nodes = (
(533,-18,o),
(606,18,o),
(689,111,c),
(664,153,l),
(617,105,o),
(579,81,o),
(550,81,cs),
(509,81,o),
(475,122,o),
(469,203,c),
(604,210,o),
(694,280,o),
(693,356,cs),
(692,429,o),
(628,468,o),
(536,468,cs),
(497,468,o),
(455,452,o),
(418,423,c),
(389,438,o),
(340,452,o),
(292,452,cs),
(186,452,o),
(30,413,o),
(17,179,cs),
(14,49,o),
(73,-10,o),
(139,-10,cs),
(194,-10,o),
(232,-7,o),
(307,120,c),
(325,33,o),
(384,-18,o),
(464,-18,cs)
);
},
{
closed = 1;
nodes = (
(212,103,o),
(176,116,o),
(186,215,cs),
(197,332,o),
(232,381,o),
(278,381,cs),
(314,381,o),
(340,364,o),
(353,351,c),
(326,310,o),
(308,261,o),
(303,207,cs),
(302,200,o),
(302,194,o),
(302,188,c),
(269,111,o),
(248,103,o),
(232,103,cs)
);
},
{
closed = 1;
nodes = (
(469,266,o),
(479,378,o),
(490,394,cs),
(498,406,o),
(515,410,o),
(529,410,cs),
(535,410,o),
(564,401,o),
(563,333,cs),
(562,280,o),
(525,239,o),
(469,247,c)
);
}
);
width = 713;
},
{
anchors = (
{
name = bottom;
pos = (306,-100);
},
{
name = top;
pos = (386,450);
}
);
associatedMasterId = "5B801A11-FB24-4494-9FC9-AC06A39D30E5";
layerId = "B291F302-68EE-4F4F-9DCD-1E8121F87C3F";
name = "4 de oct. de 23, 10:27";
shapes = (
{
closed = 1;
nodes = (
(432,-10,o),
(465,-11,o),
(545,74,c),
(536,86,l),
(494,41,o),
(459,38,o),
(427,38,cs),
(380,38,o),
(344,82,o),
(354,195,c),
(480,257,o),
(561,307,o),
(562,375,cs),
(564,416,o),
(540,460,o),
(493,460,cs),
(440,460,o),
(402,441,o),
(374,414,c),
(343,428,o),
(301,431,o),
(276,431,cs),
(197,431,o),
(97,336,o),
(57,203,cs),
(19,60,o),
(41,-5,o),
(107,-5,cs),
(155,-5,o),
(224,38,o),
(295,151,c),
(295,29,o),
(339,-10,o),
(400,-10,cs)
);
},
{
closed = 1;
nodes = (
(105,47,o),
(87,105,o),
(127,260,c),
(140,297,o),
(170,346,o),
(192,369,cs),
(211,387,o),
(245,386,o),
(259,386,cs),
(285,386,o),
(312,377,o),
(331,363,c),
(321,319,o),
(310,280,o),
(300,247,cs),
(297,239,o),
(295,231,o),
(292,224,c),
(238,74,o),
(179,47,o),
(152,47,cs)
);
},
{
closed = 1;
nodes = (
(366,297,o),
(391,401,o),
(424,423,cs),
(430,427,o),
(443,429,o),
(447,429,cs),
(484,429,o),
(505,380,o),
(504,354,cs),
(503,297,o),
(456,271,o),
(358,223,c)
);
}
);
visible = 1;
width = 582;
}
);
unicode = 230;
},
{
color = 4;
glyphname = b;
kernRight = KO_p;
lastChange = "2024-02-12 15:03:03 +0000";
layers = (
{
anchors = (
{
name = bottom;
pos = (242,-100);
},
{
name = top;
pos = (242,450);
}
);
layerId = m001;
shapes = (
{
closed = 1;
nodes = (
(126,4,l),
(143,-3,o),
(171,-8,o),
(208,-8,cs),
(326,-8,o),
(481,37,o),
(494,279,cs),
(500,403,o),
(444,468,o),
(379,468,cs),
(332,468,o),
(282,466,o),
(212,334,c),
(227,555,l),
(248,693,l),
(198,693,l),
(-6,633,l),
(-8,605,l),
(71,605,l),
(25,-52,l),
(55,-57,l)
);
},
{
closed = 1;
nodes = (
(236,59,o),
(209,70,o),
(196,98,c),
(200,146,ls),
(211,283,o),
(239,355,o),
(283,355,cs),
(303,355,o),
(334,342,o),
(324,213,cs),
(317,136,o),
(296,88,o),
(285,73,cs),
(277,62,o),
(267,59,o),
(247,59,cs)
);
}
);
userData = {
com.hugojourdan.ColorFlow = {
"0" = 0;
"1" = 0;
"10" = 0;
"11" = 0;
"2" = 0;
"3" = 0;
"4" = 0;
"5" = 0;
"6" = 0;
"7" = 0;
"8" = 0;
"9" = 0;
};
};
width = 518;
},
{
anchors = (
{
name = bottom;
pos = (223,-100);
},
{
name = top;
pos = (223,450);
}
);
layerId = "5B801A11-FB24-4494-9FC9-AC06A39D30E5";
shapes = (
{
closed = 1;
nodes = (
(105,20,l),
(145,5,o),
(195,-5,o),
(232,-5,cs),
(307,-5,o),
(388,122,o),
(398,252,cs),
(409,408,o),
(356,460,o),
(307,460,cs),
(258,460,o),
(203,420,o),
(145,319,c),
(163,576,l),
(181,693,l),
(160,693,l),
(47,638,l),
(45,624,l),
(111,624,l),
(68,1,l),
(82,-9,l)
);
},
{
closed = 1;
nodes = (
(202,40,o),
(155,53,o),
(127,68,c),
(131,135,ls),
(144,354,o),
(247,408,o),
(275,408,cs),
(322,408,o),
(347,350,o),
(340,245,cs),
(333,141,o),
(319,82,o),
(300,59,cs),
(284,40,o),
(248,40,o),
(236,40,cs)
);
}
);
userData = {
com.hugojourdan.ColorFlow = {
"0" = 0;
"1" = 0;
"10" = 0;
"11" = 0;
"2" = 0;
"3" = 0;
"4" = 0;
"5" = 0;
"6" = 0;
"7" = 0;
"8" = 0;
"9" = 0;
};
};
width = 441;
}
);
unicode = 98;
userData = {
KernOnName = b;
};
},
{
color = 3;
glyphname = bhook;
lastChange = "2024-02-13 20:21:55 +0000";
layers = (
{
layerId = m001;
shapes = (
{
closed = 1;
nodes = (
(118,4,l),
(135,-3,o),
(163,-8,o),
(200,-8,cs),
(318,-8,o),
(473,37,o),
(486,279,cs),
(492,403,o),
(436,468,o),
(371,468,cs),
(324,468,o),
(274,466,o),
(204,334,c),
(213,392,o),
(223,449,o),
(232,507,cs),
(244,583,o),
(266,589,o),
(295,589,cs),
(315,589,o),
(348,579,o),
(361,570,c),
(371,593,l),
(351,693,l),
(223,693,o),
(72,565,o),
(51,332,cs),
(17,-52,l),
(47,-57,l)
);
},
{
closed = 1;
nodes = (
(228,59,o),
(201,70,o),
(188,98,c),
(192,146,ls),
(203,283,o),
(231,355,o),
(275,355,cs),
(295,355,o),
(326,342,o),
(316,213,cs),
(309,136,o),
(292,85,o),
(276,72,c),
(271,69,o),
(267,59,o),
(239,59,cs)
);
}
);
userData = {
com.hugojourdan.ColorFlow = {
"0" = 0;
"1" = 0;
"10" = 0;
"11" = 0;
"2" = 0;
"3" = 0;
"4" = 0;
"5" = 0;
"6" = 0;
"7" = 0;
"8" = 0;
"9" = 0;
};
};
width = 510;
},
{
layerId = "5B801A11-FB24-4494-9FC9-AC06A39D30E5";
shapes = (
{
closed = 1;
nodes = (
(93,20,l),
(133,5,o),
(183,-5,o),
(220,-5,cs),
(295,-5,o),
(376,122,o),
(386,252,cs),
(397,408,o),
(344,460,o),
(295,460,cs),
(246,460,o),
(191,420,o),
(133,319,c),
(138,379,o),
(144,463,o),
(147,500,cs),
(157,608,o),
(177,637,o),
(232,637,cs),
(242,637,o),
(248,637,o),
(280,634,c),
(284,659,l),
(272,693,l),
(182,693,o),
(110,624,o),
(95,455,cs),
(56,1,l),
(70,-9,l)
);
},
{
closed = 1;
nodes = (
(190,40,o),
(143,53,o),
(115,68,c),
(119,135,ls),
(132,354,o),
(235,408,o),
(263,408,cs),
(310,408,o),
(335,350,o),
(328,245,cs),
(321,141,o),
(307,82,o),
(288,59,cs),
(272,40,o),
(236,40,o),
(224,40,cs)
);
}
);
userData = {
com.hugojourdan.ColorFlow = {
"0" = 0;
"1" = 0;
"10" = 0;
"11" = 0;
"2" = 0;
"3" = 0;
"4" = 0;
"5" = 0;
"6" = 0;
"7" = 0;
"8" = 0;
"9" = 0;
};
};
width = 429;
}
);
metricRight = b;
unicode = 595;
},
{
color = 3;
glyphname = bidentalpercussive;
lastChange = "2024-02-13 20:21:55 +0000";
layers = (
{
layerId = m001;
shapes = (
{
closed = 1;
nodes = (
(93,239,l),
(141,307,l),
(378,307,l),
(415,239,l),
(449,239,l),
(457,450,l),
(85,450,l),
(57,239,l)
);
},
{
closed = 1;
nodes = (
(73,5,l),
(120,73,l),
(357,73,l),
(395,5,l),
(429,5,l),
(437,216,l),
(65,216,l),
(37,5,l)
);
}
);
userData = {
com.hugojourdan.ColorFlow = {
"0" = 0;
"1" = 0;
"10" = 0;
"11" = 0;
"2" = 0;
"3" = 0;
"4" = 0;
"5" = 0;
"6" = 0;
"7" = 0;
"8" = 0;
"9" = 0;
};
};
width = 500;
},
{
layerId = "5B801A11-FB24-4494-9FC9-AC06A39D30E5";
shapes = (
{
closed = 1;
nodes = (
(97,317,l),
(136,388,l),
(377,388,l),
(404,317,l),
(427,317,l),
(437,450,l),
(87,450,l),
(73,317,l)
);
},
{
closed = 1;
nodes = (
(71,27,l),
(111,98,l),
(352,98,l),
(378,27,l),
(401,27,l),
(411,160,l),
(61,160,l),
(47,27,l)
);
}
);
userData = {
com.hugojourdan.ColorFlow = {
"0" = 0;
"1" = 0;
"10" = 0;
"11" = 0;
"2" = 0;
"3" = 0;
"4" = 0;
"5" = 0;
"6" = 0;
"7" = 0;
"8" = 0;
"9" = 0;
};
};
width = 481;
}
);
unicode = 685;
},
{
color = 3;
glyphname = bilabialclick;
lastChange = "2024-02-13 20:21:55 +0000";
layers = (
{
layerId = m001;
shapes = (
{
ref = O;
},
{
closed = 1;
nodes = (
(328,228,o),
(392,283,o),
(392,314,cs),
(396,347,o),
(330,388,o),
(301,388,cs),
(270,388,o),
(210,332,o),
(208,301,cs),
(206,269,o),
(270,228,o),
(299,228,cs)
);
}
);
userData = {
com.hugojourdan.ColorFlow = {
"0" = 0;
"1" = 0;
"10" = 0;
"11" = 0;
"2" = 0;
"3" = 0;
"4" = 0;
"5" = 0;
"6" = 0;
"7" = 0;
"8" = 0;
"9" = 0;
};
};
width = 589;
},
{
layerId = "5B801A11-FB24-4494-9FC9-AC06A39D30E5";
shapes = (
{
ref = O;
},
{
closed = 1;
nodes = (
(318,261,o),
(347,290,o),
(348,308,cs),
(349,325,o),
(320,348,o),
(308,348,cs),
(295,348,o),
(266,318,o),
(265,300,cs),
(263,284,o),
(292,261,o),
(306,261,cs)
);
}
);
userData = {
com.hugojourdan.ColorFlow = {
"0" = 0;
"1" = 0;
"10" = 0;
"11" = 0;
"2" = 0;
"3" = 0;
"4" = 0;
"5" = 0;
"6" = 0;
"7" = 0;
"8" = 0;
"9" = 0;
};
};
width = 621;
}
);
unicode = 664;
},
{
color = 3;
glyphname = bilabialpercussive;
lastChange = "2024-02-13 20:21:55 +0000";
layers = (
{
layerId = m001;
shapes = (
{
closed = 1;
nodes = (
(190,368,l),
(250,416,o),
(286,470,o),
(313,528,c),
(345,368,l),
(401,368,l),
(456,404,o),
(574,556,o),
(574,653,cs),
(574,671,o),
(564,693,o),
(539,693,c),
(522,689,o),
(446,653,o),
(440,645,c),
(440,626,l),
(483,631,o),
(504,621,o),
(504,595,cs),
(504,562,o),
(477,529,o),
(444,486,c),
(407,693,l),
(375,693,l),
(248,645,l),
(248,626,l),
(293,618,l),
(287,570,o),
(266,525,o),
(230,485,c),
(205,693,l),
(173,693,l),
(46,645,l),
(46,626,l),
(86,618,l),
(132,368,l)
);
},
{
closed = 1;
nodes = (
(159,-10,l),
(219,38,o),
(255,92,o),
(282,150,c),
(314,-10,l),
(370,-10,l),
(425,26,o),
(543,178,o),
(543,275,cs),
(543,293,o),
(533,315,o),
(508,315,c),
(491,311,o),
(415,275,o),
(409,267,c),
(409,248,l),
(452,253,o),
(473,243,o),
(473,217,cs),
(473,184,o),
(446,151,o),
(413,108,c),
(376,315,l),
(344,315,l),
(217,267,l),
(217,248,l),
(262,240,l),
(256,192,o),
(235,147,o),
(199,107,c),
(174,315,l),
(142,315,l),
(15,267,l),
(15,248,l),
(55,240,l),
(101,-10,l)
);
}
);
userData = {
com.hugojourdan.ColorFlow = {
"0" = 0;
"1" = 0;
"10" = 0;
"11" = 0;
"2" = 0;
"3" = 0;
"4" = 0;
"5" = 0;
"6" = 0;
"7" = 0;
"8" = 0;
"9" = 0;
};
};
width = 568;
},
{
layerId = "5B801A11-FB24-4494-9FC9-AC06A39D30E5";
shapes = (
{
closed = 1;
nodes = (
(195,373,l),
(227,411,o),
(277,480,o),
(316,559,c),
(362,373,l),
(407,373,l),
(478,410,o),
(543,559,o),
(543,659,cs),
(543,688,o),
(527,697,o),
(518,697,c),
(491,688,o),
(477,686,o),
(446,670,c),
(443,662,l),
(488,652,o),
(488,639,o),
(488,615,cs),
(488,566,o),
(465,470,o),
(400,411,c),
(338,697,l),
(327,697,l),
(248,670,l),
(245,662,l),
(291,655,l),
(280,554,o),
(209,443,o),
(190,416,c),
(149,697,l),
(140,697,l),
(39,670,l),
(38,662,l),
(108,655,l),
(149,373,l)
);
},
{
closed = 1;
nodes = (
(161,-6,l),
(193,32,o),
(243,101,o),
(282,180,c),
(328,-6,l),
(373,-6,l),
(444,31,o),
(509,180,o),
(509,280,cs),
(509,309,o),
(493,318,o),
(484,318,c),
(457,309,o),
(443,307,o),
(412,291,c),
(409,283,l),
(454,273,o),
(454,260,o),
(454,236,cs),
(454,187,o),
(431,91,o),
(366,32,c),
(304,318,l),
(293,318,l),
(214,291,l),
(211,283,l),
(257,276,l),
(246,175,o),
(175,64,o),
(156,37,c),
(115,318,l),
(106,318,l),
(5,291,l),
(4,283,l),
(74,276,l),
(115,-6,l)
);
}
);
userData = {
com.hugojourdan.ColorFlow = {
"0" = 0;
"1" = 0;
"10" = 0;
"11" = 0;
"2" = 0;
"3" = 0;
"4" = 0;
"5" = 0;
"6" = 0;
"7" = 0;
"8" = 0;
"9" = 0;
};
};
width = 537;
},
{
associatedMasterId = "5B801A11-FB24-4494-9FC9-AC06A39D30E5";
layerId = "F809C8A9-D724-43FA-B8D4-D1C8E94BCDCC";
name = "28 de sep. de 23, 9:17";
shapes = (
{
closed = 1;
nodes = (
(201,384,l),
(310,591,l),
(377,367,l),
(423,384,l),
(528,653,l),
(570,678,l),
(572,690,l),
(458,690,l),
(456,678,l),
(494,653,l),
(408,439,l),
(331,690,l),
(317,690,l),
(197,438,l),
(142,653,l),
(190,678,l),
(192,690,l),
(61,690,l),
(59,678,l),
(89,655,l),
(146,367,l)
);
},
{
closed = 1;
nodes = (
(168,9,l),
(277,216,l),
(344,-8,l),
(390,9,l),
(495,278,l),
(538,303,l),
(539,315,l),
(425,315,l),
(424,303,l),
(461,278,l),
(375,64,l),
(298,315,l),
(284,315,l),
(165,63,l),
(109,278,l),
(158,303,l),
(159,315,l),
(28,315,l),
(27,303,l),
(57,280,l),
(113,-8,l)
);
}
);
width = 600;
},
{
associatedMasterId = m001;
layerId = "BB437B98-499B-4FEA-9E3B-BBA71C33A68B";
name = "28 de sep. de 23, 9:23";
shapes = (
{
closed = 1;
nodes = (
(237,381,l),
(312,537,l),
(364,365,l),
(476,381,l),
(561,652,l),
(592,674,l),
(594,693,l),
(476,693,l),
(474,674,l),
(508,649,l),
(459,483,l),
(403,693,l),
(330,693,l),
(238,483,l),
(212,649,l),
(260,674,l),
(262,693,l),
(46,693,l),
(44,674,l),
(75,649,l),
(135,365,l)
);
},
{
closed = 1;
nodes = (
(205,6,l),
(279,162,l),
(331,-10,l),
(444,6,l),
(528,277,l),
(559,299,l),
(561,318,l),
(443,318,l),
(441,299,l),
(475,274,l),
(427,108,l),
(370,318,l),
(297,318,l),
(206,108,l),
(179,274,l),
(227,299,l),
(229,318,l),
(13,318,l),
(11,299,l),
(42,274,l),
(102,-10,l)
);
}
);
visible = 1;
width = 600;
}
);
unicode = 684;
},
{
color = 4;
glyphname = c;
kernLeft = KO_a;
kernRight = KO_c;
lastChange = "2024-02-12 15:03:03 +0000";
layers = (
{
anchors = (
{
name = bottom;
pos = (213,-100);
},
{
name = top;
pos = (206,450);
}
);
layerId = m001;
shapes = (
{
closed = 1;
nodes = (
(240,-18,o),
(301,6,o),
(382,89,c),
(359,129,l),
(324,99,o),
(295,79,o),
(268,79,cs),
(223,79,o),
(184,134,o),
(191,244,cs),
(199,359,o),
(220,414,o),
(256,414,cs),
(279,414,o),
(301,396,o),
(339,302,c),
(374,312,l),
(407,438,l),
(382,453,o),
(322,468,o),
(274,468,cs),
(146,468,o),
(36,380,o),
(24,192,cs),
(13,49,o),
(96,-18,o),
(191,-18,cs)
);
}
);
userData = {
com.hugojourdan.ColorFlow = {
"0" = 0;
"1" = 0;
"10" = 0;
"11" = 0;
"2" = 0;
"3" = 0;
"4" = 0;
"5" = 0;
"6" = 0;
"7" = 0;
"8" = 0;
"9" = 0;
};
};
width = 397;
},
{
anchors = (
{
name = bottom;
pos = (162,-100);
},
{
name = top;
pos = (174,450);
}
);
layerId = "5B801A11-FB24-4494-9FC9-AC06A39D30E5";
shapes = (
{
closed = 1;
nodes = (
(181,-10,o),
(205,-7,o),
(286,81,c),
(276,94,l),
(235,52,o),
(207,42,o),
(180,42,cs),
(130,42,o),
(91,99,o),
(103,220,cs),
(112,315,o),
(122,414,o),
(186,414,cs),
(215,414,o),
(244,399,o),
(264,386,c),
(277,388,l),
(303,433,l),
(270,461,o),
(250,460,o),
(221,460,cs),
(135,460,o),
(55,343,o),
(43,195,cs),
(32,54,o),
(85,-10,o),
(143,-10,cs)
);
}
);
userData = {
com.hugojourdan.ColorFlow = {
"0" = 0;
"1" = 0;
"10" = 0;
"11" = 0;
"2" = 0;
"3" = 0;
"4" = 0;
"5" = 0;
"6" = 0;
"7" = 0;
"8" = 0;
"9" = 0;
};
};
width = 314;
},
{
anchors = (
{
name = bottom;
pos = (213,-100);
},
{
name = top;
pos = (206,450);
}
);
associatedMasterId = m001;
layerId = "AB930716-ED43-44EF-8D1B-585898EE4093";
name = "4 de oct. de 23, 10:45";
shapes = (
{
closed = 1;
nodes = (
(240,-18,o),
(301,6,o),
(382,89,c),
(359,129,l),
(324,99,o),
(295,79,o),
(268,79,cs),
(223,79,o),
(184,134,o),
(191,244,cs),
(197,326,o),
(211,378,o),
(226,398,cs),
(235,410,o),
(246,414,o),
(260,414,cs),
(274,414,o),
(296,395,o),
(336,301,c),
(367,308,l),
(407,438,l),
(382,453,o),
(322,468,o),
(274,468,cs),
(146,468,o),
(36,380,o),
(24,192,cs),
(13,49,o),
(96,-18,o),
(191,-18,cs)
);
}
);
width = 397;
},
{
anchors = (
{
name = bottom;
pos = (162,-100);
},
{
name = top;
pos = (174,450);
}
);
associatedMasterId = "5B801A11-FB24-4494-9FC9-AC06A39D30E5";
layerId = "15C56A1D-C7C3-42FD-8065-1A581953B950";
name = "4 de oct. de 23, 10:53";
shapes = (
{
closed = 1;
nodes = (
(181,-10,o),
(205,-7,o),
(286,81,c),
(276,94,l),
(223,40,o),
(207,42,o),
(180,42,cs),
(130,42,o),
(91,99,o),
(103,220,cs),
(112,313,o),
(124,372,o),
(143,393,cs),
(160,412,o),
(179,414,o),
(186,414,cs),
(215,414,o),
(244,399,o),
(264,386,c),
(277,388,l),
(303,433,l),
(270,461,o),
(250,460,o),
(221,460,cs),
(135,460,o),
(55,343,o),
(43,195,cs),
(32,54,o),
(85,-10,o),
(143,-10,cs)
);
}
);
visible = 1;
width = 314;
}
);
unicode = 99;
userData = {
KernOnName = c;
};
},
{
color = 3;
glyphname = ccurl;
lastChange = "2024-02-13 20:21:55 +0000";
layers = (
{
layerId = m001;
shapes = (
{
closed = 1;
nodes = (
(210,49,o),
(184,134,o),
(191,244,cs),
(199,359,o),
(220,414,o),
(256,414,cs),
(279,414,o),
(301,396,o),
(339,302,c),
(374,312,l),
(407,438,l),
(382,453,o),
(322,468,o),
(274,468,cs),
(146,468,o),
(36,380,o),
(24,192,cs),
(13,49,o),
(96,-18,o),
(191,-18,cs),
(293,-18,o),
(382,31,o),
(387,106,cs),
(390,155,o),
(361,192,o),
(310,189,cs),
(248,187,o),
(212,157,o),
(71,-74,c),
(118,-93,l),
(249,121,o),
(268,136,o),
(299,136,cs),
(318,136,o),
(332,122,o),
(330,98,cs),
(328,65,o),
(295,49,o),
(274,49,cs)
);
}
);
userData = {
com.hugojourdan.ColorFlow = {
"0" = 0;
"1" = 0;
"10" = 0;
"11" = 0;
"2" = 0;
"3" = 0;
"4" = 0;
"5" = 0;
"6" = 0;
"7" = 0;
"8" = 0;
"9" = 0;
};
};
width = 397;
},
{
layerId = "5B801A11-FB24-4494-9FC9-AC06A39D30E5";
shapes = (
{
closed = 1;
nodes = (
(130,42,o),
(91,99,o),
(103,220,cs),
(112,315,o),
(122,414,o),
(186,414,cs),
(215,414,o),
(244,399,o),
(264,386,c),
(277,388,l),
(303,433,l),
(270,461,o),
(250,460,o),
(221,460,cs),
(135,460,o),
(55,343,o),
(43,195,cs),
(32,54,o),
(85,-10,o),
(143,-10,cs),
(219,-10,o),
(290,53,o),
(293,105,cs),
(296,139,o),
(270,169,o),
(236,169,cs),
(184,169,o),
(159,139,o),
(29,-77,c),
(62,-92,l),
(184,109,o),
(194,133,o),
(226,133,cs),
(240,133,o),
(254,118,o),
(253,100,cs),
(251,65,o),
(221,42,o),
(180,42,cs)
);
}
);
userData = {
com.hugojourdan.ColorFlow = {
"0" = 0;
"1" = 0;
"10" = 0;
"11" = 0;
"2" = 0;
"3" = 0;
"4" = 0;
"5" = 0;
"6" = 0;
"7" = 0;
"8" = 0;
"9" = 0;
};
};
width = 314;
}
);
metricLeft = c;
unicode = 597;
},
{
color = 3;
glyphname = chook;
lastChange = "2024-02-13 20:21:55 +0000";
layers = (
{
layerId = m001;
shapes = (
{
ref = c;
},
{
closed = 1;
nodes = (
(402,531,o),
(426,563,o),
(484,563,cs),
(487,563,o),
(490,563,o),
(493,563,c),
(498,585,l),
(460,605,o),
(437,616,o),
(410,616,cs),
(378,616,o),
(338,590,o),
(334,536,cs),
(331,499,o),
(345,468,o),
(376,427,c),
(407,439,l)
);
}
);
userData = {
com.hugojourdan.ColorFlow = {
"0" = 0;
"1" = 0;
"10" = 0;
"11" = 0;
"2" = 0;
"3" = 0;
"4" = 0;
"5" = 0;
"6" = 0;
"7" = 0;
"8" = 0;
"9" = 0;
};
};
width = 397;
},
{
layerId = "5B801A11-FB24-4494-9FC9-AC06A39D30E5";
shapes = (
{
ref = c;
},
{
closed = 1;
nodes = (
(246,503,o),
(266,594,o),
(325,594,cs),
(337,594,o),
(349,591,o),
(364,586,c),
(370,606,l),
(337,618,o),
(321,628,o),
(299,628,cs),
(267,628,o),
(229,597,o),
(226,553,cs),
(223,508,o),
(246,460,o),
(279,428,c),
(301,435,l)
);
}
);
userData = {
com.hugojourdan.ColorFlow = {
"0" = 0;
"1" = 0;
"10" = 0;
"11" = 0;
"2" = 0;
"3" = 0;
"4" = 0;
"5" = 0;
"6" = 0;
"7" = 0;
"8" = 0;
"9" = 0;
};
};
width = 314;
}
);
unicode = 392;
},
{
color = 11;
glyphname = cstretched;
lastChange = "2024-05-17 05:37:18 +0000";
layers = (
{
layerId = "5B801A11-FB24-4494-9FC9-AC06A39D30E5";
shapes = (
{
closed = 1;
nodes = (
(312,-228,o),
(342,-218,o),
(400,-190,c),
(431,-73,l),
(409,-73,l),
(325,-186,l),
(306,-189,o),
(288,-190,o),
(266,-190,cs),
(185,-190,o),
(107,-83,o),
(118,138,cs),
(129,355,o),
(199,406,o),
(276,406,cs),
(307,406,o),
(335,405,o),
(343,403,c),
(397,320,l),
(417,320,l),
(445,427,l),
(416,442,o),
(364,453,o),
(335,453,cs),
(194,453,o),
(72,353,o),
(60,125,cs),
(48,-110,o),
(128,-228,o),
(247,-228,cs)
);
}
);
userData = {
com.hugojourdan.ColorFlow = {
"0" = 0;
"1" = 0;
"10" = 0;
"11" = 0;
"2" = 0;
"3" = 0;
"4" = 0;
"5" = 0;
"6" = 0;
"7" = 0;
"8" = 0;
"9" = 0;
};
};
width = 524;
},
{
layerId = m001;
shapes = (
{
closed = 1;
nodes = (
(281,-229,o),
(346,-211,o),
(379,-194,c),
(426,-31,l),
(391,-31,l),
(309,-151,l),
(299,-154,o),
(285,-159,o),
(264,-159,cs),
(217,-159,o),
(173,-82,o),
(189,132,cs),
(199,299,o),
(231,346,o),
(263,349,cs),
(282,351,o),
(294,347,o),
(299,344,c),
(362,218,l),
(396,218,l),
(442,392,l),
(413,407,o),
(358,419,o),
(292,419,cs),
(144,419,o),
(26,289,o),
(11,100,cs),
(-7,-144,o),
(94,-229,o),
(226,-229,cs)
);
}
);
userData = {
com.hugojourdan.ColorFlow = {
"0" = 0;
"1" = 0;
"10" = 0;
"11" = 0;
"2" = 0;
"3" = 0;
"4" = 0;
"5" = 0;
"6" = 0;
"7" = 0;
"8" = 0;
"9" = 0;
};
};
width = 456;
}
);
metricLeft = C;
metricRight = C;
unicode = 663;
},
{
color = 4;
glyphname = d;
kernLeft = KO_a;
kernRight = KO_d;
lastChange = "2024-02-12 15:03:03 +0000";
layers = (
{
anchors = (
{
name = bottom;
pos = (275,-100);
},
{
name = right;
pos = (546,450);
},
{
name = top;
pos = (275,450);
}
);
layerId = m001;
shapes = (
{
closed = 1;
nodes = (
(188,-10,o),
(237,-8,o),
(307,126,c),
(298,-3,l),
(325,-17,l),
(523,50,l),
(525,80,l),
(465,80,l),
(498,555,l),
(519,693,l),
(469,693,l),
(265,633,l),
(263,605,l),
(342,605,l),
(330,468,l),
(328,468,o),
(321,468,o),
(317,468,cs),
(182,465,o),
(37,413,o),
(24,179,cs),
(18,55,o),
(76,-10,o),
(141,-10,cs)
);
},
{
closed = 1;
nodes = (
(215,103,o),
(184,116,o),
(194,245,cs),
(201,322,o),
(218,367,o),
(232,382,cs),
(237,387,o),
(249,399,o),
(271,399,cs),
(297,399,o),
(309,393,o),
(326,381,c),
(321,308,l),
(314,175,o),
(279,103,o),
(235,103,cs)
);
}
);
userData = {
com.hugojourdan.ColorFlow = {
"0" = 0;
"1" = 0;
"10" = 0;
"11" = 0;
"2" = 0;
"3" = 0;
"4" = 0;
"5" = 0;
"6" = 0;
"7" = 0;
"8" = 0;
"9" = 0;
};
};
width = 513;
},
{
anchors = (
{
name = bottom;
pos = (227,-100);
},
{
name = right;
pos = (474,450);
},
{
name = top;
pos = (227,450);
}
);
layerId = "5B801A11-FB24-4494-9FC9-AC06A39D30E5";
shapes = (
{
closed = 1;
nodes = (
(181,-5,o),
(237,36,o),
(295,136,c),
(287,13,l),
(314,-1,l),
(412,52,l),
(414,67,l),
(345,67,l),
(381,576,l),
(399,693,l),
(378,693,l),
(265,638,l),
(263,624,l),
(329,624,l),
(317,443,l),
(278,455,o),
(235,460,o),
(202,460,cs),
(133,460,o),
(53,333,o),
(43,203,cs),
(31,47,o),
(84,-5,o),
(133,-5,cs)
);
},
{
closed = 1;
nodes = (
(119,47,o),
(93,105,o),
(101,210,cs),
(108,314,o),
(122,375,o),
(141,398,cs),
(157,416,o),
(190,415,o),
(204,415,cs),
(233,415,o),
(287,400,o),
(312,381,c),
(307,306,l),
(284,100,o),
(193,47,o),
(166,47,cs)
);
}
);
userData = {
com.hugojourdan.ColorFlow = {
"0" = 0;
"1" = 0;
"10" = 0;
"11" = 0;
"2" = 0;
"3" = 0;
"4" = 0;
"5" = 0;
"6" = 0;
"7" = 0;
"8" = 0;
"9" = 0;
};
};
width = 450;
},
{
anchors = (
{
name = bottom;
pos = (275,-100);
},
{
name = right;
pos = (546,450);
},
{
name = top;
pos = (275,450);
}
);
associatedMasterId = m001;
layerId = "68676324-7F1A-4F60-9E4E-912BA4FEB34D";
name = "22 de ago. de 23, 12:26";
shapes = (
{
closed = 1;
nodes = (
(188,-10,o),
(237,-8,o),
(307,126,c),
(298,-3,l),
(325,-17,l),
(523,52,l),
(525,80,l),
(465,80,l),
(498,555,l),
(519,693,l),
(469,693,l),
(265,633,l),
(263,605,l),
(342,605,l),
(332,468,l),
(330,468,ls),
(192,468,o),
(37,421,o),
(24,179,cs),
(18,55,o),
(76,-10,o),
(141,-10,cs)
);
},
{
closed = 1;
nodes = (
(201,322,o),
(218,367,o),
(232,382,cs),
(237,387,o),
(249,399,o),
(271,399,cs),
(297,399,o),
(309,393,o),
(326,381,c),
(321,308,l),
(314,175,o),
(279,103,o),
(235,103,cs),
(215,103,o),
(184,116,o),
(194,245,cs)
);
}
);
width = 513;
}
);
unicode = 100;
},
{
color = 4;
glyphname = dcroat;
lastChange = "2024-02-12 15:03:03 +0000";
layers = (
{
layerId = m001;
shapes = (
{
closed = 1;
nodes = (
(577,496,l),
(581,560,l),
(238,560,l),
(234,496,l)
);
},
{
ref = d;
}
);
userData = {
com.hugojourdan.ColorFlow = {
"0" = 0;
"1" = 0;
"10" = 0;
"11" = 0;
"2" = 0;
"3" = 0;
"4" = 0;
"5" = 0;
"6" = 0;
"7" = 0;
"8" = 0;
"9" = 0;
};
};
width = 514;
},
{
layerId = "5B801A11-FB24-4494-9FC9-AC06A39D30E5";
shapes = (
{
closed = 1;
nodes = (
(436,525,l),
(440,560,l),
(217,560,l),
(213,525,l)
);
},
{
ref = d;
}
);
userData = {
com.hugojourdan.ColorFlow = {
"0" = 0;
"1" = 0;
"10" = 0;
"11" = 0;
"2" = 0;
"3" = 0;
"4" = 0;
"5" = 0;
"6" = 0;
"7" = 0;
"8" = 0;
"9" = 0;
};
};
width = 458;
}
);
unicode = 273;
},
{
color = 3;
glyphname = dezh;
kernLeft = KO_a;
lastChange = "2024-02-13 20:21:55 +0000";
layers = (
{
layerId = m001;
shapes = (
{
closed = 1;
nodes = (
(215,103,o),
(184,116,o),
(194,245,cs),
(201,322,o),
(218,367,o),
(232,382,cs),
(237,387,o),
(249,399,o),
(271,399,cs),
(297,399,o),
(309,393,o),
(326,381,c),
(321,308,l),
(314,175,o),
(279,103,o),
(235,103,cs)
);
},
{
closed = 1;
nodes = (
(188,-10,o),
(239,-6,o),
(309,128,c),
(300,0,l),
(345,0,l),
(461,25,l),
(498,555,l),
(519,693,l),
(469,693,l),
(265,633,l),
(263,605,l),
(342,605,l),
(330,468,l),
(328,468,o),
(321,468,o),
(317,468,cs),
(182,465,o),
(37,413,o),
(24,179,cs),
(18,55,o),
(76,-10,o),
(141,-10,cs)
);
},
{
pos = (414,0);
ref = ezh;
}
);
userData = {
com.hugojourdan.ColorFlow = {
"0" = 0;
"1" = 0;
"10" = 0;
"11" = 0;
"2" = 0;
"3" = 0;
"4" = 0;
"5" = 0;
"6" = 0;
"7" = 0;
"8" = 0;
"9" = 0;
};
};
width = 896;
},
{
layerId = "5B801A11-FB24-4494-9FC9-AC06A39D30E5";
shapes = (
{
closed = 1;
nodes = (
(119,47,o),
(93,105,o),
(101,210,cs),
(108,314,o),
(122,375,o),
(141,398,cs),
(157,416,o),
(190,415,o),
(204,415,cs),
(233,415,o),
(287,400,o),
(312,381,c),
(307,306,l),
(284,100,o),
(193,47,o),
(166,47,cs)
);
},
{
closed = 1;
nodes = (
(181,-5,o),
(237,36,o),
(295,136,c),
(284,0,l),
(295,0,l),
(341,12,l),
(381,576,l),
(399,693,l),
(378,693,l),
(265,638,l),
(263,624,l),
(329,624,l),
(317,443,l),
(278,455,o),
(235,460,o),
(202,460,cs),
(133,460,o),
(53,333,o),
(43,203,cs),
(31,47,o),
(84,-5,o),
(133,-5,cs)
);
},
{
pos = (315,0);
ref = ezh;
}
);
userData = {
com.hugojourdan.ColorFlow = {
"0" = 0;
"1" = 0;
"10" = 0;
"11" = 0;
"2" = 0;
"3" = 0;
"4" = 0;
"5" = 0;
"6" = 0;
"7" = 0;
"8" = 0;
"9" = 0;
};
};
width = 735;
}
);
metricLeft = d;
metricRight = ezh;
unicode = 676;
},
{
color = 3;
glyphname = dhook;
lastChange = "2024-02-13 20:21:55 +0000";
layers = (
{
layerId = m001;
shapes = (
{
closed = 1;
nodes = (
(188,-10,o),
(237,-8,o),
(307,126,c),
(298,-3,l),
(325,-17,l),
(523,52,l),
(525,80,l),
(465,80,l),
(475,222,o),
(491,474,o),
(493,497,cs),
(500,579,o),
(524,589,o),
(553,589,cs),
(573,589,o),
(606,579,o),
(619,570,c),
(629,593,l),
(609,693,l),
(471,693,o),
(349,542,o),
(331,467,c),
(329,467,o),
(323,468,o),
(317,468,cs),
(189,468,o),
(37,413,o),
(24,179,cs),
(18,55,o),
(76,-10,o),
(141,-10,cs)
);
},
{
closed = 1;
nodes = (
(215,103,o),
(184,116,o),
(194,245,cs),
(201,322,o),
(218,367,o),
(232,382,cs),
(237,387,o),
(249,399,o),
(271,399,cs),
(297,399,o),
(309,393,o),
(326,381,c),
(321,308,l),
(314,175,o),
(279,103,o),
(235,103,cs)
);
}
);
userData = {
com.hugojourdan.ColorFlow = {
"0" = 0;
"1" = 0;
"10" = 0;
"11" = 0;
"2" = 0;
"3" = 0;
"4" = 0;
"5" = 0;
"6" = 0;
"7" = 0;
"8" = 0;
"9" = 0;
};
};
width = 519;
},
{
layerId = "5B801A11-FB24-4494-9FC9-AC06A39D30E5";
shapes = (
{
closed = 1;
nodes = (
(181,-5,o),
(237,36,o),
(295,136,c),
(287,13,l),
(314,-1,l),
(414,52,l),
(416,67,l),
(345,67,l),
(355,211,o),
(373,455,o),
(378,530,cs),
(384,618,o),
(412,637,o),
(457,637,cs),
(467,637,o),
(472,637,o),
(504,634,c),
(508,659,l),
(496,693,l),
(421,693,o),
(323,649,o),
(317,443,c),
(278,455,o),
(235,460,o),
(202,460,cs),
(133,460,o),
(53,333,o),
(43,203,cs),
(31,47,o),
(84,-5,o),
(133,-5,cs)
);
},
{
closed = 1;
nodes = (
(119,47,o),
(93,105,o),
(101,210,cs),
(108,314,o),
(122,375,o),
(141,398,cs),
(157,416,o),
(190,415,o),
(204,415,cs),
(233,415,o),
(287,400,o),
(312,381,c),
(307,306,l),
(284,100,o),
(193,47,o),
(166,47,cs)
);
}
);
userData = {
com.hugojourdan.ColorFlow = {
"0" = 0;
"1" = 0;
"10" = 0;
"11" = 0;
"2" = 0;
"3" = 0;
"4" = 0;
"5" = 0;
"6" = 0;
"7" = 0;
"8" = 0;
"9" = 0;
};
};
width = 413;
},
{
associatedMasterId = m001;
layerId = "364EA69D-1536-4A2A-81CF-2CF560DD5D34";
name = "13 de sep. de 23, 9:21";
shapes = (
{
closed = 1;
nodes = (
(201,322,o),
(218,367,o),
(232,382,cs),
(237,387,o),
(249,399,o),
(271,399,cs),
(297,399,o),
(309,393,o),
(326,381,c),
(321,308,l),
(314,175,o),
(279,103,o),
(235,103,cs),
(215,103,o),
(184,116,o),
(194,245,cs)
);
},
{
closed = 1;
nodes = (
(503,583,o),
(524,588,o),
(549,588,cs),
(573,588,o),
(606,579,o),
(619,570,c),
(629,593,l),
(609,693,l),
(471,695,o),
(341,532,o),
(332,467,c),
(317,468,l),
(182,465,o),
(37,413,o),
(24,179,cs),
(18,55,o),
(76,-10,o),
(141,-10,cs),
(188,-10,o),
(237,-8,o),
(307,126,c),
(298,-3,l),
(325,-17,l),
(523,52,l),
(525,80,l),
(465,80,l),
(492,505,l)
);
}
);
visible = 1;
width = 513;
},
{
associatedMasterId = "5B801A11-FB24-4494-9FC9-AC06A39D30E5";
layerId = "2ADA2F9B-9379-40B2-81DB-080DC4CA08FE";
name = "13 de sep. de 23, 9:32";
shapes = (
{
closed = 1;
nodes = (
(181,-5,o),
(237,36,o),
(295,136,c),
(287,13,l),
(314,-1,l),
(414,52,l),
(416,67,l),
(345,67,l),
(355,211,o),
(373,455,o),
(378,530,cs),
(384,618,o),
(412,637,o),
(457,637,cs),
(467,637,o),
(472,637,o),
(504,634,c),
(508,659,l),
(496,693,l),
(406,693,o),
(333,624,o),
(323,513,cs),
(317,443,l),
(278,455,o),
(235,460,o),
(202,460,cs),
(133,460,o),
(53,333,o),
(43,203,cs),
(31,47,o),
(84,-5,o),
(133,-5,cs)
);
},
{
closed = 1;
nodes = (
(119,47,o),
(93,105,o),
(101,210,cs),
(108,314,o),
(122,375,o),
(141,398,cs),
(157,416,o),
(190,415,o),
(204,415,cs),
(233,415,o),
(287,400,o),
(312,381,c),
(307,306,l),
(284,100,o),
(193,47,o),
(166,47,cs)
);
}
);
visible = 1;
width = 452;
}
);
metricLeft = d;
unicode = 599;
},
{
color = 3;
glyphname = dtail;
lastChange = "2024-02-13 20:21:55 +0000";
layers = (
{
layerId = m001;
shapes = (
{
closed = 1;
nodes = (
(411,-240,o),
(460,-219,o),
(547,-138,c),
(525,-108,l),
(512,-119,o),
(495,-133,o),
(480,-133,cs),
(463,-133,o),
(449,-114,o),
(452,-78,cs),
(498,555,l),
(519,693,l),
(469,693,l),
(265,633,l),
(263,605,l),
(342,605,l),
(330,468,l),
(328,468,o),
(321,468,o),
(317,468,cs),
(182,465,o),
(37,413,o),
(24,179,cs),
(18,55,o),
(76,-10,o),
(141,-10,cs),
(188,-10,o),
(237,-8,o),
(307,126,c),
(290,-135,ls),
(286,-197,o),
(327,-240,o),
(380,-240,cs)
);
},
{
closed = 1;
nodes = (
(215,103,o),
(184,116,o),
(194,245,cs),
(201,322,o),
(218,367,o),
(232,382,cs),
(237,387,o),
(249,399,o),
(271,399,cs),
(297,399,o),
(309,393,o),
(326,381,c),
(321,308,l),
(314,175,o),
(279,103,o),
(235,103,cs)
);
}
);
userData = {
com.hugojourdan.ColorFlow = {
"0" = 0;
"1" = 0;
"10" = 0;
"11" = 0;
"2" = 0;
"3" = 0;
"4" = 0;
"5" = 0;
"6" = 0;
"7" = 0;
"8" = 0;
"9" = 0;
};
};
width = 513;
},
{
layerId = "5B801A11-FB24-4494-9FC9-AC06A39D30E5";
shapes = (
{
closed = 1;
nodes = (
(372,-227,o),
(400,-214,o),
(460,-130,c),
(449,-111,l),
(401,-167,o),
(382,-171,o),
(365,-171,cs),
(337,-171,o),
(330,-148,o),
(332,-115,cs),
(381,576,l),
(399,693,l),
(378,693,l),
(265,638,l),
(263,624,l),
(329,624,l),
(317,443,l),
(278,455,o),
(235,460,o),
(202,460,cs),
(133,460,o),
(53,333,o),
(43,203,cs),
(31,47,o),
(84,-5,o),
(133,-5,cs),
(181,-5,o),
(237,36,o),
(295,136,c),
(277,-130,ls),
(273,-192,o),
(302,-227,o),
(341,-227,cs)
);
},
{
closed = 1;
nodes = (
(119,47,o),
(93,105,o),
(101,210,cs),
(108,314,o),
(122,375,o),
(141,398,cs),
(157,416,o),
(190,415,o),
(204,415,cs),
(233,415,o),
(287,400,o),
(312,381,c),
(307,306,l),
(284,100,o),
(193,47,o),
(166,47,cs)
);
}
);
userData = {
com.hugojourdan.ColorFlow = {
"0" = 0;
"1" = 0;
"10" = 0;
"11" = 0;
"2" = 0;
"3" = 0;
"4" = 0;
"5" = 0;
"6" = 0;
"7" = 0;
"8" = 0;
"9" = 0;
};
};
width = 425;
}
);
unicode = 598;
},
{
color = 3;
glyphname = dzaltone;
kernLeft = KO_a;
lastChange = "2024-02-13 20:21:55 +0000";
layers = (
{
layerId = m001;
shapes = (
{
closed = 1;
nodes = (
(188,-10,o),
(239,-6,o),
(309,128,c),
(300,0,l),
(345,0,l),
(461,25,l),
(498,555,l),
(519,693,l),
(469,693,l),
(265,633,l),
(263,605,l),
(342,605,l),
(330,468,l),
(328,468,o),
(321,468,o),
(317,468,cs),
(182,465,o),
(37,413,o),
(24,179,cs),
(18,55,o),
(76,-10,o),
(141,-10,cs)
);
},
{
closed = 1;
nodes = (
(215,103,o),
(184,116,o),
(194,245,cs),
(201,322,o),
(218,367,o),
(232,382,cs),
(237,387,o),
(249,399,o),
(271,399,cs),
(297,399,o),
(309,393,o),
(326,381,c),
(321,308,l),
(314,175,o),
(279,103,o),
(235,103,cs)
);
},
{
closed = 1;
nodes = (
(539,3,o),
(552,6,o),
(570,6,cs),
(601,6,o),
(700,-12,o),
(760,-12,cs),
(815,-12,o),
(869,70,o),
(890,205,c),
(860,205,l),
(839,142,o),
(817,129,o),
(770,129,cs),
(739,129,o),
(701,133,o),
(653,135,c),
(893,440,l),
(861,463,l),
(848,449,o),
(823,444,o),
(798,444,cs),
(760,444,o),
(636,462,o),
(584,462,cs),
(511,462,o),
(469,381,o),
(448,253,c),
(477,253,l),
(491,311,o),
(517,328,o),
(557,328,cs),
(617,328,o),
(682,312,o),
(723,312,c),
(488,13,l),
(523,-11,l)
);
}
);
userData = {
com.hugojourdan.ColorFlow = {
"0" = 0;
"1" = 0;
"10" = 0;
"11" = 0;
"2" = 0;
"3" = 0;
"4" = 0;
"5" = 0;
"6" = 0;
"7" = 0;
"8" = 0;
"9" = 0;
};
};
width = 875;
},
{
layerId = "5B801A11-FB24-4494-9FC9-AC06A39D30E5";
shapes = (
{
closed = 1;
nodes = (
(181,-5,o),
(237,36,o),
(295,136,c),
(284,0,l),
(295,0,l),
(341,12,l),
(381,576,l),
(399,693,l),
(378,693,l),
(265,638,l),
(263,624,l),
(329,624,l),
(317,443,l),
(278,455,o),
(235,460,o),
(202,460,cs),
(133,460,o),
(53,333,o),
(43,203,cs),
(31,47,o),
(84,-5,o),
(133,-5,cs)
);
},
{
closed = 1;
nodes = (
(119,47,o),
(93,105,o),
(101,210,cs),
(108,314,o),
(122,375,o),
(141,398,cs),
(157,416,o),
(190,415,o),
(204,415,cs),
(233,415,o),
(287,400,o),
(312,381,c),
(307,306,l),
(284,100,o),
(193,47,o),
(166,47,cs)
);
},
{
closed = 1;
nodes = (
(420,3,o),
(433,6,o),
(451,6,cs),
(482,6,o),
(573,-12,o),
(633,-12,cs),
(688,-12,o),
(715,-10,o),
(736,125,c),
(722,125,l),
(701,62,o),
(679,49,o),
(632,49,cs),
(596,49,o),
(537,54,o),
(472,56,c),
(736,451,l),
(720,463,l),
(707,449,o),
(692,444,o),
(667,444,cs),
(629,444,o),
(494,462,o),
(445,462,cs),
(402,462,o),
(378,422,o),
(350,333,c),
(363,333,l),
(389,391,o),
(410,402,o),
(441,402,cs),
(493,402,o),
(602,392,o),
(654,391,c),
(390,-3,l),
(404,-11,l)
);
}
);
userData = {
com.hugojourdan.ColorFlow = {
"0" = 0;
"1" = 0;
"10" = 0;
"11" = 0;
"2" = 0;
"3" = 0;
"4" = 0;
"5" = 0;
"6" = 0;
"7" = 0;
"8" = 0;
"9" = 0;
};
};
width = 774;
}
);
metricLeft = d;
metricRight = z;
unicode = 675;
},
{
color = 3;
glyphname = dzcurl;
lastChange = "2024-02-13 20:21:55 +0000";
layers = (
{
layerId = m001;
shapes = (
{
closed = 1;
nodes = (
(188,-10,o),
(239,-6,o),
(309,128,c),
(300,0,l),
(345,0,l),
(461,25,l),
(498,555,l),
(519,693,l),
(469,693,l),
(265,633,l),
(263,605,l),
(342,605,l),
(330,468,l),
(328,468,o),
(321,468,o),
(317,468,cs),
(182,465,o),
(37,413,o),
(24,179,cs),
(18,55,o),
(76,-10,o),
(141,-10,cs)
);
},
{
closed = 1;
nodes = (
(215,103,o),
(184,116,o),
(194,245,cs),
(201,322,o),
(218,367,o),
(232,382,cs),
(237,387,o),
(249,399,o),
(271,399,cs),
(297,399,o),
(309,393,o),
(326,381,c),
(321,308,l),
(314,175,o),
(279,103,o),
(235,103,cs)
);
},
{
closed = 1;
nodes = (
(749,157,o),
(777,197,o),
(808,197,cs),
(827,197,o),
(838,184,o),
(836,165,cs),
(834,142,o),
(808,116,o),
(780,116,cs),
(749,116,o),
(701,133,o),
(653,135,c),
(893,440,l),
(861,463,l),
(848,449,o),
(823,444,o),
(798,444,cs),
(760,444,o),
(636,462,o),
(584,462,cs),
(511,462,o),
(469,381,o),
(448,253,c),
(477,253,l),
(491,311,o),
(517,328,o),
(557,328,cs),
(617,328,o),
(682,312,o),
(723,312,c),
(488,13,l),
(523,-11,l),
(539,3,o),
(552,6,o),
(570,6,cs),
(619,6,o),
(682,-18,o),
(723,-18,cs),
(797,-18,o),
(880,70,o),
(892,165,cs),
(899,222,o),
(867,259,o),
(824,257,cs),
(754,254,o),
(713,185,o),
(555,-74,c),
(602,-93,l)
);
}
);
userData = {
com.hugojourdan.ColorFlow = {
"0" = 0;
"1" = 0;
"10" = 0;
"11" = 0;
"2" = 0;
"3" = 0;
"4" = 0;
"5" = 0;
"6" = 0;
"7" = 0;
"8" = 0;
"9" = 0;
};
};
width = 896;
},
{
layerId = "5B801A11-FB24-4494-9FC9-AC06A39D30E5";
shapes = (
{
closed = 1;
nodes = (
(181,-5,o),
(237,36,o),
(295,136,c),
(284,0,l),
(295,0,l),
(341,12,l),
(381,576,l),
(399,693,l),
(378,693,l),
(265,638,l),
(263,624,l),
(329,624,l),
(317,443,l),
(278,455,o),
(235,460,o),
(202,460,cs),
(133,460,o),
(53,333,o),
(43,203,cs),
(31,47,o),
(84,-5,o),
(133,-5,cs)
);
},
{
closed = 1;
nodes = (
(119,47,o),
(93,105,o),
(101,210,cs),
(108,314,o),
(122,375,o),
(141,398,cs),
(157,416,o),
(190,415,o),
(204,415,cs),
(233,415,o),
(287,400,o),
(312,381,c),
(307,306,l),
(284,100,o),
(193,47,o),
(166,47,cs)
);
},
{
closed = 1;
nodes = (
(626,109,o),
(636,133,o),
(668,133,cs),
(682,133,o),
(696,118,o),
(695,100,cs),
(693,65,o),
(663,42,o),
(622,42,cs),
(586,42,o),
(537,54,o),
(472,56,c),
(736,451,l),
(720,463,l),
(707,449,o),
(692,444,o),
(667,444,cs),
(629,444,o),
(494,462,o),
(445,462,cs),
(402,462,o),
(378,422,o),
(350,333,c),
(363,333,l),
(389,391,o),
(410,402,o),
(441,402,cs),
(493,402,o),
(602,392,o),
(654,391,c),
(390,-3,l),
(404,-11,l),
(420,3,o),
(433,6,o),
(451,6,cs),
(482,6,o),
(525,-10,o),
(585,-10,cs),
(661,-10,o),
(732,53,o),
(735,105,cs),
(738,139,o),
(712,169,o),
(678,169,cs),
(626,169,o),
(601,139,o),
(471,-77,c),
(504,-92,l)
);
}
);
userData = {
com.hugojourdan.ColorFlow = {
"0" = 0;
"1" = 0;
"10" = 0;
"11" = 0;
"2" = 0;
"3" = 0;
"4" = 0;
"5" = 0;
"6" = 0;
"7" = 0;
"8" = 0;
"9" = 0;
};
};
width = 774;
}
);
metricLeft = d;
metricRight = zcurl;
unicode = 677;
},
{
color = 4;
glyphname = eth;
lastChange = "2024-02-12 15:03:03 +0000";
layers = (
{
layerId = m001;
shapes = (
{
closed = 1;
nodes = (
(310,-18,o),
(489,128,o),
(503,312,cs),
(513,448,o),
(463,548,o),
(371,616,c),
(427,645,l),
(432,711,l),
(316,650,l),
(265,677,o),
(206,696,o),
(140,708,c),
(111,682,l),
(158,654,o),
(198,631,o),
(230,606,c),
(127,552,l),
(122,486,l),
(273,565,l),
(294,538,o),
(310,508,o),
(320,467,c),
(311,468,o),
(302,468,o),
(294,468,cs),
(160,468,o),
(35,358,o),
(25,186,cs),
(18,81,o),
(71,-18,o),
(191,-18,cs)
);
},
{
closed = 1;
nodes = (
(223,72,o),
(185,108,o),
(200,262,cs),
(210,347,o),
(207,385,o),
(268,385,cs),
(294,385,o),
(314,381,o),
(332,372,c),
(334,333,o),
(332,288,o),
(328,235,cs),
(318,113,o),
(273,72,o),
(253,72,cs)
);
}
);
userData = {
com.hugojourdan.ColorFlow = {
"0" = 0;
"1" = 0;
"10" = 0;
"11" = 0;
"2" = 0;
"3" = 0;
"4" = 0;
"5" = 0;
"6" = 0;
"7" = 0;
"8" = 0;
"9" = 0;
};
};
width = 535;
},
{
layerId = "5B801A11-FB24-4494-9FC9-AC06A39D30E5";
shapes = (
{
closed = 1;
nodes = (
(211,-10,o),
(337,91,o),
(351,301,cs),
(359,434,o),
(331,541,o),
(266,613,c),
(368,666,l),
(371,700,l),
(245,634,l),
(204,670,o),
(152,696,o),
(89,708,c),
(82,687,l),
(138,671,o),
(180,647,o),
(211,616,c),
(66,541,l),
(63,507,l),
(230,594,l),
(260,556,o),
(277,510,o),
(286,457,c),
(273,459,o),
(260,460,o),
(251,460,cs),
(136,460,o),
(56,379,o),
(44,223,cs),
(31,54,o),
(90,-10,o),
(146,-10,cs)
);
},
{
closed = 1;
nodes = (
(119,40,o),
(89,108,o),
(96,249,cs),
(103,400,o),
(162,425,o),
(212,425,cs),
(235,425,o),
(263,416,o),
(293,398,c),
(296,348,o),
(295,293,o),
(291,235,cs),
(281,84,o),
(220,40,o),
(170,40,cs)
);
}
);
userData = {
com.hugojourdan.ColorFlow = {
"0" = 0;
"1" = 0;
"10" = 0;
"11" = 0;
"2" = 0;
"3" = 0;
"4" = 0;
"5" = 0;
"6" = 0;
"7" = 0;
"8" = 0;
"9" = 0;
};
};
width = 383;
}
);
unicode = 240;
},
{
color = 4;
glyphname = e;
kernLeft = KO_e;
kernRight = KO_e;
lastChange = "2024-02-12 15:03:03 +0000";
layers = (
{
anchors = (
{
name = bottom;
pos = (218,-100);
},
{
name = top;
pos = (293,550);
}
);
layerId = m001;
shapes = (
{
closed = 1;
nodes = (
(255,-18,o),
(318,12,o),
(409,111,c),
(384,153,l),
(336,102,o),
(290,81,o),
(266,81,cs),
(228,81,o),
(196,115,o),
(190,196,c),
(324,224,o),
(414,279,o),
(413,361,cs),
(412,429,o),
(352,468,o),
(261,468,cs),
(135,468,o),
(35,369,o),
(23,219,cs),
(9,63,o),
(69,-18,o),
(190,-18,cs)
);
},
{
closed = 1;
nodes = (
(192,318,o),
(197,372,o),
(211,397,cs),
(217,407,o),
(225,412,o),
(236,412,cs),
(260,412,o),
(284,401,o),
(283,338,cs),
(282,281,o),
(242,254,o),
(189,243,c)
);
}
);
userData = {
com.hugojourdan.ColorFlow = {
"0" = 0;
"1" = 0;
"10" = 0;
"11" = 0;
"2" = 0;
"3" = 0;
"4" = 0;
"5" = 0;
"6" = 0;
"7" = 0;
"8" = 0;
"9" = 0;
};
};
width = 433;
},
{
anchors = (
{
name = bottom;
pos = (175,-100);
},
{
name = top;
pos = (184,417);
}
);
layerId = "5B801A11-FB24-4494-9FC9-AC06A39D30E5";
shapes = (
{
closed = 1;
nodes = (
(183,-10,o),
(225,-1,o),
(292,74,c),
(283,86,l),
(243,46,o),
(221,38,o),
(181,38,cs),
(125,38,o),
(87,100,o),
(103,213,c),
(243,232,o),
(307,309,o),
(309,366,cs),
(311,416,o),
(280,460,o),
(232,460,cs),
(132,460,o),
(59,358,o),
(44,203,cs),
(30,50,o),
(93,-10,o),
(145,-10,cs)
);
},
{
closed = 1;
nodes = (
(123,344,o),
(146,392,o),
(162,411,cs),
(171,422,o),
(184,424,o),
(194,424,cs),
(230,424,o),
(252,380,o),
(251,346,cs),
(250,296,o),
(210,246,o),
(106,234,c)
);
}
);
userData = {
com.hugojourdan.ColorFlow = {
"0" = 0;
"1" = 0;
"10" = 0;
"11" = 0;
"2" = 0;
"3" = 0;
"4" = 0;
"5" = 0;
"6" = 0;
"7" = 0;
"8" = 0;
"9" = 0;
};
};
width = 329;
},
{
anchors = (
{
name = bottom;
pos = (175,-100);
},
{
name = top;
pos = (184,417);
}
);
associatedMasterId = "5B801A11-FB24-4494-9FC9-AC06A39D30E5";
layerId = "143C9B61-46C1-414C-B2A8-F3D517538098";
name = "22 de ago. de 23, 12:38";
shapes = (
{
closed = 1;
nodes = (
(183,-10,o),
(225,-1,o),
(292,74,c),
(283,86,l),
(243,46,o),
(221,38,o),
(181,38,cs),
(126,38,o),
(89,99,o),
(102,203,cs),
(103,213,l),
(243,232,o),
(307,309,o),
(309,366,cs),
(311,416,o),
(280,460,o),
(232,460,cs),
(132,460,o),
(59,358,o),
(44,203,cs),
(30,50,o),
(93,-10,o),
(145,-10,cs)
);
},
{
closed = 1;
nodes = (
(117,307,o),
(137,392,o),
(173,423,cs),
(177,426,o),
(182,425,o),
(189,425,cs),
(232,425,o),
(252,380,o),
(251,346,cs),
(250,296,o),
(210,246,o),
(106,234,c)
);
}
);
visible = 1;
width = 329;
},
{
anchors = (
{
name = bottom;
pos = (218,-100);
},
{
name = top;
pos = (293,550);
}
);
associatedMasterId = m001;
layerId = "30D88FD4-8784-4077-AB1D-0EC92E344227";
name = "22 de ago. de 23, 12:41";
shapes = (
{
closed = 1;
nodes = (
(255,-18,o),
(318,12,o),
(409,111,c),
(384,153,l),
(336,102,o),
(290,81,o),
(266,81,cs),
(228,81,o),
(196,115,o),
(190,196,c),
(324,224,o),
(414,279,o),
(413,361,cs),
(412,429,o),
(352,468,o),
(261,468,cs),
(135,468,o),
(35,369,o),
(23,219,cs),
(9,63,o),
(69,-18,o),
(190,-18,cs)
);
},
{
closed = 1;
nodes = (
(189,251,o),
(189,259,o),
(190,267,cs),
(200,393,o),
(209,391,o),
(210,396,c),
(220,407,o),
(233,412,o),
(245,412,cs),
(251,412,o),
(284,401,o),
(283,338,cs),
(282,281,o),
(242,254,o),
(189,243,c)
);
}
);
width = 433;
}
);
unicode = 101;
userData = {
KernOnName = e;
};
},
{
color = 3;
glyphname = eopen;
lastChange = "2024-02-13 20:22:23 +0000";
layers = (
{
layerId = m001;
shapes = (
{
ref = epsilon;
}
);
userData = {
com.hugojourdan.ColorFlow = {
"0" = 0;
"1" = 0;
"10" = 0;
"11" = 0;
"2" = 0;
"3" = 0;
"4" = 0;
"5" = 0;
"6" = 0;
"7" = 0;
"8" = 0;
"9" = 0;
};
};
width = 418;
},
{
layerId = "5B801A11-FB24-4494-9FC9-AC06A39D30E5";
shapes = (
{
ref = epsilon;
}
);
userData = {
com.hugojourdan.ColorFlow = {
"0" = 0;
"1" = 0;
"10" = 0;
"11" = 0;
"2" = 0;
"3" = 0;
"4" = 0;
"5" = 0;
"6" = 0;
"7" = 0;
"8" = 0;
"9" = 0;
};
};
width = 365;
},
{
associatedMasterId = "5B801A11-FB24-4494-9FC9-AC06A39D30E5";
layerId = "19CB8090-1C25-4138-91A4-6C37428C2992";
name = "28 de sep. de 23, 8:43";
shapes = (
{
closed = 1;
nodes = (
(201,-10,o),
(246,1,o),
(286,18,c),
(295,116,l),
(283,116,l),
(228,35,l),
(114,16,o),
(97,65,o),
(100,111,cs),
(104,190,o),
(163,210,o),
(197,210,cs),
(225,210,o),
(244,205,o),
(259,190,c),
(273,190,l),
(278,264,l),
(254,260,o),
(232,259,o),
(215,259,cs),
(155,259,o),
(125,300,o),
(129,352,cs),
(130,395,o),
(175,426,o),
(213,426,cs),
(241,426,o),
(254,420,o),
(263,415,c),
(289,334,l),
(301,334,l),
(327,432,l),
(293,449,o),
(262,460,o),
(219,460,cs),
(160,460,o),
(74,433,o),
(69,334,cs),
(67,296,o),
(95,247,o),
(150,239,c),
(91,232,o),
(42,181,o),
(37,123,cs),
(30,35,o),
(94,-10,o),
(158,-10,cs)
);
}
);
visible = 1;
width = 421;
},
{
associatedMasterId = m001;
layerId = "9A9E5FEF-C661-4875-85B0-5947CD9130EA";
name = "28 de sep. de 23, 8:43";
shapes = (
{
closed = 1;
nodes = (
(302,-19,o),
(357,14,o),
(387,29,c),
(412,142,l),
(389,142,l),
(343,74,l),
(338,71,o),
(315,48,o),
(263,48,cs),
(228,48,o),
(184,72,o),
(186,132,cs),
(188,182,o),
(225,209,o),
(273,209,cs),
(287,209,o),
(319,207,o),
(328,205,c),
(320,253,l),
(316,253,o),
(308,253,o),
(297,253,cs),
(247,253,o),
(217,305,o),
(218,351,cs),
(219,392,o),
(247,411,o),
(280,411,cs),
(307,411,o),
(340,401,o),
(347,398,c),
(390,346,l),
(417,346,l),
(440,444,l),
(407,451,o),
(347,463,o),
(299,463,cs),
(209,463,o),
(95,416,o),
(89,339,cs),
(85,291,o),
(105,247,o),
(189,236,c),
(125,218,o),
(47,178,o),
(44,118,cs),
(40,25,o),
(124,-19,o),
(234,-19,cs)
);
}
);
width = 465;
}
);
unicode = 603;
},
{
color = 11;
glyphname = eopenclosed;
lastChange = "2024-05-17 05:37:18 +0000";
layers = (
{
layerId = "5B801A11-FB24-4494-9FC9-AC06A39D30E5";
shapes = (
{
closed = 1;
nodes = (
(297,-10,o),
(367,101,o),
(371,227,cs),
(376,390,o),
(313,460,o),
(217,460,cs),
(126,460,o),
(54,408,o),
(52,333,cs),
(50,286,o),
(74,243,o),
(129,235,c),
(80,224,o),
(38,181,o),
(36,114,cs),
(34,37,o),
(87,-10,o),
(175,-10,cs)
);
},
{
closed = 1;
nodes = (
(113,35,o),
(97,84,o),
(97,126,cs),
(96,187,o),
(126,217,o),
(184,217,cs),
(212,217,o),
(232,205,o),
(252,190,c),
(266,190,l),
(266,266,l),
(242,262,o),
(219,261,o),
(202,261,cs),
(142,261,o),
(109,290,o),
(109,344,cs),
(109,410,o),
(154,426,o),
(199,426,cs),
(270,426,o),
(313,362,o),
(310,220,cs),
(307,73,o),
(266,35,o),
(198,35,cs)
);
}
);
userData = {
com.hugojourdan.ColorFlow = {
"0" = 0;
"1" = 0;
"10" = 0;
"11" = 0;
"2" = 0;
"3" = 0;
"4" = 0;
"5" = 0;
"6" = 0;
"7" = 0;
"8" = 0;
"9" = 0;
};
};
width = 405;
},
{
layerId = m001;
shapes = (
{
closed = 1;
nodes = (
(401,-18,o),
(487,54,o),
(499,212,cs),
(510,364,o),
(412,468,o),
(248,468,cs),
(111,468,o),
(36,412,o),
(32,346,cs),
(28,292,o),
(64,254,o),
(130,240,c),
(56,222,o),
(22,182,o),
(22,131,cs),
(18,43,o),
(124,-18,o),
(244,-18,cs)
);
},
{
closed = 1;
nodes = (
(216,41,o),
(184,75,o),
(188,136,cs),
(192,198,o),
(207,211,o),
(240,212,cs),
(265,213,o),
(279,205,o),
(284,190,c),
(310,190,l),
(312,282,l),
(297,278,o),
(290,274,o),
(265,274,cs),
(236,274,o),
(193,296,o),
(195,364,cs),
(197,403,o),
(208,423,o),
(248,423,cs),
(310,423,o),
(345,376,o),
(339,240,cs),
(332,86,o),
(298,41,o),
(256,41,cs)
);
}
);
userData = {
com.hugojourdan.ColorFlow = {
"0" = 0;
"1" = 0;
"10" = 0;
"11" = 0;
"2" = 0;
"3" = 0;
"4" = 0;
"5" = 0;
"6" = 0;
"7" = 0;
"8" = 0;
"9" = 0;
};
};
width = 527;
}
);
metricLeft = eopenreversedclosed;
metricRight = eopenreversedclosed;
unicode = 666;
},
{
color = 3;
glyphname = eopenreversed;
lastChange = "2024-02-13 20:22:23 +0000";
layers = (
{
layerId = m001;
shapes = (
{
closed = 1;
nodes = (
(274,-18,o),
(370,30,o),
(379,118,cs),
(386,169,o),
(357,222,o),
(286,240,c),
(354,254,o),
(395,292,o),
(399,346,cs),
(405,426,o),
(337,468,o),
(231,468,cs),
(177,468,o),
(107,458,o),
(60,437,c),
(66,326,l),
(107,326,l),
(155,417,l),
(162,420,o),
(178,423,o),
(193,423,cs),
(233,423,o),
(242,403,o),
(238,364,cs),
(231,296,o),
(185,274,o),
(156,274,cs),
(131,274,o),
(124,278,o),
(110,282,c),
(99,190,l),
(125,190,l),
(132,205,o),
(147,213,o),
(172,212,cs),
(205,211,o),
(219,198,o),
(215,156,cs),
(209,86,o),
(150,69,o),
(120,69,cs),
(97,69,o),
(54,86,o),
(25,123,c),
(-9,93,l),
(35,14,o),
(94,-18,o),
(173,-18,cs)
);
}
);
userData = {
com.hugojourdan.ColorFlow = {
"0" = 0;
"1" = 0;
"10" = 0;
"11" = 0;
"2" = 0;
"3" = 0;
"4" = 0;
"5" = 0;
"6" = 0;
"7" = 0;
"8" = 0;
"9" = 0;
};
};
width = 418;
},
{
layerId = "5B801A11-FB24-4494-9FC9-AC06A39D30E5";
shapes = (
{
closed = 1;
nodes = (
(250,-10,o),
(318,35,o),
(324,123,cs),
(327,181,o),
(288,232,o),
(229,239,c),
(285,247,o),
(320,296,o),
(324,334,cs),
(333,433,o),
(250,460,o),
(191,460,cs),
(148,460,o),
(116,449,o),
(79,432,c),
(92,334,l),
(104,334,l),
(146,415,l),
(156,420,o),
(178,426,o),
(206,426,cs),
(252,426,o),
(272,404,o),
(266,352,cs),
(263,300,o),
(228,261,o),
(168,261,cs),
(151,261,o),
(128,262,o),
(103,266,c),
(99,190,l),
(113,190,l),
(134,205,o),
(154,217,o),
(182,217,cs),
(240,217,o),
(267,187,o),
(263,126,cs),
(260,84,o),
(223,42,o),
(158,42,cs),
(109,42,o),
(66,75,o),
(40,115,c),
(23,98,l),
(66,25,o),
(113,-10,o),
(186,-10,cs)
);
}
);
userData = {
com.hugojourdan.ColorFlow = {
"0" = 0;
"1" = 0;
"10" = 0;
"11" = 0;
"2" = 0;
"3" = 0;
"4" = 0;
"5" = 0;
"6" = 0;
"7" = 0;
"8" = 0;
"9" = 0;
};
};
width = 365;
},
{
associatedMasterId = "5B801A11-FB24-4494-9FC9-AC06A39D30E5";
layerId = "68AF751A-A1DE-4E72-971B-2B214B2F874D";
name = "17 de oct. de 23, 11:25";
shapes = (
{
ref = epsilon;
}
);
width = 365;
},
{
associatedMasterId = m001;
layerId = "80DF24A8-27C5-4191-913D-48D9F965415C";
name = "14 de dic. de 23, 9:59";
shapes = (
{
closed = 1;
nodes = (
(281,-18,o),
(376,30,o),
(382,118,cs),
(389,189,o),
(342,225,o),
(285,240,c),
(352,254,o),
(392,292,o),
(394,346,cs),
(397,426,o),
(328,468,o),
(232,468,cs),
(163,468,o),
(87,452,o),
(52,437,c),
(62,326,l),
(103,326,l),
(148,417,l),
(155,420,o),
(171,423,o),
(186,423,cs),
(218,423,o),
(234,393,o),
(232,364,cs),
(228,296,o),
(183,274,o),
(154,274,cs),
(129,274,o),
(121,278,o),
(108,282,c),
(100,190,l),
(126,190,l),
(133,205,o),
(147,213,o),
(172,212,cs),
(205,210,o),
(233,175,o),
(230,127,cs),
(227,49,o),
(191,16,o),
(106,33,c),
(61,124,l),
(20,124,l),
(10,13,l),
(45,-2,o),
(111,-18,o),
(180,-18,cs)
);
}
);
width = 418;
}
);
unicode = 604;
},
{
color = 1;
glyphname = eopenreversedclosed;
lastChange = "2024-04-13 17:40:17 +0000";
layers = (
{
layerId = m001;
shapes = (
{
closed = 1;
nodes = (
(366,-18,o),
(480,43,o),
(489,131,cs),
(496,182,o),
(467,222,o),
(396,240,c),
(464,254,o),
(505,292,o),
(509,346,cs),
(514,412,o),
(447,468,o),
(310,468,cs),
(146,468,o),
(33,364,o),
(23,212,cs),
(13,54,o),
(89,-18,o),
(246,-18,cs)
);
},
{
closed = 1;
nodes = (
(200,41,o),
(172,86,o),
(187,240,cs),
(200,376,o),
(241,423,o),
(303,423,cs),
(343,423,o),
(352,403,o),
(348,364,cs),
(341,296,o),
(295,274,o),
(266,274,cs),
(241,274,o),
(234,278,o),
(220,282,c),
(209,190,l),
(235,190,l),
(242,205,o),
(257,213,o),
(282,212,cs),
(315,211,o),
(328,198,o),
(323,136,cs),
(319,75,o),
(282,41,o),
(242,41,cs)
);
}
);
userData = {
com.hugojourdan.ColorFlow = {
"0" = 0;
"1" = 0;
"10" = 0;
"11" = 0;
"2" = 0;
"3" = 0;
"4" = 0;
"5" = 0;
"6" = 0;
"7" = 0;
"8" = 0;
"9" = 0;
};
};
width = 528;
},
{
layerId = "5B801A11-FB24-4494-9FC9-AC06A39D30E5";
shapes = (
{
closed = 1;
nodes = (
(276,-10,o),
(354,35,o),
(366,123,cs),
(373,181,o),
(337,232,o),
(279,239,c),
(335,247,o),
(374,296,o),
(380,334,cs),
(396,433,o),
(310,460,o),
(253,460,cs),
(157,460,o),
(62,380,o),
(44,217,cs),
(29,81,o),
(86,-10,o),
(191,-10,cs)
);
},
{
closed = 1;
nodes = (
(141,25,o),
(95,105,o),
(108,240,cs),
(122,382,o),
(164,425,o),
(236,425,cs),
(290,425,o),
(331,404,o),
(322,334,cs),
(317,300,o),
(279,261,o),
(219,261,cs),
(202,261,o),
(179,262,o),
(155,266,c),
(145,190,l),
(159,190,l),
(181,205,o),
(203,217,o),
(231,217,cs),
(289,217,o),
(314,187,o),
(305,126,cs),
(299,84,o),
(275,25,o),
(210,25,cs)
);
}
);
userData = {
com.hugojourdan.ColorFlow = {
"0" = 0;
"1" = 0;
"10" = 0;
"11" = 0;
"2" = 0;
"3" = 0;
"4" = 0;
"5" = 0;
"6" = 0;
"7" = 0;
"8" = 0;
"9" = 0;
};
};
width = 407;
}
);
metricLeft = o;
metricRight = eopenreversed;
unicode = 606;
},
{
color = 3;
glyphname = eopenreversedhook;
lastChange = "2024-02-13 20:22:23 +0000";
layers = (
{
layerId = m001;
shapes = (
{
closed = 1;
nodes = (
(499,195,o),
(524,206,o),
(565,226,c),
(563,248,l),
(560,248,o),
(557,248,o),
(554,248,cs),
(496,248,o),
(476,280,o),
(494,372,c),
(465,384,l),
(428,343,o),
(410,312,o),
(408,275,cs),
(404,221,o),
(440,195,o),
(472,195,cs)
);
},
{
ref = eopenreversed;
},
{
closed = 1;
nodes = (
(462,373,l),
(494,372,l),
(505,421,l),
(481,421,l),
(326,363,l),
(332,324,l)
);
}
);
userData = {
com.hugojourdan.ColorFlow = {
"0" = 0;
"1" = 0;
"10" = 0;
"11" = 0;
"2" = 0;
"3" = 0;
"4" = 0;
"5" = 0;
"6" = 0;
"7" = 0;
"8" = 0;
"9" = 0;
};
};
width = 565;
},
{
layerId = "5B801A11-FB24-4494-9FC9-AC06A39D30E5";
shapes = (
{
closed = 1;
nodes = (
(445,190,o),
(463,200,o),
(497,212,c),
(494,232,l),
(479,227,o),
(465,224,o),
(453,224,cs),
(394,224,o),
(388,315,o),
(452,383,c),
(431,390,l),
(394,358,o),
(363,310,o),
(360,265,cs),
(357,221,o),
(391,190,o),
(423,190,cs)
);
},
{
alignment = -1;
ref = eopenreversed;
},
{
closed = 1;
nodes = (
(423,364,l),
(436,364,l),
(461,392,l),
(424,392,l),
(278,338,l),
(284,311,l)
);
}
);
userData = {
com.hugojourdan.ColorFlow = {
"0" = 0;
"1" = 0;
"10" = 0;
"11" = 0;
"2" = 0;
"3" = 0;
"4" = 0;
"5" = 0;
"6" = 0;
"7" = 0;
"8" = 0;
"9" = 0;
};
};
width = 498;
}
);
unicode = 605;
},
{
color = 3;
glyphname = ereversed;
lastChange = "2024-02-13 20:22:23 +0000";
layers = (
{
layerId = m001;
shapes = (
{
closed = 1;
nodes = (
(285,227,l),
(197,246,o),
(148,285,o),
(152,338,cs),
(155,376,o),
(169,398,o),
(190,398,cs),
(236,398,o),
(251,345,o),
(243,180,cs),
(238,74,o),
(179,54,o),
(154,54,cs),
(122,54,o),
(90,68,o),
(66,127,c),
(-2,88,l),
(34,16,o),
(84,-18,o),
(162,-18,cs),
(302,-18,o),
(402,86,o),
(409,238,cs),
(416,396,o),
(354,468,o),
(227,468,cs),
(135,468,o),
(37,413,o),
(32,333,cs),
(27,248,o),
(69,205,o),
(270,182,c)
);
}
);
userData = {
com.hugojourdan.ColorFlow = {
"0" = 0;
"1" = 0;
"10" = 0;
"11" = 0;
"2" = 0;
"3" = 0;
"4" = 0;
"5" = 0;
"6" = 0;
"7" = 0;
"8" = 0;
"9" = 0;
};
};
width = 433;
},
{
layerId = "5B801A11-FB24-4494-9FC9-AC06A39D30E5";
shapes = (
{
closed = 1;
nodes = (
(275,234,l),
(146,246,o),
(87,309,o),
(97,368,cs),
(101,394,o),
(113,425,o),
(152,425,cs),
(222,425,o),
(269,345,o),
(253,209,cs),
(240,74,o),
(213,25,o),
(140,25,cs),
(96,25,o),
(61,53,o),
(28,107,c),
(0,89,l),
(13,25,o),
(50,-10,o),
(113,-10,cs),
(205,-10,o),
(300,70,o),
(318,233,cs),
(333,369,o),
(276,460,o),
(181,460,cs),
(120,460,o),
(59,399,o),
(51,346,cs),
(37,251,o),
(121,204,o),
(267,204,c)
);
}
);
userData = {
com.hugojourdan.ColorFlow = {
"0" = 0;
"1" = 0;
"10" = 0;
"11" = 0;
"2" = 0;
"3" = 0;
"4" = 0;
"5" = 0;
"6" = 0;
"7" = 0;
"8" = 0;
"9" = 0;
};
};
width = 360;
}
);
metricRight = o;
unicode = 600;
},
{
color = 3;
glyphname = esh;
lastChange = "2024-02-13 20:22:23 +0000";
layers = (
{
layerId = m001;
shapes = (
{
pos = (-44,0);
ref = integral;
}
);
userData = {
com.hugojourdan.ColorFlow = {
"0" = 0;
"1" = 0;
"10" = 0;
"11" = 0;
"2" = 0;
"3" = 0;
"4" = 0;
"5" = 0;
"6" = 0;
"7" = 0;
"8" = 0;
"9" = 0;
};
};
width = 263;
},
{
layerId = "5B801A11-FB24-4494-9FC9-AC06A39D30E5";
shapes = (
{
pos = (-6,0);
ref = integral;
}
);
userData = {
com.hugojourdan.ColorFlow = {
"0" = 0;
"1" = 0;
"10" = 0;
"11" = 0;
"2" = 0;
"3" = 0;
"4" = 0;
"5" = 0;
"6" = 0;
"7" = 0;
"8" = 0;
"9" = 0;
};
};
width = 230;
},
{
associatedMasterId = "5B801A11-FB24-4494-9FC9-AC06A39D30E5";
layerId = "4EB11554-9295-4448-8FB7-580ABDE043A2";
name = "17 de oct. de 23, 10:58";
shapes = (
{
closed = 1;
nodes = (
(82,-235,o),
(160,-175,o),
(197,1,cs),
(318,587,ls),
(330,649,o),
(371,664,o),
(398,664,c),
(472,617,l),
(494,617,l),
(507,691,l),
(489,697,o),
(463,700,o),
(440,700,cs),
(376,700,o),
(279,660,o),
(236,451,cs),
(120,-118,ls),
(108,-175,o),
(76,-204,o),
(47,-204,c),
(2,-160,l),
(-20,-160,l),
(-37,-233,l),
(-21,-234,o),
(-15,-235,o),
(1,-235,cs)
);
}
);
width = 482;
},
{
associatedMasterId = m001;
layerId = "7E443308-2890-45F7-91D1-B02037AB8F44";
name = "17 de oct. de 23, 10:58";
shapes = (
{
closed = 1;
nodes = (
(109,-235,o),
(240,-175,o),
(277,1,cs),
(398,587,ls),
(410,649,o),
(400,659,o),
(427,659,c),
(485,606,l),
(507,606,l),
(534,702,l),
(516,708,o),
(490,711,o),
(467,711,cs),
(363,711,o),
(252,660,o),
(209,451,cs),
(93,-118,ls),
(81,-175,o),
(89,-180,o),
(52,-180,c),
(-9,-128,l),
(-39,-128,l),
(-61,-220,l),
(-37,-229,o),
(12,-235,o),
(28,-235,cs)
);
}
);
width = 557;
}
);
unicode = 643;
},
{
color = 11;
glyphname = eshcurl;
lastChange = "2024-05-17 05:37:18 +0000";
layers = (
{
layerId = "5B801A11-FB24-4494-9FC9-AC06A39D30E5";
shapes = (
{
closed = 1;
nodes = (
(163,-230,o),
(246,-174,o),
(256,-8,cs),
(267,169,o),
(260,345,o),
(272,516,cs),
(279,618,o),
(316,667,o),
(371,664,c),
(433,617,l),
(455,617,l),
(473,692,l),
(455,698,o),
(431,701,o),
(408,701,cs),
(316,701,o),
(214,635,o),
(203,480,cs),
(191,300,o),
(200,114,o),
(185,-71,cs),
(179,-146,o),
(148,-196,o),
(107,-196,cs),
(81,-196,o),
(65,-178,o),
(67,-154,cs),
(69,-126,o),
(97,-101,o),
(157,-101,cs),
(224,-101,o),
(260,-109,o),
(324,-124,c),
(326,-90,l),
(267,-73,o),
(228,-67,o),
(157,-67,cs),
(86,-67,o),
(30,-101,o),
(27,-155,cs),
(23,-203,o),
(65,-230,o),
(111,-230,cs)
);
}
);
userData = {
com.hugojourdan.ColorFlow = {
"0" = 0;
"1" = 0;
"10" = 0;
"11" = 0;
"2" = 0;
"3" = 0;
"4" = 0;
"5" = 0;
"6" = 0;
"7" = 0;
"8" = 0;
"9" = 0;
};
};
width = 440;
},
{
layerId = m001;
shapes = (
{
closed = 1;
nodes = (
(168,-235,o),
(322,-113,o),
(331,27,cs),
(341,170,o),
(340,318,o),
(343,480,cs),
(346,650,o),
(348,661,o),
(357,661,c),
(449,603,l),
(471,603,l),
(495,703,l),
(476,709,o),
(442,712,o),
(419,712,cs),
(290,712,o),
(182,633,o),
(173,480,cs),
(163,301,o),
(163,116,o),
(155,-66,cs),
(149,-146,o),
(129,-189,o),
(86,-189,cs),
(62,-189,o),
(46,-173,o),
(48,-144,cs),
(51,-91,o),
(110,-50,o),
(312,-52,cs),
(343,-52,o),
(366,-54,o),
(391,-56,c),
(395,-8,l),
(371,-6,o),
(347,-5,o),
(315,-5,cs),
(49,-6,o),
(-2,-80,o),
(-7,-149,cs),
(-11,-208,o),
(51,-235,o),
(86,-235,cs)
);
}
);
userData = {
com.hugojourdan.ColorFlow = {
"0" = 0;
"1" = 0;
"10" = 0;
"11" = 0;
"2" = 0;
"3" = 0;
"4" = 0;
"5" = 0;
"6" = 0;
"7" = 0;
"8" = 0;
"9" = 0;
};
};
width = 462;
}
);
unicode = 646;
},
{
color = 11;
glyphname = eshsquatreversed;
lastChange = "2024-05-17 05:37:18 +0000";
layers = (
{
layerId = "5B801A11-FB24-4494-9FC9-AC06A39D30E5";
shapes = (
{
closed = 1;
nodes = (
(347,-235,o),
(357,-235,o),
(377,-233,c),
(368,-154,l),
(343,-154,l),
(308,-189,l),
(259,-193,o),
(225,-140,o),
(231,-56,cs),
(237,30,o),
(248,114,o),
(257,239,cs),
(269,415,o),
(208,460,o),
(83,460,cs),
(60,460,o),
(36,457,o),
(16,451,c),
(24,376,l),
(58,376,l),
(96,413,l),
(149,413,o),
(205,397,o),
(193,275,cs),
(182,159,o),
(175,82,o),
(169,1,cs),
(161,-118,o),
(164,-235,o),
(331,-235,cs)
);
}
);
userData = {
com.hugojourdan.ColorFlow = {
"0" = 0;
"1" = 0;
"10" = 0;
"11" = 0;
"2" = 0;
"3" = 0;
"4" = 0;
"5" = 0;
"6" = 0;
"7" = 0;
"8" = 0;
"9" = 0;
};
};
width = 409;
},
{
layerId = m001;
shapes = (
{
closed = 1;
nodes = (
(359,-235,o),
(409,-226,o),
(429,-219,c),
(418,-122,l),
(398,-122,l),
(318,-167,l),
(291,-166,o),
(275,-131,o),
(280,-56,cs),
(288,64,o),
(297,117,o),
(306,237,cs),
(318,390,o),
(269,469,o),
(94,469,cs),
(71,469,o),
(36,466,o),
(16,460,c),
(26,360,l),
(48,360,l),
(115,399,l),
(142,397,o),
(153,407,o),
(136,237,cs),
(126,134,o),
(123,98,o),
(114,-5,cs),
(99,-166,o),
(200,-235,o),
(343,-235,cs)
);
}
);
userData = {
com.hugojourdan.ColorFlow = {
"0" = 0;
"1" = 0;
"10" = 0;
"11" = 0;
"2" = 0;
"3" = 0;
"4" = 0;
"5" = 0;
"6" = 0;
"7" = 0;
"8" = 0;
"9" = 0;
};
};
width = 460;
}
);
unicode = 645;
},
{
color = 3;
glyphname = schwahook;
lastChange = "2024-02-13 20:22:23 +0000";
layers = (
{
layerId = m001;
shapes = (
{
ref = schwa;
},
{
closed = 1;
nodes = (
(514,105,o),
(539,116,o),
(580,136,c),
(578,158,l),
(575,158,o),
(572,158,o),
(569,158,cs),
(511,158,o),
(491,190,o),
(509,282,c),
(480,294,l),
(443,253,o),
(425,222,o),
(423,185,cs),
(419,131,o),
(455,105,o),
(487,105,cs)
);
},
{
closed = 1;
nodes = (
(477,283,l),
(509,282,l),
(520,331,l),
(496,331,l),
(341,273,l),
(347,234,l)
);
}
);
userData = {
com.hugojourdan.ColorFlow = {
"0" = 0;
"1" = 0;
"10" = 0;
"11" = 0;
"2" = 0;
"3" = 0;
"4" = 0;
"5" = 0;
"6" = 0;
"7" = 0;
"8" = 0;
"9" = 0;
};
};
width = 586;
},
{
layerId = "5B801A11-FB24-4494-9FC9-AC06A39D30E5";
shapes = (
{
ref = schwa;
},
{
closed = 1;
nodes = (
(405,90,o),
(423,100,o),
(457,112,c),
(454,132,l),
(439,127,o),
(425,124,o),
(413,124,cs),
(354,124,o),
(348,215,o),
(412,283,c),
(391,290,l),
(354,258,o),
(323,210,o),
(320,165,cs),
(317,121,o),
(351,90,o),
(383,90,cs)
);
},
{
closed = 1;
nodes = (
(383,264,l),
(396,264,l),
(421,292,l),
(384,292,l),
(238,238,l),
(244,211,l)
);
}
);
userData = {
com.hugojourdan.ColorFlow = {
"0" = 0;
"1" = 0;
"10" = 0;
"11" = 0;
"2" = 0;
"3" = 0;
"4" = 0;
"5" = 0;
"6" = 0;
"7" = 0;
"8" = 0;
"9" = 0;
};
};
width = 465;
}
);
metricLeft = schwa;
unicode = 602;
},
{
color = 3;
glyphname = ezh;
lastChange = "2024-02-13 20:22:23 +0000";
layers = (
{
layerId = m001;
shapes = (
{
closed = 1;
nodes = (
(301,-209,o),
(429,-116,o),
(437,-2,cs),
(443,85,o),
(382,169,o),
(268,190,c),
(482,403,l),
(471,453,l),
(448,443,o),
(422,436,o),
(398,436,cs),
(360,436,o),
(258,460,o),
(214,460,cs),
(107,460,o),
(62,376,o),
(31,237,c),
(61,237,l),
(87,300,o),
(112,321,o),
(169,321,cs),
(207,321,o),
(246,320,o),
(309,318,c),
(97,108,l),
(101,79,l),
(110,82,o),
(133,89,o),
(154,89,cs),
(218,89,o),
(271,22,o),
(266,-51,cs),
(261,-116,o),
(217,-146,o),
(138,-146,cs),
(133,-146,o),
(127,-146,o),
(122,-146,c),
(63,-26,l),
(11,-26,l),
(-29,-195,l),
(14,-205,o),
(79,-209,o),
(152,-209,cs)
);
}
);
userData = {
com.hugojourdan.ColorFlow = {
"0" = 0;
"1" = 0;
"10" = 0;
"11" = 0;
"2" = 0;
"3" = 0;
"4" = 0;
"5" = 0;
"6" = 0;
"7" = 0;
"8" = 0;
"9" = 0;
};
};
width = 482;
},
{
layerId = "5B801A11-FB24-4494-9FC9-AC06A39D30E5";
shapes = (
{
closed = 1;
nodes = (
(268,-210,o),
(361,-115,o),
(367,-19,cs),
(373,70,o),
(320,157,o),
(173,166,c),
(411,438,l),
(396,458,l),
(385,450,o),
(363,440,o),
(340,440,cs),
(307,440,o),
(216,456,o),
(134,456,cs),
(97,456,o),
(65,455,o),
(34,321,c),
(48,321,l),
(74,384,o),
(96,398,o),
(140,398,cs),
(188,398,o),
(276,389,o),
(321,388,c),
(85,113,l),
(91,109,l),
(109,111,o),
(124,110,o),
(138,110,cs),
(234,110,o),
(293,39,o),
(288,-41,cs),
(282,-120,o),
(226,-183,o),
(106,-183,cs),
(99,-183,o),
(89,-183,o),
(83,-182,c),
(22,-121,l),
(1,-121,l),
(-17,-196,l),
(25,-206,o),
(57,-210,o),
(103,-210,cs)
);
}
);
userData = {
com.hugojourdan.ColorFlow = {
"0" = 0;
"1" = 0;
"10" = 0;
"11" = 0;
"2" = 0;
"3" = 0;
"4" = 0;
"5" = 0;
"6" = 0;
"7" = 0;
"8" = 0;
"9" = 0;
};
};
width = 420;
},
{
associatedMasterId = m001;
layerId = "ADD01B67-DA40-4950-B7A2-A38A63367DCB";
name = "15 de sep. de 23, 8:20";
shapes = (
{
closed = 1;
nodes = (
(428,-239,o),
(493,-131,o),
(489,14,c),
(489,59,o),
(451,120,o),
(389,159,o),
(316,180,o),
(284,182,q),
(542,373,l),
(567,450,l),
(135,450,l),
(30,235,l),
(95,235,l),
(128,287,o),
(163,308,o),
(203,308,q),
(372,308,l),
(151,160,l),
(143,124,l),
(195,124,l),
(225,124,o),
(274,101,o),
(302,50,o),
(302,5,q),
(302,-46,o),
(278,-120,o),
(239,-167,o),
(192,-189,o),
(171,-189,q),
(135,-189,o),
(101,-152,o),
(93,-95,o),
(95,-66,q),
(39,-66,o),
(-30,-101,o),
(-30,-142,q),
(-30,-167,o),
(8,-212,o),
(90,-240,o),
(155,-240,q)
);
}
);
width = 600;
},
{
associatedMasterId = "5B801A11-FB24-4494-9FC9-AC06A39D30E5";
layerId = "0D59FEE7-6886-4D8B-9069-D53E548DD779";
name = "15 de sep. de 23, 8:52";
shapes = (
{
closed = 1;
nodes = (
(301,-168,o),
(370,-62,o),
(370,16,qs),
(370,54,o),
(344,113,o),
(296,156,o),
(230,180,o),
(190,182,q),
(429,410,l),
(435,450,l),
(98,450,l),
(63,314,l),
(107,314,l),
(112,327,ls),
(119,346,o),
(136,370,o),
(163,381,o),
(184,381,qs),
(340,381,l),
(121,173,l),
(114,137,l),
(131,137,ls),
(182,137,o),
(249,107,o),
(284,52,o),
(284,13,qs),
(284,-23,o),
(264,-92,o),
(225,-146,o),
(165,-178,o),
(124,-178,qs),
(80,-178,o),
(32,-144,o),
(13,-92,o),
(12,-67,q),
(-18,-67,o),
(-61,-99,o),
(-61,-131,qs),
(-61,-152,o),
(-25,-193,o),
(55,-220,o),
(121,-220,qs),
(188,-220,o)
);
}
);
width = 600;
},
{
associatedMasterId = "5B801A11-FB24-4494-9FC9-AC06A39D30E5";
layerId = "6A2CE729-43DA-4544-A67D-D174404CC4AE";
name = "15 de sep. de 23, 8:53";
shapes = (
{
closed = 1;
nodes = (
(217,179,o),
(396,391,o),
(485,438,c),
(470,458,l),
(445,446,o),
(422,440,o),
(398,440,cs),
(360,440,o),
(247,456,o),
(165,456,cs),
(128,456,o),
(96,455,o),
(65,321,c),
(79,321,l),
(105,384,o),
(127,398,o),
(171,398,cs),
(219,398,o),
(302,393,o),
(374,392,c),
(333,352,o),
(163,181,o),
(156,122,c),
(140,81,l),
(157,83,o),
(172,83,o),
(187,83,cs),
(310,83,o),
(354,15,o),
(350,-53,cs),
(343,-145,o),
(293,-186,o),
(165,-192,cs),
(156,-193,o),
(147,-193,o),
(137,-193,c),
(76,-137,l),
(58,-137,l),
(38,-206,l),
(76,-220,o),
(123,-220,o),
(164,-220,cs),
(300,-220,o),
(421,-136,o),
(426,-46,cs),
(432,48,o),
(373,96,o),
(284,112,cs),
(259,117,o),
(234,116,o),
(209,118,c)
);
}
);
width = 600;
},
{
associatedMasterId = m001;
layerId = "F034F0D0-F7B1-4CF4-823E-90F9093F88CC";
name = "14 de dic. de 23, 22:17";
shapes = (
{
closed = 1;
nodes = (
(350,-220,o),
(502,-109,o),
(507,-10,cs),
(513,89,o),
(463,187,o),
(266,193,cs),
(262,193,o),
(257,193,o),
(253,193,c),
(313,238,o),
(462,348,o),
(533,403,c),
(522,453,l),
(499,443,o),
(473,436,o),
(449,436,cs),
(411,436,o),
(222,460,o),
(178,460,cs),
(71,460,o),
(26,376,o),
(-5,237,c),
(25,237,l),
(51,300,o),
(76,321,o),
(133,321,cs),
(171,321,o),
(269,318,o),
(332,316,c),
(241,254,o),
(165,193,o),
(102,149,c),
(92,90,l),
(117,99,o),
(157,107,o),
(199,107,cs),
(289,107,o),
(357,44,o),
(351,-23,cs),
(345,-99,o),
(308,-141,o),
(241,-141,cs),
(205,-141,o),
(173,-138,o),
(117,-124,c),
(62,-42,l),
(34,-42,l),
(-5,-179,l),
(42,-198,o),
(115,-217,o),
(196,-218,cs)
);
}
);
width = 548;
}
);
unicode = 658;
},
{
color = 11;
glyphname = ezhcurl;
lastChange = "2024-05-17 05:37:18 +0000";
layers = (
{
layerId = "5B801A11-FB24-4494-9FC9-AC06A39D30E5";
shapes = (
{
closed = 1;
nodes = (
(259,-210,o),
(352,-115,o),
(359,-19,cs),
(365,70,o),
(311,157,o),
(165,166,c),
(388,423,l),
(390,450,l),
(49,450,l),
(13,300,l),
(39,300,l),
(106,389,l),
(312,388,l),
(77,113,l),
(83,109,l),
(101,111,o),
(116,110,o),
(130,110,cs),
(226,110,o),
(285,39,o),
(279,-41,cs),
(274,-120,o),
(216,-176,o),
(96,-176,cs),
(54,-176,o),
(11,-149,o),
(15,-104,cs),
(16,-80,o),
(37,-63,o),
(71,-63,cs),
(85,-63,o),
(120,-72,o),
(254,-229,c),
(287,-204,l),
(146,-37,o),
(111,-27,o),
(73,-26,cs),
(24,-25,o),
(-19,-60,o),
(-23,-108,cs),
(-27,-174,o),
(28,-210,o),
(94,-210,cs)
);
}
);
userData = {
com.hugojourdan.ColorFlow = {
"0" = 0;
"1" = 0;
"10" = 0;
"11" = 0;
"2" = 0;
"3" = 0;
"4" = 0;
"5" = 0;
"6" = 0;
"7" = 0;
"8" = 0;
"9" = 0;
};
};
width = 376;
},
{
layerId = m001;
shapes = (
{
closed = 1;
nodes = (
(319,-208,o),
(446,-116,o),
(446,-2,cs),
(446,85,o),
(379,169,o),
(263,190,c),
(463,403,l),
(463,450,l),
(38,450,l),
(0,231,l),
(26,231,l),
(87,314,l),
(284,314,l),
(98,108,l),
(104,79,l),
(113,82,o),
(136,89,o),
(157,89,cs),
(221,89,o),
(278,22,o),
(270,-51,cs),
(270,-116,o),
(217,-146,o),
(134,-146,cs),
(90,-146,o),
(44,-126,o),
(44,-94,cs),
(44,-67,o),
(70,-56,o),
(94,-56,cs),
(131,-56,o),
(174,-91,o),
(383,-216,c),
(418,-173,l),
(204,-28,o),
(159,-2,o),
(89,-2,cs),
(32,-2,o),
(-15,-42,o),
(-15,-94,cs),
(-15,-153,o),
(36,-210,o),
(162,-209,cs)
);
}
);
userData = {
com.hugojourdan.ColorFlow = {
"0" = 0;
"1" = 0;
"10" = 0;
"11" = 0;
"2" = 0;
"3" = 0;
"4" = 0;
"5" = 0;
"6" = 0;
"7" = 0;
"8" = 0;
"9" = 0;
};
};
width = 462;
}
);
unicode = 659;
},
{
color = 4;
glyphname = f;
kernLeft = KO_f;
lastChange = "2024-02-12 15:03:03 +0000";
layers = (
{
anchors = (
{
name = bottom;
pos = (122,-100);
},
{
name = top;
pos = (122,450);
}
);
layerId = m001;
shapes = (
{
closed = 1;
nodes = (
(50,-229,o),
(195,-76,o),
(201,57,cs),
(216,399,l),
(230,399,l),
(303,388,l),
(323,455,l),
(232,450,l),
(218,450,l),
(222,547,ls),
(224,604,o),
(248,604,o),
(266,604,cs),
(276,604,o),
(300,599,o),
(324,587,c),
(334,610,l),
(314,708,l),
(201,708,o),
(81,560,o),
(60,450,c),
(-1,450,l),
(-4,399,l),
(56,399,l),
(35,-68,ls),
(32,-125,o),
(14,-136,o),
(-25,-136,cs),
(-44,-136,o),
(-67,-127,o),
(-80,-121,c),
(-89,-142,l),
(-71,-240,l)
);
}
);
userData = {
com.hugojourdan.ColorFlow = {
"0" = 0;
"1" = 0;
"10" = 0;
"11" = 0;
"2" = 0;
"3" = 0;
"4" = 0;
"5" = 0;
"6" = 0;
"7" = 0;
"8" = 0;
"9" = 0;
};
};
width = 286;
},
{
anchors = (
{
name = bottom;
pos = (151,-100);
},
{
name = top;
pos = (151,450);
}
);
layerId = "5B801A11-FB24-4494-9FC9-AC06A39D30E5";
shapes = (
{
closed = 1;
nodes = (
(79,-200,o),
(138,-132,o),
(145,-2,cs),
(167,420,l),
(203,420,l),
(274,417,l),
(283,455,l),
(208,450,l),
(168,450,l),
(171,504,ls),
(177,604,o),
(195,652,o),
(282,652,cs),
(303,652,o),
(317,653,o),
(353,648,c),
(358,674,l),
(346,708,l),
(249,708,o),
(109,647,o),
(109,450,c),
(58,450,l),
(55,420,l),
(107,420,l),
(83,-41,ls),
(78,-144,o),
(43,-171,o),
(10,-171,cs),
(-2,-171,o),
(-11,-172,o),
(-50,-167,c),
(-54,-193,l),
(-42,-227,l)
);
}
);
userData = {
com.hugojourdan.ColorFlow = {
"0" = 0;
"1" = 0;
"10" = 0;
"11" = 0;
"2" = 0;
"3" = 0;
"4" = 0;
"5" = 0;
"6" = 0;
"7" = 0;
"8" = 0;
"9" = 0;
};
};
width = 262;
},
{
anchors = (
{
name = bottom;
pos = (151,-100);
},
{
name = top;
pos = (151,450);
}
);
associatedMasterId = "5B801A11-FB24-4494-9FC9-AC06A39D30E5";
layerId = "78BD1C5B-5B48-4EF6-8FAA-E731A4DEF41F";
name = "23 de ago. de 23, 10:02";
shapes = (
{
closed = 1;
nodes = (
(79,-200,o),
(139,-132,o),
(145,-2,cs),
(167,420,l),
(203,420,l),
(284,417,l),
(283,455,l),
(208,450,l),
(168,450,l),
(171,504,ls),
(176,604,o),
(195,652,o),
(282,652,cs),
(303,652,o),
(317,653,o),
(353,648,c),
(358,674,l),
(346,708,l),
(245,708,o),
(118,640,o),
(110,478,cs),
(109,450,l),
(58,450,l),
(55,420,l),
(107,420,l),
(83,-41,ls),
(79,-144,o),
(43,-171,o),
(10,-171,cs),
(-2,-171,o),
(-11,-172,o),
(-50,-167,c),
(-54,-193,l),
(-42,-227,l)
);
}
);
visible = 1;
width = 262;
},
{
anchors = (
{
name = bottom;
pos = (122,-100);
},
{
name = top;
pos = (122,450);
}
);
associatedMasterId = m001;
layerId = "9DA2C159-D7EB-457E-8670-C52B414F5327";
name = "5 de oct. de 23, 9:36";
shapes = (
{
closed = 1;
nodes = (
(50,-229,o),
(195,-76,o),
(201,57,cs),
(216,399,l),
(230,399,l),
(303,388,l),
(323,455,l),
(232,450,l),
(218,450,l),
(222,547,ls),
(224,604,o),
(248,604,o),
(266,604,cs),
(276,604,o),
(300,599,o),
(324,587,c),
(334,610,l),
(314,708,l),
(201,708,o),
(81,560,o),
(60,450,c),
(-1,450,l),
(-4,399,l),
(56,399,l),
(35,-68,ls),
(32,-125,o),
(14,-136,o),
(-25,-136,cs),
(-44,-136,o),
(-77,-127,o),
(-80,-121,c),
(-89,-142,l),
(-71,-240,l)
);
}
);
width = 286;
}
);
unicode = 102;
userData = {
KernOnName = f;
};
},
{
color = 3;
glyphname = fengdigraph;
lastChange = "2024-02-13 20:22:23 +0000";
layers = (
{
layerId = m001;
shapes = (
{
closed = 1;
nodes = (
(50,-229,o),
(195,-76,o),
(201,57,cs),
(216,399,l),
(250,399,l),
(320,356,l),
(294,0,l),
(339,0,l),
(455,25,l),
(464,150,l),
(474,294,o),
(514,355,o),
(557,355,cs),
(583,355,o),
(587,333,o),
(582,256,c),
(571,165,o),
(568,82,o),
(552,-54,cs),
(542,-130,o),
(515,-136,o),
(486,-136,cs),
(466,-136,o),
(433,-126,o),
(420,-117,c),
(410,-140,l),
(430,-240,l),
(558,-240,o),
(710,-112,o),
(730,121,cs),
(732,145,o),
(739,190,o),
(748,301,cs),
(758,408,o),
(716,468,o),
(639,468,cs),
(575,468,o),
(531,434,o),
(477,337,c),
(486,468,l),
(445,468,l),
(252,450,l),
(218,450,l),
(222,547,ls),
(224,604,o),
(248,604,o),
(266,604,cs),
(276,604,o),
(300,599,o),
(324,587,c),
(334,610,l),
(314,708,l),
(201,708,o),
(81,560,o),
(60,450,c),
(-1,450,l),
(-4,399,l),
(56,399,l),
(35,-68,ls),
(32,-125,o),
(14,-136,o),
(-25,-136,cs),
(-44,-136,o),
(-67,-127,o),
(-80,-121,c),
(-89,-142,l),
(-71,-240,l)
);
}
);
userData = {
com.hugojourdan.ColorFlow = {
"0" = 0;
"1" = 0;
"10" = 0;
"11" = 0;
"2" = 0;
"3" = 0;
"4" = 0;
"5" = 0;
"6" = 0;
"7" = 0;
"8" = 0;
"9" = 0;
};
};
width = 776;
},
{
layerId = "5B801A11-FB24-4494-9FC9-AC06A39D30E5";
shapes = (
{
closed = 1;
nodes = (
(79,-200,o),
(138,-132,o),
(145,-2,cs),
(167,420,l),
(253,420,l),
(339,399,l),
(310,0,l),
(320,0,l),
(367,12,l),
(379,169,l),
(401,341,o),
(489,408,o),
(517,408,cs),
(551,408,o),
(574,384,o),
(563,256,cs),
(553,160,o),
(543,63,o),
(533,-33,cs),
(522,-141,o),
(505,-170,o),
(450,-170,cs),
(440,-170,o),
(434,-170,o),
(402,-167,c),
(398,-192,l),
(410,-226,l),
(500,-226,o),
(570,-151,o),
(590,17,cs),
(600,97,o),
(610,178,o),
(620,258,c),
(633,408,o),
(612,460,o),
(548,460,cs),
(510,460,o),
(447,427,o),
(389,304,c),
(401,460,l),
(389,460,l),
(258,450,l),
(168,450,l),
(171,504,ls),
(177,604,o),
(195,652,o),
(282,652,cs),
(303,652,o),
(317,653,o),
(353,648,c),
(358,674,l),
(346,708,l),
(249,708,o),
(109,647,o),
(109,450,c),
(58,450,l),
(55,420,l),
(107,420,l),
(83,-41,ls),
(78,-144,o),
(43,-171,o),
(10,-171,cs),
(-2,-171,o),
(-11,-172,o),
(-50,-167,c),
(-54,-193,l),
(-42,-227,l)
);
}
);
userData = {
com.hugojourdan.ColorFlow = {
"0" = 0;
"1" = 0;
"10" = 0;
"11" = 0;
"2" = 0;
"3" = 0;
"4" = 0;
"5" = 0;
"6" = 0;
"7" = 0;
"8" = 0;
"9" = 0;
};
};
width = 686;
}
);
metricLeft = f;
metricRight = eng;
unicode = 681;
},
{
color = 4;
glyphname = g;
lastChange = "2024-02-12 15:03:03 +0000";
layers = (
{
anchors = (
{
name = bottom;
pos = (213,-100);
},
{
name = top;
pos = (218,450);
}
);
layerId = m001;
shapes = (
{
closed = 1;
nodes = (
(276,-240,o),
(409,-124,o),
(409,-32,cs),
(409,17,o),
(389,64,o),
(315,82,cs),
(238,101,ls),
(155,122,o),
(142,130,o),
(141,140,cs),
(140,146,o),
(142,154,o),
(150,160,c),
(259,142,o),
(391,202,o),
(399,320,cs),
(401,357,o),
(391,393,o),
(366,421,c),
(474,449,l),
(474,476,l),
(397,554,l),
(334,445,l),
(308,459,o),
(275,468,o),
(232,468,cs),
(122,468,o),
(28,408,o),
(20,301,cs),
(14,236,o),
(51,187,o),
(116,167,c),
(39,125,o),
(36,89,o),
(36,65,cs),
(36,48,o),
(47,21,o),
(84,-2,c),
(-18,-60,o),
(-28,-109,o),
(-32,-138,c),
(-35,-187,o),
(4,-240,o),
(128,-240,cs)
);
},
{
closed = 1;
nodes = (
(126,-138,o),
(82,-102,o),
(82,-78,cs),
(81,-62,o),
(83,-39,o),
(118,-19,c),
(137,-24,o),
(167,-31,o),
(234,-47,cs),
(290,-60,o),
(339,-77,o),
(333,-100,cs),
(327,-119,o),
(295,-138,o),
(234,-138,cs)
);
},
{
closed = 1;
nodes = (
(191,218,o),
(164,240,o),
(170,322,cs),
(177,409,o),
(190,421,o),
(208,421,cs),
(225,421,o),
(254,393,o),
(249,314,cs),
(243,227,o),
(230,218,o),
(207,218,cs)
);
}
);
userData = {
com.hugojourdan.ColorFlow = {
"0" = 0;
"1" = 0;
"10" = 0;
"11" = 0;
"2" = 0;
"3" = 0;
"4" = 0;
"5" = 0;
"6" = 0;
"7" = 0;
"8" = 0;
"9" = 0;
};
};
width = 425;
},
{
anchors = (
{
name = bottom;
pos = (173,-100);
},
{
name = top;
pos = (165,450);
}
);
layerId = "5B801A11-FB24-4494-9FC9-AC06A39D30E5";
shapes = (
{
closed = 1;
nodes = (
(231,-195,o),
(329,-119,o),
(329,-51,cs),
(329,-7,o),
(297,27,o),
(230,61,cs),
(172,90,ls),
(154,99,o),
(142,109,o),
(144,124,cs),
(145,140,o),
(178,164,o),
(202,182,c),
(266,196,o),
(313,243,o),
(319,323,cs),
(323,366,o),
(309,400,o),
(288,423,c),
(399,478,l),
(399,495,l),
(365,530,l),
(280,431,l),
(259,450,o),
(233,460,o),
(211,460,cs),
(127,460,o),
(60,405,o),
(52,312,cs),
(47,229,o),
(104,182,o),
(155,178,c),
(112,149,o),
(81,128,o),
(81,99,cs),
(81,75,o),
(90,69,o),
(138,41,c),
(55,-10,o),
(-17,-44,o),
(-16,-111,cs),
(-16,-158,o),
(36,-195,o),
(128,-195,cs)
);
},
{
closed = 1;
nodes = (
(81,-159,o),
(39,-129,o),
(42,-91,cs),
(46,-49,o),
(93,-17,o),
(159,30,c),
(174,22,o),
(188,13,o),
(203,5,cs),
(243,-18,o),
(264,-45,o),
(266,-81,cs),
(268,-127,o),
(215,-159,o),
(146,-159,cs)
);
},
{
closed = 1;
nodes = (
(135,205,o),
(105,264,o),
(109,330,cs),
(113,396,o),
(131,429,o),
(181,429,cs),
(244,429,o),
(267,372,o),
(262,303,cs),
(259,235,o),
(233,205,o),
(194,205,cs)
);
}
);
userData = {
com.hugojourdan.ColorFlow = {
"0" = 0;
"1" = 0;
"10" = 0;
"11" = 0;
"2" = 0;
"3" = 0;
"4" = 0;
"5" = 0;
"6" = 0;
"7" = 0;
"8" = 0;
"9" = 0;
};
};
width = 358;
},
{
anchors = (
{
name = bottom;
pos = (213,-100);
},
{
name = top;
pos = (218,450);
}
);
associatedMasterId = m001;
layerId = "C2DA7574-4306-427D-B9E8-330C0CF6E07A";
name = "24 de ago. de 23, 10:02";
shapes = (
{
closed = 1;
nodes = (
(276,-240,o),
(409,-124,o),
(409,-32,cs),
(409,17,o),
(389,65,o),
(315,82,cs),
(238,101,ls),
(156,126,o),
(142,130,o),
(141,140,cs),
(140,146,o),
(142,154,o),
(150,160,c),
(162,158,o),
(175,157,o),
(188,157,cs),
(297,157,o),
(392,222,o),
(399,320,cs),
(401,357,o),
(391,393,o),
(366,421,c),
(474,449,l),
(474,476,l),
(397,554,l),
(334,445,l),
(308,459,o),
(275,468,o),
(232,468,cs),
(122,468,o),
(28,408,o),
(20,301,cs),
(14,236,o),
(51,187,o),
(116,167,c),
(39,125,o),
(36,89,o),
(36,65,cs),
(36,48,o),
(47,21,o),
(84,-2,c),
(-18,-60,o),
(-28,-109,o),
(-32,-138,c),
(-35,-187,o),
(4,-240,o),
(128,-240,cs)
);
},
{
closed = 1;
nodes = (
(126,-138,o),
(82,-102,o),
(82,-78,cs),
(81,-62,o),
(83,-39,o),
(118,-19,c),
(125,-21,o),
(132,-24,o),
(140,-26,cs),
(238,-48,ls),
(294,-62,o),
(339,-77,o),
(333,-100,cs),
(327,-119,o),
(295,-138,o),
(234,-138,cs)
);
},
{
closed = 1;
nodes = (
(191,218,o),
(164,240,o),
(170,322,cs),
(177,409,o),
(190,421,o),
(208,421,cs),
(225,421,o),
(254,393,o),
(249,314,cs),
(243,227,o),
(230,218,o),
(207,218,cs)
);
}
);
width = 425;
}
);
unicode = 103;
userData = {
KernOnName = g;
};
},
{
color = 3;
glyphname = "gamma-latin";
lastChange = "2024-02-13 20:22:23 +0000";
layers = (
{
layerId = m001;
shapes = (
{
closed = 1;
nodes = (
(284,-223,o),
(353,-165,o),
(360,-90,cs),
(365,-35,o),
(338,30,o),
(331,52,c),
(435,190,o),
(485,311,o),
(485,388,cs),
(485,436,o),
(478,468,o),
(445,468,c),
(419,465,o),
(321,412,o),
(307,397,c),
(307,368,l),
(351,384,o),
(396,363,o),
(396,328,cs),
(396,283,o),
(358,180,o),
(308,112,c),
(212,468,l),
(171,468,l),
(0,397,l),
(0,368,l),
(50,356,l),
(168,-10,l),
(128,-59,o),
(98,-103,o),
(98,-140,cs),
(98,-185,o),
(123,-223,o),
(193,-223,cs)
);
},
{
closed = 1;
nodes = (
(154,-172,o),
(147,-153,o),
(148,-134,cs),
(150,-103,o),
(169,-80,o),
(187,-55,c),
(197,-83,o),
(208,-111,o),
(206,-134,cs),
(205,-154,o),
(196,-172,o),
(174,-172,cs)
);
}
);
userData = {
com.hugojourdan.ColorFlow = {
"0" = 0;
"1" = 0;
"10" = 0;
"11" = 0;
"2" = 0;
"3" = 0;
"4" = 0;
"5" = 0;
"6" = 0;
"7" = 0;
"8" = 0;
"9" = 0;
};
};
width = 492;
},
{
layerId = "5B801A11-FB24-4494-9FC9-AC06A39D30E5";
shapes = (
{
closed = 1;
nodes = (
(163,-220,o),
(213,-177,o),
(218,-120,cs),
(222,-79,o),
(218,-46,o),
(201,16,c),
(281,93,o),
(376,276,o),
(376,404,cs),
(376,447,o),
(359,460,o),
(347,460,cs),
(335,460,o),
(307,441,o),
(275,421,c),
(272,408,l),
(323,394,o),
(324,376,o),
(324,337,cs),
(324,268,o),
(266,139,o),
(192,53,c),
(129,460,l),
(118,460,l),
(0,421,l),
(-3,408,l),
(79,399,l),
(139,4,l),
(107,-36,o),
(73,-78,o),
(65,-132,cs),
(59,-179,o),
(80,-220,o),
(123,-220,cs)
);
},
{
closed = 1;
nodes = (
(101,-188,o),
(95,-164,o),
(101,-131,cs),
(109,-89,o),
(125,-64,o),
(146,-34,c),
(154,-76,o),
(159,-108,o),
(153,-137,cs),
(148,-159,o),
(137,-188,o),
(118,-188,cs)
);
}
);
userData = {
com.hugojourdan.ColorFlow = {
"0" = 0;
"1" = 0;
"10" = 0;
"11" = 0;
"2" = 0;
"3" = 0;
"4" = 0;
"5" = 0;
"6" = 0;
"7" = 0;
"8" = 0;
"9" = 0;
};
};
width = 406;
},
{
anchors = (
{
name = bottom;
pos = (186,-100);
},
{
name = top;
pos = (186,450);
}
);
associatedMasterId = "5B801A11-FB24-4494-9FC9-AC06A39D30E5";
layerId = "0B1D13A7-520D-4178-86C8-4BCBAE7329A8";
name = "15 de dic. de 23, 10:27";
shapes = (
{
closed = 1;
nodes = (
(170,-10,l),
(253,43,o),
(376,260,o),
(376,404,cs),
(376,447,o),
(359,460,o),
(347,460,cs),
(335,460,o),
(307,441,o),
(275,421,c),
(272,408,l),
(323,394,o),
(324,376,o),
(324,337,cs),
(324,268,o),
(266,139,o),
(192,53,c),
(129,460,l),
(118,460,l),
(0,421,l),
(-3,408,l),
(79,399,l),
(140,-10,l)
);
},
{
closed = 0;
nodes = (
(139,4,l),
(107,-36,o),
(73,-78,o),
(65,-132,cs),
(59,-179,o),
(80,-220,o),
(123,-220,cs),
(168,-220,o),
(214,-177,o),
(219,-120,cs),
(223,-74,o),
(217,-36,o),
(194,42,c)
);
},
{
closed = 1;
nodes = (
(107,-188,o),
(99,-164,o),
(103,-131,cs),
(109,-89,o),
(125,-64,o),
(146,-34,c),
(158,-76,o),
(167,-108,o),
(163,-137,cs),
(159,-159,o),
(148,-188,o),
(126,-188,cs)
);
}
);
width = 406;
}
);
metricLeft = v;
metricRight = v;
unicode = 611;
},
{
color = 3;
glyphname = ghook;
lastChange = "2024-02-13 20:22:23 +0000";
layers = (
{
layerId = m001;
shapes = (
{
ref = gsingle;
},
{
closed = 1;
nodes = (
(488,222,o),
(504,474,o),
(506,497,cs),
(513,579,o),
(537,589,o),
(566,589,cs),
(586,589,o),
(619,579,o),
(632,570,c),
(642,593,l),
(622,693,l),
(484,693,o),
(362,542,o),
(344,467,c),
(478,80,l)
);
}
);
userData = {
com.hugojourdan.ColorFlow = {
"0" = 0;
"1" = 0;
"10" = 0;
"11" = 0;
"2" = 0;
"3" = 0;
"4" = 0;
"5" = 0;
"6" = 0;
"7" = 0;
"8" = 0;
"9" = 0;
};
};
width = 532;
},
{
layerId = "5B801A11-FB24-4494-9FC9-AC06A39D30E5";
shapes = (
{
ref = gsingle;
},
{
closed = 1;
nodes = (
(338,211,o),
(356,455,o),
(361,530,cs),
(367,618,o),
(395,637,o),
(440,637,cs),
(450,637,o),
(455,637,o),
(487,634,c),
(491,659,l),
(479,693,l),
(404,693,o),
(306,649,o),
(300,443,c),
(328,67,l)
);
}
);
userData = {
com.hugojourdan.ColorFlow = {
"0" = 0;
"1" = 0;
"10" = 0;
"11" = 0;
"2" = 0;
"3" = 0;
"4" = 0;
"5" = 0;
"6" = 0;
"7" = 0;
"8" = 0;
"9" = 0;
};
};
width = 396;
}
);
metricLeft = d;
unicode = 608;
},
{
color = 3;
glyphname = glottalstop;
lastChange = "2024-02-13 20:22:23 +0000";
layers = (
{
layerId = m001;
shapes = (
{
closed = 1;
nodes = (
(119,0,l),
(235,25,l),
(253,274,l),
(253,324,o),
(403,367,o),
(412,478,cs),
(418,565,o),
(344,630,o),
(254,630,cs),
(203,630,o),
(130,604,o),
(42,564,c),
(18,438,l),
(81,438,l),
(174,565,l),
(183,566,o),
(189,565,o),
(196,565,cs),
(230,565,o),
(273,541,o),
(266,457,cs),
(258,345,o),
(96,300,o),
(91,236,cs),
(74,0,l)
);
}
);
userData = {
com.hugojourdan.ColorFlow = {
"0" = 0;
"1" = 0;
"10" = 0;
"11" = 0;
"2" = 0;
"3" = 0;
"4" = 0;
"5" = 0;
"6" = 0;
"7" = 0;
"8" = 0;
"9" = 0;
};
};
width = 380;
},
{
layerId = "5B801A11-FB24-4494-9FC9-AC06A39D30E5";
shapes = (
{
closed = 1;
nodes = (
(131,0,l),
(178,12,l),
(196,242,ls),
(203,329,o),
(356,346,o),
(356,493,cs),
(356,575,o),
(297,622,o),
(203,622,cs),
(170,622,o),
(153,609,o),
(65,577,c),
(33,438,l),
(48,438,l),
(128,565,l),
(134,569,o),
(151,570,o),
(163,570,cs),
(237,570,o),
(281,522,o),
(281,471,cs),
(281,326,o),
(142,316,o),
(136,223,cs),
(121,0,l)
);
}
);
userData = {
com.hugojourdan.ColorFlow = {
"0" = 0;
"1" = 0;
"10" = 0;
"11" = 0;
"2" = 0;
"3" = 0;
"4" = 0;
"5" = 0;
"6" = 0;
"7" = 0;
"8" = 0;
"9" = 0;
};
};
width = 356;
},
{
associatedMasterId = "5B801A11-FB24-4494-9FC9-AC06A39D30E5";
layerId = "867C1C6F-F769-49D1-AD4F-052B164A668D";
name = "15 de sep. de 23, 9:26";
shapes = (
{
closed = 1;
nodes = (
(137,0,l),
(184,12,l),
(202,242,l),
(202,329,o),
(352,340,o),
(361,486,cs),
(367,565,o),
(309,622,o),
(209,622,cs),
(176,622,o),
(159,609,o),
(71,577,c),
(39,438,l),
(54,438,l),
(134,565,l),
(140,569,o),
(157,570,o),
(169,570,cs),
(243,570,o),
(292,522,o),
(287,457,cs),
(279,326,o),
(148,316,o),
(142,223,cs),
(127,0,l)
);
}
);
visible = 1;
width = 385;
}
);
unicode = 660;
},
{
color = 3;
glyphname = glottalstopreversed;
lastChange = "2024-02-13 20:22:23 +0000";
layers = (
{
layerId = m001;
shapes = (
{
closed = 1;
nodes = (
(157,0,l),
(273,25,l),
(279,109,o),
(286,168,o),
(286,240,cs),
(286,306,o),
(161,357,o),
(165,477,cs),
(167,541,o),
(186,568,o),
(213,568,cs),
(245,568,o),
(258,557,o),
(258,557,c),
(334,438,l),
(387,438,l),
(396,557,l),
(363,602,o),
(301,630,o),
(250,630,cs),
(165,630,o),
(30,564,o),
(21,450,cs),
(10,310,o),
(130,274,o),
(128,216,cs),
(127,177,o),
(118,84,o),
(112,0,c)
);
}
);
userData = {
com.hugojourdan.ColorFlow = {
"0" = 0;
"1" = 0;
"10" = 0;
"11" = 0;
"2" = 0;
"3" = 0;
"4" = 0;
"5" = 0;
"6" = 0;
"7" = 0;
"8" = 0;
"9" = 0;
};
};
width = 380;
},
{
layerId = "5B801A11-FB24-4494-9FC9-AC06A39D30E5";
shapes = (
{
closed = 1;
nodes = (
(150,0,l),
(197,12,l),
(203,82,o),
(210,157,o),
(216,231,cs),
(222,301,o),
(103,355,o),
(103,461,cs),
(103,521,o),
(126,570,o),
(178,570,cs),
(236,570,o),
(266,547,o),
(271,542,c),
(312,438,l),
(327,438,l),
(330,564,l),
(326,572,o),
(303,616,o),
(232,616,cs),
(124,616,o),
(39,542,o),
(35,450,cs),
(28,314,o),
(157,267,o),
(154,213,cs),
(151,163,o),
(145,81,o),
(140,0,c)
);
}
);
userData = {
com.hugojourdan.ColorFlow = {
"0" = 0;
"1" = 0;
"10" = 0;
"11" = 0;
"2" = 0;
"3" = 0;
"4" = 0;
"5" = 0;
"6" = 0;
"7" = 0;
"8" = 0;
"9" = 0;
};
};
width = 330;
},
{
associatedMasterId = m001;
layerId = "EBC10201-FC32-4C5C-9B43-EFD37AEBB784";
name = "15 de sep. de 23, 9:14";
shapes = (
{
closed = 1;
nodes = (
(119,0,l),
(235,25,l),
(253,274,l),
(253,324,o),
(403,367,o),
(412,478,cs),
(418,565,o),
(344,630,o),
(254,630,cs),
(203,630,o),
(130,604,o),
(42,564,c),
(18,438,l),
(81,438,l),
(174,565,l),
(183,566,o),
(189,565,o),
(196,565,cs),
(230,565,o),
(273,541,o),
(266,457,cs),
(258,345,o),
(96,300,o),
(91,236,cs),
(74,0,l)
);
}
);
width = 380;
},
{
associatedMasterId = m001;
layerId = "E1707012-3018-4BB9-ABE0-4720212457C5";
name = "15 de sep. de 23, 9:21";
shapes = (
{
closed = 1;
nodes = (
(175,167,o),
(168,84,o),
(162,0,c),
(207,0,l),
(323,25,l),
(329,109,o),
(336,193,o),
(342,277,c),
(261,306,o),
(172,345,o),
(164,457,cs),
(157,541,o),
(200,568,o),
(223,568,cs),
(240,568,o),
(261,563,o),
(261,563,c),
(334,438,l),
(387,438,l),
(396,557,l),
(362,613,o),
(301,630,o),
(250,630,cs),
(160,630,o),
(12,565,o),
(21,443,cs),
(27,367,o),
(96,283,o),
(181,251,c)
);
}
);
width = 380;
},
{
associatedMasterId = "5B801A11-FB24-4494-9FC9-AC06A39D30E5";
layerId = "1200CE02-85CB-4644-A5F4-FB01FEB14D44";
name = "15 de sep. de 23, 9:38";
shapes = (
{
closed = 1;
nodes = (
(200,161,o),
(194,81,o),
(189,0,c),
(199,0,l),
(246,12,l),
(252,82,o),
(262,196,o),
(268,266,c),
(189,324,o),
(118,375,o),
(118,457,cs),
(118,521,o),
(135,570,o),
(187,570,cs),
(245,570,o),
(275,547,o),
(280,542,c),
(321,438,l),
(336,438,l),
(339,564,l),
(335,572,o),
(312,616,o),
(241,616,cs),
(133,616,o),
(44,542,o),
(44,462,cs),
(44,340,o),
(134,290,o),
(205,232,c)
);
}
);
visible = 1;
width = 375;
}
);
unicode = 661;
},
{
color = 3;
glyphname = glottalstopstroke;
lastChange = "2024-02-13 20:22:23 +0000";
layers = (
{
layerId = m001;
shapes = (
{
ref = glottalstop;
},
{
closed = 1;
nodes = (
(322,122,l),
(324,173,l),
(7,173,l),
(4,122,l)
);
}
);
userData = {
com.hugojourdan.ColorFlow = {
"0" = 0;
"1" = 0;
"10" = 0;
"11" = 0;
"2" = 0;
"3" = 0;
"4" = 0;
"5" = 0;
"6" = 0;
"7" = 0;
"8" = 0;
"9" = 0;
};
};
width = 380;
},
{
layerId = "5B801A11-FB24-4494-9FC9-AC06A39D30E5";
shapes = (
{
ref = glottalstop;
},
{
closed = 1;
nodes = (
(257,127,l),
(259,157,l),
(61,157,l),
(58,127,l)
);
}
);
userData = {
com.hugojourdan.ColorFlow = {
"0" = 0;
"1" = 0;
"10" = 0;
"11" = 0;
"2" = 0;
"3" = 0;
"4" = 0;
"5" = 0;
"6" = 0;
"7" = 0;
"8" = 0;
"9" = 0;
};
};
width = 356;
}
);
unicode = 673;
},
{
color = 3;
glyphname = glottalstopstrokereversed;
lastChange = "2024-02-13 20:22:23 +0000";
layers = (
{
layerId = m001;
shapes = (
{
ref = glottalstopreversed;
},
{
closed = 1;
nodes = (
(361,122,l),
(363,173,l),
(46,173,l),
(43,122,l)
);
}
);
userData = {
com.hugojourdan.ColorFlow = {
"0" = 0;
"1" = 0;
"10" = 0;
"11" = 0;
"2" = 0;
"3" = 0;
"4" = 0;
"5" = 0;
"6" = 0;
"7" = 0;
"8" = 0;
"9" = 0;
};
};
width = 380;
},
{
layerId = "5B801A11-FB24-4494-9FC9-AC06A39D30E5";
shapes = (
{
ref = glottalstopreversed;
},
{
closed = 1;
nodes = (
(276,127,l),
(278,157,l),
(80,157,l),
(77,127,l)
);
}
);
userData = {
com.hugojourdan.ColorFlow = {
"0" = 0;
"1" = 0;
"10" = 0;
"11" = 0;
"2" = 0;
"3" = 0;
"4" = 0;
"5" = 0;
"6" = 0;
"7" = 0;
"8" = 0;
"9" = 0;
};
};
width = 330;
}
);
unicode = 674;
},
{
color = 3;
glyphname = gsingle;
lastChange = "2024-02-13 20:22:23 +0000";
layers = (
{
layerId = m001;
shapes = (
{
closed = 1;
nodes = (
(313,-240,o),
(463,-147,o),
(476,51,cs),
(505,510,l),
(475,515,l),
(411,458,l),
(384,465,o),
(349,468,o),
(330,468,cs),
(192,468,o),
(37,421,o),
(24,179,cs),
(18,55,o),
(76,-10,o),
(141,-10,cs),
(187,-10,o),
(243,-8,o),
(313,121,c),
(311,74,o),
(311,28,o),
(308,-19,cs),
(301,-138,o),
(279,-168,o),
(210,-168,cs),
(174,-168,o),
(158,-161,o),
(142,-155,c),
(104,-83,l),
(76,-83,l),
(27,-212,l),
(86,-233,o),
(117,-240,o),
(177,-240,cs)
);
},
{
closed = 1;
nodes = (
(215,103,o),
(184,116,o),
(194,245,cs),
(201,328,o),
(210,359,o),
(232,382,cs),
(235,385,o),
(249,399,o),
(271,399,cs),
(294,399,o),
(313,393,o),
(329,383,c),
(323,276,ls),
(317,162,o),
(277,103,o),
(235,103,cs)
);
}
);
userData = {
com.hugojourdan.ColorFlow = {
"0" = 0;
"1" = 0;
"10" = 0;
"11" = 0;
"2" = 0;
"3" = 0;
"4" = 0;
"5" = 0;
"6" = 0;
"7" = 0;
"8" = 0;
"9" = 0;
};
};
width = 518;
},
{
layerId = "5B801A11-FB24-4494-9FC9-AC06A39D30E5";
shapes = (
{
closed = 1;
nodes = (
(198,-226,o),
(314,-162,o),
(326,11,cs),
(356,454,l),
(342,464,l),
(319,438,l),
(280,451,o),
(235,460,o),
(202,460,cs),
(133,460,o),
(53,333,o),
(43,203,cs),
(31,47,o),
(84,-5,o),
(133,-5,cs),
(181,-5,o),
(224,36,o),
(280,135,c),
(275,76,o),
(270,17,o),
(265,-42,cs),
(253,-181,o),
(185,-195,o),
(125,-195,cs),
(107,-195,o),
(92,-190,o),
(79,-184,c),
(52,-140,l),
(35,-140,l),
(15,-210,l),
(44,-219,o),
(59,-227,o),
(112,-227,cs)
);
},
{
closed = 1;
nodes = (
(119,47,o),
(93,105,o),
(101,210,cs),
(108,312,o),
(125,378,o),
(141,398,cs),
(158,417,o),
(190,415,o),
(204,415,cs),
(232,415,o),
(273,403,o),
(299,386,c),
(292,291,l),
(267,97,o),
(189,47,o),
(166,47,cs)
);
}
);
userData = {
com.hugojourdan.ColorFlow = {
"0" = 0;
"1" = 0;
"10" = 0;
"11" = 0;
"2" = 0;
"3" = 0;
"4" = 0;
"5" = 0;
"6" = 0;
"7" = 0;
"8" = 0;
"9" = 0;
};
};
width = 373;
},
{
associatedMasterId = "5B801A11-FB24-4494-9FC9-AC06A39D30E5";
layerId = "02F38C87-5A92-4272-94F4-5013441AE3AF";
name = "13 de sep. de 23, 9:36";
shapes = (
{
closed = 1;
nodes = (
(108,312,o),
(125,378,o),
(141,398,cs),
(158,417,o),
(190,415,o),
(204,415,cs),
(232,415,o),
(273,403,o),
(299,386,c),
(292,291,l),
(267,97,o),
(189,47,o),
(166,47,cs),
(119,47,o),
(93,105,o),
(101,210,cs)
);
},
{
closed = 1;
nodes = (
(326,-16,l),
(356,454,l),
(342,464,l),
(319,438,l),
(280,451,o),
(235,460,o),
(202,460,cs),
(133,460,o),
(53,333,o),
(43,203,cs),
(31,47,o),
(84,-5,o),
(133,-5,cs),
(181,-5,o),
(224,36,o),
(280,135,c),
(263,-65,l)
);
},
{
closed = 0;
nodes = (
(264,-62,ls),
(258,-146,o),
(209,-192,o),
(85,-197,cs),
(78,-197,o),
(68,-195,o),
(61,-193,c),
(18,-137,l),
(3,-137,l),
(-17,-208,l),
(21,-216,o),
(56,-224,o),
(81,-224,cs),
(213,-224,o),
(316,-145,o),
(325,-24,cs)
);
}
);
width = 433;
},
{
associatedMasterId = m001;
layerId = "D2023AA1-B201-4245-A711-C2993561AABE";
name = "13 de sep. de 23, 9:44";
shapes = (
{
closed = 1;
nodes = (
(201,328,o),
(210,359,o),
(232,382,cs),
(235,385,o),
(249,399,o),
(271,399,cs),
(294,399,o),
(313,393,o),
(329,383,c),
(323,276,ls),
(317,162,o),
(277,103,o),
(235,103,cs),
(215,103,o),
(184,116,o),
(194,245,cs)
);
},
{
closed = 1;
nodes = (
(503,510,l),
(473,515,l),
(409,458,l),
(382,465,o),
(347,468,o),
(328,468,cs),
(190,468,o),
(35,421,o),
(22,179,cs),
(16,55,o),
(74,-10,o),
(139,-10,cs),
(185,-10,o),
(241,-8,o),
(311,121,c),
(299,-101,ls),
(296,-155,o),
(262,-167,o),
(195,-167,cs),
(176,-167,o),
(146,-159,o),
(127,-149,c),
(74,-74,l),
(46,-74,l),
(6,-205,l),
(50,-221,o),
(96,-239,o),
(163,-239,cs),
(306,-239,o),
(459,-152,o),
(467,-31,cs)
);
}
);
visible = 1;
width = 471;
}
);
metricLeft = a;
unicode = 609;
},
{
color = 4;
glyphname = h;
kernRight = KO_n;
lastChange = "2024-02-12 15:03:03 +0000";
layers = (
{
anchors = (
{
name = bottom;
pos = (259,-100);
},
{
name = top;
pos = (259,450);
}
);
layerId = m001;
shapes = (
{
closed = 1;
nodes = (
(75,0,l),
(191,25,l),
(203,187,ls),
(212,307,o),
(254,355,o),
(292,355,cs),
(318,355,o),
(326,333,o),
(317,256,cs),
(306,165,o),
(304,82,o),
(292,-1,c),
(319,-15,l),
(519,52,l),
(521,80,l),
(460,80,l),
(470,145,o),
(474,190,o),
(483,301,cs),
(493,408,o),
(451,468,o),
(374,468,cs),
(311,468,o),
(267,435,o),
(214,342,c),
(230,555,l),
(251,693,l),
(201,693,l),
(-3,633,l),
(-5,605,l),
(74,605,l),
(30,0,l)
);
}
);
userData = {
com.hugojourdan.ColorFlow = {
"0" = 0;
"1" = 0;
"10" = 0;
"11" = 0;
"2" = 0;
"3" = 0;
"4" = 0;
"5" = 0;
"6" = 0;
"7" = 0;
"8" = 0;
"9" = 0;
};
};
width = 523;
},
{
anchors = (
{
name = bottom;
pos = (230,-100);
},
{
name = top;
pos = (230,450);
}
);
layerId = "5B801A11-FB24-4494-9FC9-AC06A39D30E5";
shapes = (
{
closed = 1;
nodes = (
(78,0,l),
(124,12,l),
(134,161,l),
(154,339,o),
(245,408,o),
(273,408,cs),
(307,408,o),
(329,384,o),
(320,256,cs),
(314,165,o),
(301,95,o),
(289,12,c),
(316,-2,l),
(415,52,l),
(417,67,l),
(348,67,l),
(358,132,o),
(370,190,o),
(376,258,cs),
(389,408,o),
(368,460,o),
(305,460,cs),
(266,460,o),
(202,426,o),
(143,299,c),
(161,576,l),
(179,693,l),
(158,693,l),
(45,638,l),
(43,624,l),
(109,624,l),
(67,0,l)
);
}
);
userData = {
com.hugojourdan.ColorFlow = {
"0" = 0;
"1" = 0;
"10" = 0;
"11" = 0;
"2" = 0;
"3" = 0;
"4" = 0;
"5" = 0;
"6" = 0;
"7" = 0;
"8" = 0;
"9" = 0;
};
};
width = 456;
}
);
unicode = 104;
userData = {
KernOnName = h;
};
},
{
color = 4;
glyphname = hbar;
lastChange = "2024-02-12 15:03:03 +0000";
layers = (
{
layerId = m001;
shapes = (
{
closed = 1;
nodes = (
(311,494,l),
(317,560,l),
(4,560,l),
(-2,494,l)
);
},
{
ref = h;
}
);
userData = {
com.hugojourdan.ColorFlow = {
"0" = 0;
"1" = 0;
"10" = 0;
"11" = 0;
"2" = 0;
"3" = 0;
"4" = 0;
"5" = 0;
"6" = 0;
"7" = 0;
"8" = 0;
"9" = 0;
};
};
width = 525;
},
{
layerId = "5B801A11-FB24-4494-9FC9-AC06A39D30E5";
shapes = (
{
closed = 1;
nodes = (
(244,526,l),
(248,560,l),
(44,560,l),
(41,526,l)
);
},
{
ref = h;
}
);
userData = {
com.hugojourdan.ColorFlow = {
"0" = 0;
"1" = 0;
"10" = 0;
"11" = 0;
"2" = 0;
"3" = 0;
"4" = 0;
"5" = 0;
"6" = 0;
"7" = 0;
"8" = 0;
"9" = 0;
};
};
width = 456;
}
);
unicode = 295;
},
{
color = 3;
glyphname = henghook;
lastChange = "2024-02-13 20:22:23 +0000";
layers = (
{
layerId = m001;
shapes = (
{
closed = 1;
nodes = (
(65,0,l),
(181,25,l),
(193,187,ls),
(202,307,o),
(244,355,o),
(282,355,cs),
(308,355,o),
(316,333,o),
(307,256,cs),
(296,165,o),
(293,82,o),
(277,-54,cs),
(267,-130,o),
(240,-136,o),
(211,-136,cs),
(191,-136,o),
(158,-126,o),
(145,-117,c),
(135,-140,l),
(155,-240,l),
(283,-240,o),
(435,-112,o),
(455,121,cs),
(457,145,o),
(464,190,o),
(473,301,cs),
(483,408,o),
(441,468,o),
(364,468,cs),
(301,468,o),
(257,435,o),
(204,342,c),
(211,397,o),
(219,452,o),
(226,507,cs),
(236,583,o),
(264,589,o),
(293,589,cs),
(313,589,o),
(346,579,o),
(359,570,c),
(369,593,l),
(349,693,l),
(221,693,o),
(69,565,o),
(49,332,cs),
(20,0,l)
);
}
);
userData = {
com.hugojourdan.ColorFlow = {
"0" = 0;
"1" = 0;
"10" = 0;
"11" = 0;
"2" = 0;
"3" = 0;
"4" = 0;
"5" = 0;
"6" = 0;
"7" = 0;
"8" = 0;
"9" = 0;
};
};
width = 501;
},
{
layerId = "5B801A11-FB24-4494-9FC9-AC06A39D30E5";
shapes = (
{
closed = 1;
nodes = (
(69,0,l),
(115,12,l),
(125,161,l),
(145,339,o),
(236,408,o),
(264,408,cs),
(298,408,o),
(320,384,o),
(311,256,c),
(301,160,o),
(291,63,o),
(281,-33,cs),
(270,-141,o),
(253,-170,o),
(198,-170,cs),
(188,-170,o),
(182,-170,o),
(150,-167,c),
(146,-192,l),
(158,-226,l),
(248,-226,o),
(318,-151,o),
(338,17,cs),
(348,97,o),
(357,178,o),
(367,258,c),
(380,408,o),
(359,460,o),
(296,460,cs),
(257,460,o),
(193,426,o),
(134,299,c),
(137,366,o),
(140,433,o),
(142,500,cs),
(146,608,o),
(171,637,o),
(226,637,cs),
(236,637,o),
(242,637,o),
(274,634,c),
(278,659,l),
(266,693,l),
(176,693,o),
(99,619,o),
(88,450,cs),
(58,0,l)
);
}
);
userData = {
com.hugojourdan.ColorFlow = {
"0" = 0;
"1" = 0;
"10" = 0;
"11" = 0;
"2" = 0;
"3" = 0;
"4" = 0;
"5" = 0;
"6" = 0;
"7" = 0;
"8" = 0;
"9" = 0;
};
};
width = 433;
}
);
metricRight = eng;
unicode = 615;
},
{
color = 3;
glyphname = hhook;
lastChange = "2024-02-13 20:22:23 +0000";
layers = (
{
layerId = m001;
shapes = (
{
closed = 1;
nodes = (
(65,0,l),
(181,25,l),
(193,187,ls),
(202,307,o),
(244,355,o),
(282,355,cs),
(308,355,o),
(316,333,o),
(307,256,cs),
(296,165,o),
(294,82,o),
(282,-1,c),
(309,-15,l),
(509,52,l),
(511,80,l),
(450,80,l),
(460,145,o),
(464,190,o),
(473,301,cs),
(483,408,o),
(441,468,o),
(364,468,cs),
(301,468,o),
(257,435,o),
(204,342,c),
(211,397,o),
(219,452,o),
(226,507,cs),
(236,583,o),
(264,589,o),
(293,589,cs),
(313,589,o),
(346,579,o),
(359,570,c),
(369,593,l),
(349,693,l),
(221,693,o),
(69,565,o),
(49,332,cs),
(20,0,l)
);
}
);
userData = {
com.hugojourdan.ColorFlow = {
"0" = 0;
"1" = 0;
"10" = 0;
"11" = 0;
"2" = 0;
"3" = 0;
"4" = 0;
"5" = 0;
"6" = 0;
"7" = 0;
"8" = 0;
"9" = 0;
};
};
width = 513;
},
{
layerId = "5B801A11-FB24-4494-9FC9-AC06A39D30E5";
shapes = (
{
closed = 1;
nodes = (
(69,0,l),
(115,12,l),
(125,161,l),
(145,339,o),
(236,408,o),
(264,408,cs),
(298,408,o),
(320,384,o),
(311,256,cs),
(305,165,o),
(292,95,o),
(280,12,c),
(307,-2,l),
(406,52,l),
(408,67,l),
(339,67,l),
(349,132,o),
(361,190,o),
(367,258,cs),
(380,408,o),
(359,460,o),
(296,460,cs),
(257,460,o),
(193,426,o),
(134,299,c),
(137,366,o),
(140,433,o),
(142,500,cs),
(146,608,o),
(171,637,o),
(226,637,cs),
(236,637,o),
(242,637,o),
(274,634,c),
(278,659,l),
(266,693,l),
(176,693,o),
(99,619,o),
(88,450,cs),
(58,0,l)
);
}
);
userData = {
com.hugojourdan.ColorFlow = {
"0" = 0;
"1" = 0;
"10" = 0;
"11" = 0;
"2" = 0;
"3" = 0;
"4" = 0;
"5" = 0;
"6" = 0;
"7" = 0;
"8" = 0;
"9" = 0;
};
};
width = 447;
}
);
metricRight = h;
unicode = 614;
},
{
color = 11;
glyphname = hturnedfishhook;
lastChange = "2024-05-17 05:37:18 +0000";
layers = (
{
anchors = (
{
name = bottom;
pos = (292,0);
},
{
name = top;
pos = (292,550);
}
);
layerId = "5B801A11-FB24-4494-9FC9-AC06A39D30E5";
shapes = (
{
closed = 1;
nodes = (
(506,-220,l),
(506,-203,l),
(414,-164,l),
(455,450,l),
(444,450,l),
(398,438,l),
(388,289,l),
(368,111,o),
(277,42,o),
(249,42,cs),
(215,42,o),
(193,66,o),
(200,170,cs),
(203,207,o),
(204,228,o),
(207,273,cs),
(214,405,o),
(207,462,o),
(79,462,cs),
(55,462,o),
(35,460,o),
(28,459,c),
(11,388,l),
(47,388,l),
(57,397,o),
(66,405,o),
(76,414,c),
(119,414,o),
(162,414,o),
(152,278,cs),
(149,228,o),
(148,210,o),
(144,168,cs),
(133,42,o),
(154,-10,o),
(217,-10,cs),
(256,-10,o),
(320,24,o),
(379,151,c),
(361,-126,l),
(346,-220,l)
);
}
);
userData = {
com.hugojourdan.ColorFlow = {
"0" = 0;
"1" = 0;
"10" = 0;
"11" = 0;
"2" = 0;
"3" = 0;
"4" = 0;
"5" = 0;
"6" = 0;
"7" = 0;
"8" = 0;
"9" = 0;
};
};
width = 522;
},
{
anchors = (
{
name = bottom;
pos = (339,0);
},
{
name = top;
pos = (339,550);
}
);
layerId = m001;
shapes = (
{
closed = 1;
nodes = (
(592,-220,l),
(595,-195,l),
(523,-161,l),
(568,450,l),
(523,450,l),
(407,425,l),
(395,263,ls),
(386,143,o),
(344,95,o),
(306,95,cs),
(280,95,o),
(272,117,o),
(281,194,cs),
(284,219,o),
(287,243,o),
(289,268,cs),
(297,366,o),
(273,478,o),
(90,470,cs),
(67,469,o),
(49,467,o),
(35,465,c),
(9,358,l),
(48,358,l),
(65,372,o),
(82,379,o),
(104,379,cs),
(116,379,o),
(138,368,o),
(134,337,cs),
(127,272,o),
(120,205,o),
(115,149,cs),
(105,42,o),
(147,-18,o),
(224,-18,cs),
(287,-18,o),
(331,15,o),
(384,108,c),
(368,-105,l),
(350,-220,l)
);
}
);
userData = {
com.hugojourdan.ColorFlow = {
"0" = 0;
"1" = 0;
"10" = 0;
"11" = 0;
"2" = 0;
"3" = 0;
"4" = 0;
"5" = 0;
"6" = 0;
"7" = 0;
"8" = 0;
"9" = 0;
};
};
width = 598;
}
);
unicode = 686;
},
{
color = 11;
glyphname = hturnedfishhookandtail;
lastChange = "2024-05-17 05:37:18 +0000";
layers = (
{
anchors = (
{
name = bottom;
pos = (292,0);
},
{
name = top;
pos = (292,550);
}
);
layerId = "5B801A11-FB24-4494-9FC9-AC06A39D30E5";
shapes = (
{
closed = 1;
nodes = (
(473,-225,o),
(504,-210,o),
(570,-135,c),
(560,-115,l),
(509,-165,o),
(494,-171,o),
(475,-171,cs),
(442,-171,o),
(415,-148,o),
(423,-30,cs),
(455,450,l),
(444,450,l),
(398,438,l),
(388,289,l),
(368,111,o),
(277,42,o),
(249,42,cs),
(215,42,o),
(193,66,o),
(202,194,cs),
(203,207,o),
(204,228,o),
(205,241,cs),
(214,405,o),
(207,462,o),
(79,462,cs),
(55,462,o),
(35,460,o),
(28,459,c),
(11,388,l),
(47,388,l),
(57,397,o),
(66,405,o),
(76,414,c),
(119,414,o),
(162,414,o),
(150,246,cs),
(149,228,o),
(148,210,o),
(146,192,cs),
(133,42,o),
(154,-10,o),
(217,-10,cs),
(256,-10,o),
(320,24,o),
(379,151,c),
(364,-81,ls),
(354,-189,o),
(404,-225,o),
(443,-225,cs)
);
}
);
userData = {
com.hugojourdan.ColorFlow = {
"0" = 0;
"1" = 0;
"10" = 0;
"11" = 0;
"2" = 0;
"3" = 0;
"4" = 0;
"5" = 0;
"6" = 0;
"7" = 0;
"8" = 0;
"9" = 0;
};
};
width = 522;
},
{
anchors = (
{
name = bottom;
pos = (339,0);
},
{
name = top;
pos = (339,550);
}
);
layerId = m001;
shapes = (
{
closed = 1;
nodes = (
(534,-237,o),
(602,-190,o),
(666,-115,c),
(642,-87,l),
(615,-108,o),
(600,-122,o),
(571,-122,cs),
(551,-122,o),
(526,-101,o),
(529,-69,cs),
(568,450,l),
(523,450,l),
(407,425,l),
(395,263,ls),
(386,143,o),
(344,95,o),
(306,95,cs),
(280,95,o),
(272,117,o),
(281,194,cs),
(284,219,o),
(287,243,o),
(289,268,cs),
(297,366,o),
(273,478,o),
(90,470,cs),
(67,469,o),
(49,467,o),
(35,465,c),
(9,358,l),
(48,358,l),
(65,372,o),
(82,379,o),
(104,379,cs),
(116,379,o),
(137,368,o),
(134,337,c),
(126,272,o),
(124,260,o),
(115,149,cs),
(105,42,o),
(147,-18,o),
(224,-18,cs),
(287,-18,o),
(331,15,o),
(384,108,c),
(369,-90,ls),
(362,-182,o),
(398,-237,o),
(475,-237,cs)
);
}
);
userData = {
com.hugojourdan.ColorFlow = {
"0" = 0;
"1" = 0;
"10" = 0;
"11" = 0;
"2" = 0;
"3" = 0;
"4" = 0;
"5" = 0;
"6" = 0;
"7" = 0;
"8" = 0;
"9" = 0;
};
};
width = 598;
}
);
unicode = 687;
},
{
color = 4;
glyphname = i;
kernLeft = KO_i;
kernRight = KO_i;
lastChange = "2024-02-12 15:03:03 +0000";
layers = (
{
anchors = (
{
name = bottom;
pos = (136,-100);
},
{
name = top;
pos = (136,450);
}
);
layerId = m001;
shapes = (
{
closed = 1;
nodes = (
(263,52,l),
(265,80,l),
(204,80,l),
(219,312,l),
(241,468,l),
(200,468,l),
(9,394,l),
(9,368,l),
(65,356,l),
(38,-1,l),
(65,-15,l)
);
},
{
closed = 1;
nodes = (
(189,503,o),
(250,560,o),
(252,594,cs),
(255,630,o),
(189,674,o),
(158,674,cs),
(125,674,o),
(67,616,o),
(65,582,cs),
(62,547,o),
(127,503,o),
(159,503,cs)
);
}
);
userData = {
com.hugojourdan.ColorFlow = {
"0" = 0;
"1" = 0;
"10" = 0;
"11" = 0;
"2" = 0;
"3" = 0;
"4" = 0;
"5" = 0;
"6" = 0;
"7" = 0;
"8" = 0;
"9" = 0;
};
};
width = 255;
},
{
anchors = (
{
name = bottom;
pos = (120,-100);
},
{
name = top;
pos = (120,450);
}
);
layerId = "5B801A11-FB24-4494-9FC9-AC06A39D30E5";
shapes = (
{
closed = 1;
nodes = (
(204,52,l),
(206,67,l),
(137,67,l),
(163,395,l),
(177,460,l),
(165,460,l),
(36,421,l),
(33,408,l),
(105,399,l),
(78,12,l),
(105,-2,l)
);
},
{
closed = 1;
nodes = (
(162,578,o),
(186,608,o),
(188,626,cs),
(188,643,o),
(165,666,o),
(153,666,cs),
(138,666,o),
(115,635,o),
(113,617,cs),
(113,600,o),
(135,578,o),
(148,578,cs)
);
}
);
userData = {
com.hugojourdan.ColorFlow = {
"0" = 0;
"1" = 0;
"10" = 0;
"11" = 0;
"2" = 0;
"3" = 0;
"4" = 0;
"5" = 0;
"6" = 0;
"7" = 0;
"8" = 0;
"9" = 0;
};
};
width = 250;
}
);
unicode = 105;
userData = {
KernOnName = i;
};
},
{
color = 4;
glyphname = dotlessi;
kernLeft = KO_r;
lastChange = "2024-02-12 15:03:03 +0000";
layers = (
{
anchors = (
{
name = top;
pos = (208,450);
}
);
layerId = m001;
shapes = (
{
closed = 1;
nodes = (
(263,52,l),
(265,80,l),
(204,80,l),
(219,312,l),
(241,468,l),
(200,468,l),
(9,397,l),
(9,368,l),
(65,356,l),
(38,-1,l),
(65,-15,l)
);
}
);
userData = {
com.hugojourdan.ColorFlow = {
"0" = 0;
"1" = 0;
"10" = 0;
"11" = 0;
"2" = 0;
"3" = 0;
"4" = 0;
"5" = 0;
"6" = 0;
"7" = 0;
"8" = 0;
"9" = 0;
};
};
width = 255;
},
{
anchors = (
{
name = top;
pos = (96,450);
}
);
layerId = "5B801A11-FB24-4494-9FC9-AC06A39D30E5";
shapes = (
{
closed = 1;
nodes = (
(204,52,l),
(206,67,l),
(137,67,l),
(163,395,l),
(177,460,l),
(165,460,l),
(36,421,l),
(33,408,l),
(105,399,l),
(78,12,l),
(105,-2,l)
);
}
);
userData = {
com.hugojourdan.ColorFlow = {
"0" = 0;
"1" = 0;
"10" = 0;
"11" = 0;
"2" = 0;
"3" = 0;
"4" = 0;
"5" = 0;
"6" = 0;
"7" = 0;
"8" = 0;
"9" = 0;
};
};
width = 250;
}
);
unicode = 305;
},
{
color = 3;
glyphname = istroke;
lastChange = "2024-02-13 20:22:54 +0000";
layers = (
{
layerId = m001;
shapes = (
{
closed = 1;
nodes = (
(287,202,l),
(289,253,l),
(-2,253,l),
(-5,202,l)
);
},
{
ref = i;
}
);
userData = {
com.hugojourdan.ColorFlow = {
"0" = 0;
"1" = 0;
"10" = 0;
"11" = 0;
"2" = 0;
"3" = 0;
"4" = 0;
"5" = 0;
"6" = 0;
"7" = 0;
"8" = 0;
"9" = 0;
};
};
width = 255;
},
{
layerId = "5B801A11-FB24-4494-9FC9-AC06A39D30E5";
shapes = (
{
closed = 1;
nodes = (
(224,227,l),
(228,257,l),
(27,257,l),
(24,227,l)
);
},
{
ref = i;
}
);
userData = {
com.hugojourdan.ColorFlow = {
"0" = 0;
"1" = 0;
"10" = 0;
"11" = 0;
"2" = 0;
"3" = 0;
"4" = 0;
"5" = 0;
"6" = 0;
"7" = 0;
"8" = 0;
"9" = 0;
};
};
width = 250;
}
);
unicode = 616;
},
{
color = 3;
glyphname = j;
lastChange = "2024-04-17 05:04:54 +0000";
layers = (
{
anchors = (
{
name = bottom;
pos = (70,-100);
},
{
name = top;
pos = (70,450);
}
);
layerId = m001;
shapes = (
{
closed = 1;
nodes = (
(36,-240,o),
(192,-92,o),
(200,27,cs),
(219,312,l),
(241,468,l),
(200,468,l),
(9,394,l),
(9,368,l),
(65,356,l),
(36,-54,ls),
(31,-130,o),
(13,-136,o),
(-30,-136,cs),
(-56,-136,o),
(-89,-126,o),
(-102,-117,c),
(-112,-140,l),
(-92,-240,l)
);
},
{
closed = 1;
nodes = (
(189,503,o),
(250,560,o),
(252,594,cs),
(255,630,o),
(189,674,o),
(158,674,cs),
(125,674,o),
(67,616,o),
(65,582,cs),
(62,547,o),
(127,503,o),
(159,503,cs)
);
}
);
userData = {
com.hugojourdan.ColorFlow = {
"0" = 0;
"1" = 0;
"10" = 0;
"11" = 0;
"2" = 0;
"3" = 0;
"4" = 0;
"5" = 0;
"6" = 0;
"7" = 0;
"8" = 0;
"9" = 0;
};
};
width = 265;
},
{
anchors = (
{
name = bottom;
pos = (67,-100);
},
{
name = top;
pos = (67,450);
}
);
layerId = "5B801A11-FB24-4494-9FC9-AC06A39D30E5";
shapes = (
{
closed = 1;
nodes = (
(49,-227,o),
(123,-158,o),
(136,11,cs),
(163,395,l),
(177,460,l),
(165,460,l),
(36,421,l),
(33,408,l),
(105,399,l),
(73,-65,ls),
(69,-132,o),
(44,-171,o),
(-1,-171,cs),
(-11,-171,o),
(-17,-171,o),
(-49,-168,c),
(-53,-193,l),
(-41,-227,l)
);
},
{
closed = 1;
nodes = (
(162,578,o),
(186,608,o),
(188,626,cs),
(188,643,o),
(165,666,o),
(153,666,cs),
(138,666,o),
(115,635,o),
(113,617,cs),
(113,600,o),
(135,578,o),
(148,578,cs)
);
}
);
userData = {
com.hugojourdan.ColorFlow = {
"0" = 0;
"1" = 0;
"10" = 0;
"11" = 0;
"2" = 0;
"3" = 0;
"4" = 0;
"5" = 0;
"6" = 0;
"7" = 0;
"8" = 0;
"9" = 0;
};
};
width = 220;
}
);
unicode = 106;
userData = {
KernOnName = j;
};
},
{
color = 11;
glyphname = jdotless;
lastChange = "2025-03-03 16:31:25 +0000";
layers = (
{
anchors = (
{
name = bottom;
pos = (67,-100);
},
{
name = top;
pos = (112,450);
}
);
layerId = "5B801A11-FB24-4494-9FC9-AC06A39D30E5";
shapes = (
{
closed = 1;
nodes = (
(49,-227,o),
(124,-158,o),
(136,11,cs),
(163,395,l),
(177,460,l),
(165,460,l),
(36,421,l),
(33,408,l),
(105,399,l),
(73,-65,ls),
(68,-132,o),
(44,-171,o),
(-1,-171,cs),
(-11,-171,o),
(-17,-171,o),
(-49,-168,c),
(-53,-193,l),
(-41,-227,l)
);
}
);
userData = {
com.hugojourdan.ColorFlow = {
"0" = 0;
"1" = 0;
"10" = 0;
"11" = 0;
"2" = 0;
"3" = 0;
"4" = 0;
"5" = 0;
"6" = 0;
"7" = 0;
"8" = 0;
"9" = 0;
};
};
width = 220;
},
{
anchors = (
{
name = bottom;
pos = (70,-100);
},
{
name = top;
pos = (140,450);
}
);
layerId = m001;
shapes = (
{
closed = 1;
nodes = (
(36,-240,o),
(192,-92,o),
(200,27,cs),
(219,312,l),
(241,468,l),
(200,468,l),
(9,394,l),
(9,368,l),
(65,356,l),
(36,-54,ls),
(31,-130,o),
(13,-136,o),
(-30,-136,cs),
(-56,-136,o),
(-89,-126,o),
(-102,-117,c),
(-112,-140,l),
(-92,-240,l)
);
}
);
userData = {
com.hugojourdan.ColorFlow = {
"0" = 0;
"1" = 0;
"10" = 0;
"11" = 0;
"2" = 0;
"3" = 0;
"4" = 0;
"5" = 0;
"6" = 0;
"7" = 0;
"8" = 0;
"9" = 0;
};
};
width = 265;
}
);
unicode = 567;
},
{
color = 4;
glyphname = jcircumflex;
lastChange = "2024-02-12 15:03:03 +0000";
layers = (
{
layerId = m001;
shapes = (
{
closed = 1;
nodes = (
(241,468,l),
(200,468,l),
(9,397,l),
(9,368,l),
(65,356,l),
(36,-54,ls),
(29,-140,o),
(23,-136,o),
(-30,-136,cs),
(-56,-136,o),
(-89,-126,o),
(-102,-117,c),
(-112,-140,l),
(-92,-240,l),
(36,-240,o),
(195,-62,o),
(200,27,cs),
(219,312,l)
);
},
{
pos = (-110,0);
ref = circumflex;
}
);
userData = {
com.hugojourdan.ColorFlow = {
"0" = 0;
"1" = 0;
"10" = 0;
"11" = 0;
"2" = 0;
"3" = 0;
"4" = 0;
"5" = 0;
"6" = 0;
"7" = 0;
"8" = 0;
"9" = 0;
};
};
width = 265;
},
{
layerId = "5B801A11-FB24-4494-9FC9-AC06A39D30E5";
shapes = (
{
closed = 1;
nodes = (
(177,460,l),
(165,460,l),
(36,421,l),
(33,408,l),
(105,399,l),
(73,-65,ls),
(69,-132,o),
(44,-171,o),
(-1,-171,cs),
(-11,-171,o),
(-17,-171,o),
(-49,-168,c),
(-53,-193,l),
(-41,-227,l),
(49,-227,o),
(123,-158,o),
(136,11,cs),
(163,395,l)
);
},
{
pos = (-134,0);
ref = circumflex;
}
);
userData = {
com.hugojourdan.ColorFlow = {
"0" = 0;
"1" = 0;
"10" = 0;
"11" = 0;
"2" = 0;
"3" = 0;
"4" = 0;
"5" = 0;
"6" = 0;
"7" = 0;
"8" = 0;
"9" = 0;
};
};
width = 220;
}
);
unicode = 309;
},
{
color = 1;
glyphname = jcrossedtail;
lastChange = "2024-04-13 16:19:01 +0000";
layers = (
{
anchors = (
{
name = bottom;
pos = (70,-100);
},
{
name = top;
pos = (70,450);
}
);
layerId = m001;
shapes = (
{
closed = 1;
nodes = (
(189,503,o),
(250,560,o),
(252,594,cs),
(255,630,o),
(189,674,o),
(158,674,cs),
(125,674,o),
(67,616,o),
(65,582,cs),
(62,547,o),
(127,503,o),
(159,503,cs)
);
},
{
closed = 1;
nodes = (
(219,312,l),
(241,468,l),
(200,468,l),
(9,394,l),
(9,368,l),
(65,356,l),
(35,-66,ls),
(29,-146,o),
(9,-189,o),
(-34,-189,cs),
(-58,-189,o),
(-74,-173,o),
(-72,-144,cs),
(-69,-91,o),
(-10,-50,o),
(192,-52,cs),
(223,-52,o),
(246,-54,o),
(271,-56,c),
(275,-8,l),
(251,-6,o),
(227,-5,o),
(195,-5,cs),
(-71,-6,o),
(-122,-80,o),
(-127,-149,cs),
(-131,-208,o),
(-80,-239,o),
(-45,-239,cs),
(37,-239,o),
(191,-113,o),
(200,27,cs)
);
}
);
userData = {
com.hugojourdan.ColorFlow = {
"0" = 0;
"1" = 0;
"10" = 0;
"11" = 0;
"2" = 0;
"3" = 0;
"4" = 0;
"5" = 0;
"6" = 0;
"7" = 0;
"8" = 0;
"9" = 0;
};
};
width = 265;
},
{
anchors = (
{
name = bottom;
pos = (67,-100);
},
{
name = top;
pos = (67,450);
}
);
layerId = "5B801A11-FB24-4494-9FC9-AC06A39D30E5";
shapes = (
{
closed = 1;
nodes = (
(162,578,o),
(186,608,o),
(188,626,cs),
(188,643,o),
(165,666,o),
(153,666,cs),
(138,666,o),
(115,635,o),
(113,617,cs),
(113,600,o),
(135,578,o),
(148,578,cs)
);
},
{
closed = 1;
nodes = (
(163,395,l),
(177,460,l),
(165,460,l),
(36,421,l),
(33,408,l),
(105,399,l),
(69,-91,ls),
(64,-156,o),
(35,-196,o),
(-6,-196,cs),
(-32,-196,o),
(-48,-178,o),
(-46,-154,cs),
(-44,-126,o),
(-16,-101,o),
(44,-101,cs),
(111,-101,o),
(147,-109,o),
(211,-124,c),
(213,-90,l),
(154,-73,o),
(115,-67,o),
(44,-67,cs),
(-27,-67,o),
(-83,-101,o),
(-86,-155,cs),
(-90,-203,o),
(-55,-230,o),
(-9,-230,cs),
(43,-230,o),
(123,-175,o),
(134,-17,cs)
);
}
);
userData = {
com.hugojourdan.ColorFlow = {
"0" = 0;
"1" = 0;
"10" = 0;
"11" = 0;
"2" = 0;
"3" = 0;
"4" = 0;
"5" = 0;
"6" = 0;
"7" = 0;
"8" = 0;
"9" = 0;
};
};
width = 220;
},
{
anchors = (
{
name = bottom;
pos = (70,-100);
},
{
name = top;
pos = (70,450);
}
);
associatedMasterId = m001;
layerId = "F7D97AAC-2B2D-464C-A687-EC798FC15B6F";
name = "15 de dic. de 23, 18:34";
shapes = (
{
closed = 0;
nodes = (
(36,-54,l),
(31,-130,o),
(13,-136,o),
(-30,-136,cs),
(-56,-136,o),
(-89,-126,o),
(-102,-117,c),
(-112,-140,l),
(-92,-240,l),
(36,-240,o),
(192,-92,o),
(200,27,c)
);
},
{
closed = 1;
nodes = (
(189,503,o),
(250,560,o),
(252,594,cs),
(255,630,o),
(189,674,o),
(158,674,cs),
(125,674,o),
(67,616,o),
(65,582,cs),
(62,547,o),
(127,503,o),
(159,503,cs)
);
},
{
closed = 0;
nodes = (
(-164,-42,l),
(-165,-66,l),
(-171,-146,o),
(-191,-189,o),
(-234,-189,cs),
(-258,-189,o),
(-274,-173,o),
(-272,-144,cs),
(-269,-91,o),
(-210,-50,o),
(-8,-52,cs),
(23,-52,o),
(46,-54,o),
(71,-56,c),
(75,-8,l),
(51,-6,o),
(27,-5,o),
(-5,-5,cs),
(-271,-6,o),
(-322,-80,o),
(-327,-149,cs),
(-331,-208,o),
(-280,-239,o),
(-245,-239,cs),
(-163,-239,o),
(-126,-173,o),
(-119,-63,c),
(-119,-39,l)
);
},
{
closed = 0;
nodes = (
(200,27,l),
(219,312,l),
(241,468,l),
(200,468,l),
(9,394,l),
(9,368,l),
(65,356,l),
(36,-54,l)
);
}
);
visible = 1;
width = 265;
}
);
unicode = 669;
},
{
color = 3;
glyphname = jdotlessstroke;
lastChange = "2024-02-13 20:22:54 +0000";
layers = (
{
anchors = (
{
name = bottom;
pos = (70,-100);
},
{
name = top;
pos = (70,450);
}
);
layerId = m001;
shapes = (
{
closed = 1;
nodes = (
(36,-240,o),
(194,-62,o),
(200,27,cs),
(219,312,l),
(241,468,l),
(200,468,l),
(9,397,l),
(9,368,l),
(65,356,l),
(36,-54,ls),
(30,-140,o),
(23,-136,o),
(-30,-136,cs),
(-56,-136,o),
(-89,-126,o),
(-102,-117,c),
(-112,-140,l),
(-92,-240,l)
);
},
{
closed = 1;
nodes = (
(277,202,l),
(279,253,l),
(-12,253,l),
(-15,202,l)
);
}
);
userData = {
com.hugojourdan.ColorFlow = {
"0" = 0;
"1" = 0;
"10" = 0;
"11" = 0;
"2" = 0;
"3" = 0;
"4" = 0;
"5" = 0;
"6" = 0;
"7" = 0;
"8" = 0;
"9" = 0;
};
};
width = 265;
},
{
anchors = (
{
name = bottom;
pos = (67,-100);
},
{
name = top;
pos = (67,450);
}
);
layerId = "5B801A11-FB24-4494-9FC9-AC06A39D30E5";
shapes = (
{
closed = 1;
nodes = (
(49,-227,o),
(124,-158,o),
(136,11,cs),
(163,395,l),
(177,460,l),
(165,460,l),
(36,421,l),
(33,408,l),
(105,399,l),
(73,-65,ls),
(68,-132,o),
(44,-171,o),
(-1,-171,cs),
(-11,-171,o),
(-17,-171,o),
(-49,-168,c),
(-53,-193,l),
(-41,-227,l)
);
},
{
closed = 1;
nodes = (
(214,227,l),
(218,257,l),
(27,257,l),
(24,227,l)
);
}
);
userData = {
com.hugojourdan.ColorFlow = {
"0" = 0;
"1" = 0;
"10" = 0;
"11" = 0;
"2" = 0;
"3" = 0;
"4" = 0;
"5" = 0;
"6" = 0;
"7" = 0;
"8" = 0;
"9" = 0;
};
};
width = 220;
}
);
unicode = 607;
},
{
color = 3;
glyphname = jdotlessstrokehook;
lastChange = "2024-02-13 20:22:54 +0000";
layers = (
{
layerId = m001;
shapes = (
{
ref = esh;
},
{
closed = 1;
nodes = (
(326,212,l),
(328,263,l),
(37,263,l),
(34,212,l)
);
}
);
userData = {
com.hugojourdan.ColorFlow = {
"0" = 0;
"1" = 0;
"10" = 0;
"11" = 0;
"2" = 0;
"3" = 0;
"4" = 0;
"5" = 0;
"6" = 0;
"7" = 0;
"8" = 0;
"9" = 0;
};
};
width = 357;
},
{
layerId = "5B801A11-FB24-4494-9FC9-AC06A39D30E5";
shapes = (
{
ref = esh;
},
{
closed = 1;
nodes = (
(224,237,l),
(228,267,l),
(27,267,l),
(24,237,l)
);
}
);
userData = {
com.hugojourdan.ColorFlow = {
"0" = 0;
"1" = 0;
"10" = 0;
"11" = 0;
"2" = 0;
"3" = 0;
"4" = 0;
"5" = 0;
"6" = 0;
"7" = 0;
"8" = 0;
"9" = 0;
};
};
width = 236;
},
{
associatedMasterId = "5B801A11-FB24-4494-9FC9-AC06A39D30E5";
layerId = "4CCC6955-08F8-4054-99C3-9D76F2194A0C";
name = "11 de oct. de 23, 9:28";
shapes = (
{
closed = 1;
nodes = (
(49,-227,o),
(124,-158,o),
(136,11,cs),
(163,395,l),
(105,399,l),
(73,-65,ls),
(68,-132,o),
(44,-171,o),
(-1,-171,cs),
(-11,-171,o),
(-17,-171,o),
(-49,-168,c),
(-53,-193,l),
(-41,-227,l)
);
},
{
closed = 0;
nodes = (
(165,500,ls),
(169,608,o),
(194,637,o),
(249,637,cs),
(259,637,o),
(265,637,o),
(297,634,c),
(301,659,l),
(289,693,l),
(199,693,o),
(122,619,o),
(111,450,cs)
);
}
);
width = 220;
},
{
associatedMasterId = m001;
layerId = "0BDD1B74-F529-410B-A955-9059C06BC38C";
name = "11 de oct. de 23, 9:29";
shapes = (
{
closed = 1;
nodes = (
(36,-240,o),
(192,-92,o),
(200,27,cs),
(219,312,l),
(65,356,l),
(36,-54,ls),
(31,-130,o),
(13,-136,o),
(-30,-136,cs),
(-56,-136,o),
(-89,-126,o),
(-102,-117,c),
(-112,-140,l),
(-92,-240,l)
);
}
);
width = 265;
}
);
unicode = 644;
},
{
color = 4;
glyphname = k;
kernRight = KO_k;
lastChange = "2024-02-12 15:03:03 +0000";
layers = (
{
anchors = (
{
name = bottom;
pos = (266,-100);
},
{
name = top;
pos = (239,450);
}
);
layerId = m001;
shapes = (
{
closed = 1;
nodes = (
(73,0,l),
(189,25,l),
(202,208,l),
(236,230,l),
(270,9,o),
(305,-12,o),
(347,-12,cs),
(376,-12,o),
(434,25,o),
(486,87,c),
(473,107,l),
(465,105,o),
(454,99,o),
(445,99,cs),
(423,99,o),
(418,110,o),
(356,307,c),
(476,384,o),
(493,398,o),
(493,433,cs),
(493,449,o),
(473,468,o),
(444,468,cs),
(404,468,o),
(295,427,o),
(273,411,c),
(273,382,l),
(326,382,o),
(347,380,o),
(350,367,cs),
(354,349,o),
(298,317,o),
(206,255,c),
(228,555,l),
(249,693,l),
(199,693,l),
(-5,633,l),
(-7,605,l),
(72,605,l),
(28,0,l)
);
}
);
userData = {
com.hugojourdan.ColorFlow = {
"0" = 0;
"1" = 0;
"10" = 0;
"11" = 0;
"2" = 0;
"3" = 0;
"4" = 0;
"5" = 0;
"6" = 0;
"7" = 0;
"8" = 0;
"9" = 0;
};
};
width = 486;
},
{
anchors = (
{
name = bottom;
pos = (197,-100);
},
{
name = top;
pos = (242,450);
}
);
layerId = "5B801A11-FB24-4494-9FC9-AC06A39D30E5";
shapes = (
{
closed = 1;
nodes = (
(79,0,l),
(125,12,l),
(138,211,l),
(204,256,l),
(263,13,o),
(296,-12,o),
(339,-12,cs),
(368,-12,o),
(389,-4,o),
(441,58,c),
(428,78,l),
(401,46,o),
(385,38,o),
(365,38,cs),
(342,38,o),
(319,71,o),
(250,290,c),
(288,319,o),
(381,396,o),
(381,417,cs),
(381,444,o),
(356,457,o),
(334,457,cs),
(308,457,o),
(276,426,o),
(265,416,c),
(262,403,l),
(283,403,o),
(313,395,o),
(306,379,cs),
(296,361,o),
(199,278,o),
(139,238,c),
(161,576,l),
(180,693,l),
(159,693,l),
(46,638,l),
(44,624,l),
(109,624,l),
(68,0,l)
);
}
);
userData = {
com.hugojourdan.ColorFlow = {
"0" = 0;
"1" = 0;
"10" = 0;
"11" = 0;
"2" = 0;
"3" = 0;
"4" = 0;
"5" = 0;
"6" = 0;
"7" = 0;
"8" = 0;
"9" = 0;
};
};
width = 441;
},
{
anchors = (
{
name = bottom;
pos = (197,-100);
},
{
name = top;
pos = (242,450);
}
);
associatedMasterId = "5B801A11-FB24-4494-9FC9-AC06A39D30E5";
layerId = "194D2F83-E62A-4CF0-A399-6B4B0D99DF00";
name = "6 de dic. de 23, 10:45";
shapes = (
{
closed = 1;
nodes = (
(79,0,l),
(125,12,l),
(138,211,l),
(204,256,l),
(263,13,o),
(296,-12,o),
(339,-12,cs),
(368,-12,o),
(389,-4,o),
(441,58,c),
(428,78,l),
(401,46,o),
(385,38,o),
(365,38,cs),
(342,38,o),
(319,71,o),
(250,290,c),
(288,319,o),
(381,396,o),
(381,417,cs),
(381,444,o),
(363,450,o),
(327,460,c),
(297,444,o),
(295,438,o),
(265,416,c),
(262,403,l),
(283,403,o),
(313,395,o),
(306,379,cs),
(296,361,o),
(199,278,o),
(139,238,c),
(161,576,l),
(180,693,l),
(159,693,l),
(46,638,l),
(44,624,l),
(109,624,l),
(68,0,l)
);
}
);
visible = 1;
width = 441;
}
);
unicode = 107;
userData = {
KernOnName = k;
};
},
{
color = 3;
glyphname = khook;
lastChange = "2024-02-13 20:22:54 +0000";
layers = (
{
layerId = m001;
shapes = (
{
closed = 1;
nodes = (
(65,0,l),
(181,25,l),
(194,208,l),
(228,230,l),
(262,9,o),
(297,-12,o),
(339,-12,cs),
(368,-12,o),
(426,25,o),
(478,87,c),
(465,107,l),
(457,105,o),
(446,99,o),
(437,99,cs),
(415,99,o),
(410,110,o),
(348,307,c),
(468,384,o),
(485,398,o),
(485,433,cs),
(485,449,o),
(448,474,o),
(428,468,c),
(396,468,o),
(287,427,o),
(265,411,c),
(265,382,l),
(318,382,o),
(337,379,o),
(341,371,c),
(347,340,o),
(301,324,o),
(198,255,c),
(215,507,l),
(227,583,o),
(249,589,o),
(278,589,cs),
(298,589,o),
(341,579,o),
(354,570,c),
(364,593,l),
(344,693,l),
(216,693,o),
(61,565,o),
(44,332,cs),
(20,0,l)
);
}
);
userData = {
com.hugojourdan.ColorFlow = {
"0" = 0;
"1" = 0;
"10" = 0;
"11" = 0;
"2" = 0;
"3" = 0;
"4" = 0;
"5" = 0;
"6" = 0;
"7" = 0;
"8" = 0;
"9" = 0;
};
};
width = 478;
},
{
layerId = "5B801A11-FB24-4494-9FC9-AC06A39D30E5";
shapes = (
{
closed = 1;
nodes = (
(69,0,l),
(116,12,l),
(129,211,l),
(195,256,l),
(254,13,o),
(287,-12,o),
(330,-12,cs),
(359,-12,o),
(380,-4,o),
(432,58,c),
(419,78,l),
(392,46,o),
(376,38,o),
(356,38,cs),
(333,38,o),
(310,71,o),
(241,290,c),
(279,319,o),
(372,396,o),
(372,417,cs),
(372,444,o),
(354,450,o),
(318,460,c),
(288,444,o),
(286,438,o),
(256,416,c),
(253,403,l),
(274,403,o),
(304,395,o),
(297,379,cs),
(287,361,o),
(190,278,o),
(130,238,c),
(147,500,l),
(150,608,o),
(170,637,o),
(225,637,cs),
(235,637,o),
(241,637,o),
(273,634,c),
(277,659,l),
(265,693,l),
(175,693,o),
(99,624,o),
(88,455,cs),
(59,0,l)
);
}
);
userData = {
com.hugojourdan.ColorFlow = {
"0" = 0;
"1" = 0;
"10" = 0;
"11" = 0;
"2" = 0;
"3" = 0;
"4" = 0;
"5" = 0;
"6" = 0;
"7" = 0;
"8" = 0;
"9" = 0;
};
};
width = 432;
}
);
metricRight = k;
unicode = 409;
},
{
color = 4;
glyphname = l;
kernRight = KO_l;
lastChange = "2024-02-12 15:03:03 +0000";
layers = (
{
anchors = (
{
name = bottom;
pos = (142,-100);
},
{
name = right;
pos = (339,450);
},
{
name = top;
pos = (142,450);
}
);
layerId = m001;
shapes = (
{
closed = 1;
nodes = (
(156,-18,o),
(205,3,o),
(292,84,c),
(270,114,l),
(257,103,o),
(240,89,o),
(226,89,cs),
(208,89,o),
(193,103,o),
(196,141,cs),
(228,555,l),
(249,693,l),
(199,693,l),
(-5,633,l),
(-7,605,l),
(72,605,l),
(34,87,ls),
(29,25,o),
(72,-18,o),
(125,-18,cs)
);
}
);
userData = {
com.hugojourdan.ColorFlow = {
"0" = 0;
"1" = 0;
"10" = 0;
"11" = 0;
"2" = 0;
"3" = 0;
"4" = 0;
"5" = 0;
"6" = 0;
"7" = 0;
"8" = 0;
"9" = 0;
};
};
width = 256;
},
{
anchors = (
{
name = bottom;
pos = (150,-100);
},
{
name = right;
pos = (176,450);
},
{
name = top;
pos = (150,450);
}
);
layerId = "5B801A11-FB24-4494-9FC9-AC06A39D30E5";
shapes = (
{
closed = 1;
nodes = (
(169,-10,o),
(197,3,o),
(257,87,c),
(246,106,l),
(198,50,o),
(179,46,o),
(162,46,cs),
(134,46,o),
(127,69,o),
(129,102,cs),
(161,576,l),
(180,693,l),
(159,693,l),
(46,638,l),
(44,624,l),
(109,624,l),
(74,87,ls),
(70,25,o),
(99,-10,o),
(138,-10,cs)
);
}
);
userData = {
com.hugojourdan.ColorFlow = {
"0" = 0;
"1" = 0;
"10" = 0;
"11" = 0;
"2" = 0;
"3" = 0;
"4" = 0;
"5" = 0;
"6" = 0;
"7" = 0;
"8" = 0;
"9" = 0;
};
};
width = 269;
},
{
anchors = (
{
name = bottom;
pos = (142,-100);
},
{
name = right;
pos = (339,450);
},
{
name = top;
pos = (142,450);
}
);
associatedMasterId = m001;
layerId = "44306F82-E52C-4E32-836E-68B3959E82D2";
name = "2 de oct. de 23, 9:01";
shapes = (
{
closed = 1;
nodes = (
(156,-18,o),
(205,3,o),
(292,84,c),
(270,114,l),
(257,103,o),
(240,89,o),
(226,89,cs),
(208,89,o),
(193,103,o),
(196,141,cs),
(228,555,l),
(249,693,l),
(199,693,l),
(-5,633,l),
(-7,605,l),
(72,605,l),
(34,87,ls),
(29,25,o),
(72,-18,o),
(125,-18,cs)
);
}
);
visible = 1;
width = 256;
}
);
unicode = 108;
userData = {
KernOnName = l;
};
},
